<svg width="37" height="37" viewBox="0 0 37 37" fill="none" xmlns="http://www.w3.org/2000/svg">
<g clip-path="url(#clip0_1454_1772)">
<circle cx="18.5" cy="18.5" r="18.5" fill="white"/>
<path d="M26.3723 26.3625H17.1223V13.8438L25.1204 18.2253L26.3723 26.3625Z" fill="black"/>
<path d="M18.8312 24.153C22.1479 24.153 24.8366 21.4643 24.8366 18.1476C24.8366 14.8308 22.1479 12.1421 18.8312 12.1421C15.5144 12.1421 12.8257 14.8308 12.8257 18.1476C12.8257 21.4643 15.5144 24.153 18.8312 24.153Z" fill="#FFB6B6"/>
<path d="M15.3835 25.041L15.1122 22.2985L20.5301 21.2854L23.7294 29.0749L18.1655 35.4734L14.2012 27.6839L15.3835 25.041Z" fill="#FFB6B6"/>
<path d="M31.7866 31.3728C31.7191 31.4431 31.6503 31.5126 31.5814 31.5815C31.363 31.7999 31.1405 32.012 30.9131 32.2178C27.5052 35.3086 23.1326 37 18.5 37C14.229 37 10.1792 35.5625 6.90271 32.9161C6.90063 32.9147 6.89923 32.9133 6.89715 32.9112C6.79769 32.8313 6.69963 32.7499 6.60156 32.6671C6.61895 32.6171 6.63773 32.5677 6.65651 32.519C7.71017 29.7739 9.79108 28.4309 11.0541 27.8432C11.68 27.5518 12.105 27.4454 12.105 27.4454L13.5877 24.7747L14.6317 26.7221L15.4009 28.1576L18.557 34.0463L21.2799 27.2667L22.1235 25.1649L22.3398 24.6266L23.3684 25.4271L24.3421 26.1845L26.3027 26.6171L27.8933 26.9683L30.0534 27.4454C30.927 28.1569 31.4583 29.5103 31.7553 31.192C31.7664 31.2518 31.7769 31.3123 31.7866 31.3728Z" fill="#A5B68D"/>
<path d="M14.8905 11.3228C15.622 10.094 16.9656 9.25093 18.3902 9.12667C19.8148 9.00241 21.284 9.60017 22.2173 10.6838C22.7734 11.3295 23.138 12.1203 23.6801 12.7778C24.8466 14.1928 26.8356 15.0202 27.3452 16.7818C27.5676 17.5505 27.4568 18.3712 27.3443 19.1635C27.2478 19.8426 27.1514 20.5216 27.055 21.2007C26.9799 21.7292 26.9079 22.2863 27.1061 22.782C27.3386 23.3634 27.895 23.7443 28.2547 24.2569C28.8668 25.1292 28.822 26.4062 28.1504 27.2335C27.8591 27.5923 27.4729 27.8628 27.1676 28.2097C26.8622 28.5565 26.6357 29.0307 26.7636 29.4748C27.0086 30.3255 27.395 30.0762 27.5413 30.9493C27.6161 31.3957 27.3078 31.8414 26.9038 32.0455C26.4999 32.2497 26.0243 32.2556 25.575 32.201C23.8674 31.9934 23.234 31.3797 22.4025 29.8737C21.5711 28.3677 21.5106 26.4613 22.2448 24.9056C22.8478 23.6279 23.9686 22.4988 23.9563 21.086C23.9497 20.3163 23.5967 19.5974 23.2514 18.9095C22.5449 17.5014 21.8383 16.0933 21.1318 14.6852C20.7533 13.931 20.314 13.1182 19.5348 12.7942C18.9326 12.5437 18.2493 12.6409 17.6052 12.7433C16.9611 12.8457 16.2788 12.9454 15.6748 12.6994C15.0708 12.4533 14.6027 11.9081 14.8905 11.3228Z" fill="#090814"/>
<path d="M16.7245 11.3869C15.5642 11.005 14.2626 11.6181 13.4771 12.5535C12.6916 13.489 12.3106 14.6891 11.9476 15.8554C11.7397 16.5235 11.5318 17.1916 11.3239 17.8596C11.1283 18.4881 10.9327 19.1166 10.7371 19.745C10.507 20.4842 10.2751 21.2696 10.4639 22.0204C10.6004 22.5632 10.9516 23.0561 10.9592 23.6157C10.9671 24.2003 10.601 24.7135 10.2801 25.2023C9.9593 25.6911 9.65813 26.2718 9.81099 26.8361C10.0435 27.6944 11.2369 28.1662 11.1715 29.0531C11.1496 29.3491 10.9785 29.6229 10.9816 29.9196C10.9855 30.2972 11.2812 30.6235 11.6275 30.7739C11.9739 30.9244 12.3635 30.9325 12.741 30.9259C13.8991 30.9055 15.0551 30.768 16.1856 30.5161C16.6206 30.4192 17.0629 30.3003 17.425 30.0405C17.787 29.7807 18.0571 29.3502 18.01 28.9071C17.9366 28.2166 17.1941 27.8248 16.8195 27.2402C16.4514 26.6659 16.46 25.9382 16.3013 25.2749C16.0832 24.3632 15.5446 23.5673 15.1402 22.7216C13.6201 19.5421 14.1522 15.4894 16.4417 12.8101C16.6441 12.5732 16.8652 12.3349 16.9497 12.0349C17.0341 11.735 16.9253 11.3529 16.6319 11.2479" fill="#090814"/>
<path d="M31.5815 5.41855C28.0873 1.92442 23.4414 0 18.5 0C13.5586 0 8.91269 1.92442 5.41855 5.41855C1.92442 8.91269 0 13.5585 0 18.5C0 23.0102 1.6031 27.2743 4.54084 30.6411C4.82113 30.9632 5.11393 31.2768 5.41855 31.5814C5.49019 31.6531 5.56252 31.7247 5.63555 31.7943C5.83028 31.9827 6.0285 32.167 6.23019 32.3458C6.3526 32.455 6.47639 32.5621 6.60158 32.6671C6.69965 32.7499 6.79771 32.8312 6.89716 32.9112C6.89925 32.9133 6.90064 32.9147 6.90273 32.9161C10.1792 35.5624 14.229 37 18.5 37C23.1327 37 27.5052 35.3086 30.9131 32.2178C31.1405 32.012 31.3631 31.7998 31.5815 31.5814C31.6503 31.5126 31.7192 31.443 31.7866 31.3728C31.9744 31.1795 32.1566 30.9826 32.3347 30.783C35.351 27.3946 37 23.0742 37 18.5C37 13.5585 35.0756 8.91269 31.5815 5.41855ZM32.2895 30.6099C32.1156 30.8074 31.9375 31.0021 31.7553 31.192C31.4716 31.4876 31.1788 31.7741 30.8762 32.0502C30.7615 32.1559 30.6453 32.2589 30.5278 32.3611C29.3406 33.3939 28.0192 34.2758 26.5941 34.9782C26.094 35.2251 25.5815 35.4498 25.0571 35.6508C23.02 36.4325 20.809 36.8609 18.5 36.8609C16.2717 36.8609 14.1351 36.4617 12.1578 35.7314C11.3462 35.4324 10.5617 35.077 9.80848 34.6701C9.6979 34.6103 9.58801 34.5498 9.47881 34.4879C8.90434 34.1624 8.34865 33.807 7.81521 33.4231C7.41669 33.1373 7.03 32.8361 6.65652 32.519C6.52577 32.4084 6.39641 32.2964 6.26914 32.1817C6.06188 31.9973 5.8588 31.8075 5.66058 31.6127C5.28502 31.2448 4.92615 30.8616 4.58327 30.4631C1.81453 27.2472 0.139098 23.0659 0.139098 18.5C0.139098 8.37577 8.37577 0.139098 18.5 0.139098C28.6242 0.139098 36.8609 8.37577 36.8609 18.5C36.8609 23.1361 35.134 27.3758 32.2895 30.6099Z" fill="#3F3D56"/>
</g>
<defs>
<clipPath id="clip0_1454_1772">
<rect width="37" height="37" fill="white"/>
</clipPath>
</defs>
</svg>
