<svg width="37" height="38" viewBox="0 0 37 38" fill="none" xmlns="http://www.w3.org/2000/svg">
<g clip-path="url(#clip0_1453_1744)">
<ellipse cx="18.5" cy="19" rx="18.5" ry="19" fill="white"/>
<path d="M18.8312 24.8057C22.1479 24.8057 24.8366 22.0442 24.8366 18.6379C24.8366 15.2315 22.1479 12.4701 18.8312 12.4701C15.5144 12.4701 12.8257 15.2315 12.8257 18.6379C12.8257 22.0442 15.5144 24.8057 18.8312 24.8057Z" fill="#FFB6B6"/>
<path d="M13.8604 26.1867L15.1122 22.901L21.5803 21.901L22.2752 29.1743L15.7376 29.3172L13.8604 26.1867Z" fill="#FFB6B6"/>
<path d="M24.8947 19.7758C24.8168 20.0965 24.6592 20.8601 24.4132 20.8639C24.2122 20.8669 24.0198 17.5542 24.2206 17.0063C24.4512 16.3768 23.8451 15.5806 23.3885 15.1718C22.5675 14.4368 20.7451 16.015 18.8921 15.3001C18.8429 15.2812 18.8527 15.2833 18.2676 15.0435C16.467 14.3057 16.3723 14.2844 16.2692 14.2739C15.3963 14.1852 14.331 14.9187 13.896 15.8132C13.4439 16.7429 13.8217 17.5404 13.3964 19.7897C13.3469 20.0519 13.2691 20.4256 13.1466 20.4311C12.9228 20.4411 12.7043 19.2134 12.647 18.8918C12.4072 17.5445 12.176 16.2456 12.647 14.787C12.6984 14.6279 13.0151 14.0374 13.6462 12.8628C14.5556 11.1708 15.0129 10.3216 15.1451 10.169C16.0929 9.07429 17.8182 8.07564 19.2668 8.50143C19.9989 8.71665 19.8676 9.06264 20.7656 9.39937C22.3658 9.99941 23.7565 9.26558 24.013 9.78419C24.1489 10.0589 23.7687 10.2854 23.7632 10.8104C23.7537 11.7112 24.863 11.9715 25.5118 12.8628C25.8605 13.342 26.4575 13.3471 24.8947 19.7758Z" fill="#090814"/>
<path d="M32.3346 31.615C32.0926 31.8943 31.8415 32.1679 31.5814 32.4351C28.0873 36.0236 23.4414 38 18.5 38C14.229 38 10.1791 36.5236 6.90268 33.8058C6.90059 33.8044 6.8992 33.8029 6.89712 33.8007C6.46244 33.4408 6.04167 33.0579 5.6355 32.6536C5.64314 32.5908 5.65149 32.5286 5.66053 32.4672C5.71756 32.0529 5.78086 31.6579 5.85179 31.2943C6.43253 28.3143 14.0739 25.1858 14.2728 25.1043C14.2756 25.1036 14.2769 25.1029 14.2769 25.1029C14.2769 25.1029 14.9815 29.0122 19.1954 28.9643C22.0657 28.9321 21.7882 25.1029 21.7882 25.1029C21.7882 25.1029 21.823 25.11 21.8884 25.1243C22.7174 25.3051 28.4733 26.6036 30.744 28.3758C31.436 28.9158 31.9326 30.0658 32.2894 31.4372C32.3047 31.4958 32.3193 31.5558 32.3346 31.615Z" fill="#090814"/>
<path d="M14.2227 25.1786C16.7031 30.0581 21.6158 29.5057 21.8383 25.1786L23.2988 37.2857C21.2925 37.7676 20.4423 37.8477 18.7086 37.8572C17.5418 37.8625 16.0869 37.703 14.9182 37.5357L14.2227 25.1786Z" fill="#A5B68D"/>
<path d="M31.5815 5.56501C28.0873 1.97649 23.4415 0 18.5 0C13.5585 0 8.9127 1.97649 5.41855 5.56501C1.92443 9.1536 0 13.925 0 19C0 23.6322 1.6031 28.0114 4.54085 31.4693C4.82113 31.8 5.11393 32.1221 5.41855 32.4351C5.49018 32.5086 5.56252 32.5822 5.63555 32.6536C6.04172 33.0579 6.46249 33.4408 6.89717 33.8007C6.89925 33.8029 6.90064 33.8043 6.90273 33.8057C10.1792 36.5236 14.229 38 18.5 38C23.4415 38 28.0873 36.0236 31.5815 32.4351C31.8416 32.1679 32.0926 31.8943 32.3347 31.615C35.351 28.135 37 23.6979 37 19C37 13.925 35.0756 9.1536 31.5815 5.56501ZM32.2895 31.4372C31.7421 32.0765 31.1537 32.6779 30.5278 33.2358C29.3406 34.2965 28.0192 35.2022 26.5941 35.9236C26.094 36.1772 25.5815 36.4079 25.0571 36.6143C23.02 37.4172 20.809 37.8571 18.5 37.8571C16.2717 37.8571 14.1351 37.4472 12.1578 36.6972C11.3462 36.39 10.5617 36.025 9.80848 35.6071C9.69789 35.5458 9.58802 35.4836 9.47882 35.4201C8.90434 35.0857 8.34865 34.7208 7.81522 34.3265C7.05087 33.7636 6.33034 33.1415 5.66058 32.4671C5.28502 32.0893 4.92615 31.6957 4.58328 31.2865C1.81454 27.9836 0.139098 23.6893 0.139098 19C0.139098 8.60219 8.37577 0.142857 18.5 0.142857C28.6242 0.142857 36.8609 8.60219 36.8609 19C36.8609 23.7614 35.134 28.1157 32.2895 31.4372Z" fill="#3F3D56"/>
</g>
<defs>
<clipPath id="clip0_1453_1744">
<rect width="37" height="38" fill="white"/>
</clipPath>
</defs>
</svg>
