<svg width="190" height="121" viewBox="0 0 190 121" fill="none" xmlns="http://www.w3.org/2000/svg">
<g clip-path="url(#clip0_1458_1864)">
<path d="M64.9832 69.6366C71.1917 58.6604 83.0345 50.2324 95.5711 51.0443C86.3237 61.1509 80.9314 74.2191 80.3481 87.9368C80.1423 93.228 80.4615 99.1346 76.9659 103.097C74.7909 105.562 71.4663 106.756 68.1976 107.006C64.9287 107.257 61.6605 106.663 58.4353 106.072L57.6529 106.313C57.3551 93.6911 58.7747 80.6129 64.9832 69.6366Z" fill="#A5B68D"/>
<path d="M95.5897 51.3085C86.3191 55.7939 78.4142 63.2848 73.5616 72.4206C72.5124 74.3957 71.6192 76.4911 71.2296 78.7066C70.8398 80.9231 71.1121 83.033 71.8653 85.1382C72.554 87.0628 73.4801 88.9512 73.6913 91.0105C73.9139 93.1811 73.1192 95.2107 71.6888 96.8214C69.9386 98.7922 67.5882 100.013 65.2484 101.127C62.6505 102.364 59.9326 103.608 58.0925 105.916C57.8696 106.196 57.4508 105.832 57.6734 105.553C60.8748 101.536 66.3547 100.781 70.1548 97.5459C71.9279 96.0362 73.2592 93.9803 73.1751 91.5714C73.1017 89.4649 72.1483 87.5167 71.4342 85.5741C70.6845 83.5343 70.3106 81.4834 70.5795 79.3087C70.8545 77.0841 71.6681 74.9492 72.6624 72.9557C74.9047 68.4601 77.9734 64.3327 81.4888 60.7648C85.529 56.6637 90.2374 53.2874 95.4104 50.782C95.7307 50.627 95.9079 51.1546 95.5897 51.3085Z" fill="white"/>
<path d="M74.9828 69.3675C73.5616 68.3231 72.5561 66.8049 72.1458 65.0842C71.7355 63.3634 71.9472 61.5521 72.743 59.9738C72.9051 59.655 73.4057 59.8932 73.2433 60.2124C72.4995 61.6808 72.3025 63.3681 72.6879 64.9696C73.0732 66.5712 74.0155 67.9816 75.3446 68.9462C75.6332 69.1562 75.2698 69.5762 74.9828 69.3675Z" fill="white"/>
<path d="M71.3882 84.2086C74.9494 83.6856 78.1837 81.8328 80.4461 79.0197C80.67 78.7408 81.0889 79.1048 80.8652 79.3833C78.5055 82.3063 75.1358 84.2275 71.4287 84.7636C71.0754 84.8144 71.0367 84.2592 71.3882 84.2086Z" fill="white"/>
<path d="M85.8025 57.3484C86.2686 57.8677 86.8558 58.2625 87.5112 58.4973C88.1667 58.7322 88.8699 58.7997 89.5577 58.6939C89.9103 58.6386 89.9485 59.1939 89.5983 59.2489C88.8378 59.3622 88.0612 59.2867 87.3365 59.0288C86.6118 58.771 85.9609 58.3386 85.4407 57.7697C85.3872 57.7201 85.3545 57.652 85.3492 57.5791C85.3438 57.5062 85.3663 57.4341 85.412 57.3772C85.4602 57.3217 85.5283 57.2875 85.6014 57.2821C85.6745 57.2767 85.7468 57.3006 85.8025 57.3484Z" fill="white"/>
<path d="M120.515 85.6703C120.296 85.7112 120.077 85.752 119.856 85.7971C116.912 86.3615 114.019 87.1652 111.204 88.2005C110.986 88.2771 110.765 88.358 110.549 88.4407C103.795 91.0075 97.5745 94.8122 92.2029 99.6613C90.0672 101.593 88.0807 103.685 86.2608 105.919C83.7476 109.005 81.267 112.552 77.9829 114.564C77.6426 114.778 77.2895 114.971 76.9255 115.141L58.0066 107.254C57.9726 107.214 57.9365 107.179 57.9023 107.139L57.1326 106.859C57.2184 106.737 57.3101 106.613 57.3959 106.491C57.4454 106.42 57.4991 106.351 57.5487 106.28C57.583 106.233 57.6176 106.187 57.6459 106.142C57.6573 106.127 57.6689 106.111 57.6784 106.1C57.7068 106.056 57.7378 106.018 57.7643 105.978C58.2747 105.281 58.7908 104.586 59.3127 103.893C59.3145 103.889 59.3145 103.889 59.3205 103.887C63.3106 98.6197 67.7732 93.6414 72.8457 89.5022C72.9984 89.3777 73.1526 89.2488 73.3139 89.1279C75.6107 87.2748 78.0543 85.6135 80.6204 84.1606C82.028 83.3696 83.4746 82.6507 84.9546 82.0066C88.7818 80.3499 92.8445 79.3086 96.9937 78.9207C105.265 78.1488 113.69 80.0441 120.034 85.2665C120.196 85.4003 120.355 85.5323 120.515 85.6703Z" fill="#A5B68D"/>
<path d="M120.373 85.8939C110.284 83.8656 99.4846 85.0634 90.1372 89.4216C88.1163 90.3638 86.1478 91.4964 84.5095 93.0296C82.8705 94.5634 81.8239 96.4128 81.1642 98.5495C80.5611 100.503 80.1693 102.571 79.1043 104.343C77.9817 106.211 76.1314 107.351 74.0243 107.771C71.4463 108.286 68.838 107.839 66.3024 107.312C63.4872 106.728 60.5722 106.076 57.7202 106.806C57.3746 106.894 57.2583 106.35 57.6033 106.262C62.5655 104.992 67.3932 107.705 72.3655 107.421C74.6856 107.289 76.9801 106.453 78.3562 104.479C79.5594 102.752 79.9653 100.62 80.5589 98.6367C81.1822 96.5544 82.1123 94.6906 83.6298 93.1169C85.1821 91.5071 87.1106 90.2948 89.0987 89.3048C93.5822 87.0721 98.5049 85.6335 103.449 84.9119C109.132 84.082 114.914 84.2353 120.545 85.365C120.894 85.435 120.719 85.9635 120.373 85.8939Z" fill="white"/>
<path d="M93.1013 87.8439C92.5922 86.1501 92.6987 84.3295 93.402 82.7073C94.1052 81.0851 95.3593 79.767 96.9403 78.9883C97.2607 78.8318 97.5177 79.3249 97.1968 79.4816C95.7233 80.204 94.5552 81.4319 93.9034 82.9439C93.2517 84.4558 93.1591 86.1521 93.6425 87.7265C93.7471 88.0688 93.2053 88.1843 93.1013 87.8439Z" fill="white"/>
<path d="M81.3403 97.5186C84.4971 99.2559 88.1894 99.7336 91.681 98.8565C92.0269 98.7693 92.1433 99.3133 91.7979 99.4004C88.1627 100.306 84.3213 99.8014 81.0403 97.9863C80.7276 97.8131 81.0294 97.3463 81.3403 97.5186Z" fill="white"/>
<path d="M108.94 84.7942C109.001 85.4909 109.234 86.1613 109.616 86.7455C109.999 87.3296 110.52 87.8091 111.132 88.1408C111.447 88.31 111.145 88.7765 110.832 88.6084C110.157 88.2388 109.582 87.7085 109.158 87.0641C108.734 86.4197 108.473 85.6807 108.399 84.9116C108.386 84.8397 108.401 84.7655 108.44 84.7041C108.479 84.6427 108.541 84.5987 108.611 84.581C108.683 84.5658 108.758 84.5797 108.819 84.6196C108.881 84.6595 108.924 84.7223 108.94 84.7942Z" fill="white"/>
<path d="M84.4758 98.6819C81.8263 85.8066 78.5144 81.5139 78.5144 81.5139L77.2491 80.5278L75.7276 79.34L75.7349 79.1872L75.374 79.064L75.2893 78.9978L75.1503 78.8906L75.128 78.9147L75.0808 78.9638L68.1956 76.6117L59.4605 73.6297L55.4157 68.3457C54.7569 67.4852 53.9088 66.7896 52.9378 66.3136C51.9668 65.8376 50.8993 65.5941 49.819 65.6021L36.9009 65.6982C35.1542 65.7112 33.4756 66.3804 32.1949 67.5742L23.7041 75.4897L10.4737 81.8401L10.4514 81.8177L10.3125 81.9174L8.26824 82.8998L8.3526 83.3411L7.08736 84.2586C7.08736 84.2586 3.77543 88.2529 1.12588 100.233C0.451865 103.282 0.12009 109.821 0.000336531 117.879C-0.00567865 118.286 0.0689971 118.691 0.22002 119.069C0.371043 119.448 0.5954 119.792 0.880048 120.083C1.16469 120.373 1.50395 120.604 1.87809 120.761C2.25224 120.919 2.6538 121 3.05943 121H73.7254L82.5455 121C82.9508 121 83.3521 120.919 83.726 120.761C84.0999 120.604 84.439 120.374 84.7236 120.084C85.0082 119.794 85.2326 119.45 85.3838 119.072C85.5351 118.694 85.6101 118.289 85.6046 117.882C85.4876 109.114 85.156 101.988 84.4758 98.6819Z" fill="#888888"/>
<path d="M80.1582 11.4818C76.7116 11.4818 73.4062 12.8776 70.9691 15.3621C68.532 17.8466 67.1628 21.2164 67.1628 24.73C67.1628 28.2436 68.532 31.6133 70.9691 34.0979C73.4062 36.5824 76.7116 37.9782 80.1582 37.9782H177.005C180.451 37.9782 183.757 36.5824 186.194 34.0979C188.631 31.6133 190 28.2436 190 24.73C190 21.2164 188.631 17.8466 186.194 15.3621C183.757 12.8776 180.451 11.4818 177.005 11.4818H80.1582Z" fill="#E5E5E5"/>
<path d="M80.1756 14.1313C77.4275 14.1313 74.792 15.248 72.8488 17.2356C70.9056 19.2232 69.814 21.919 69.814 24.7299C69.814 27.5408 70.9056 30.2366 72.8488 32.2242C74.792 34.2118 77.4275 35.3284 80.1756 35.3284H176.987C179.735 35.3284 182.371 34.2118 184.314 32.2242C186.257 30.2366 187.349 27.5408 187.349 24.7299C187.349 21.919 186.257 19.2232 184.314 17.2356C182.371 15.248 179.735 14.1313 176.987 14.1313H80.1756Z" fill="white"/>
<path d="M45.3885 69.3395C54.7354 69.3395 62.3125 61.7244 62.3125 52.3306C62.3125 42.9368 54.7354 35.3217 45.3885 35.3217C36.0417 35.3217 28.4646 42.9368 28.4646 52.3306C28.4646 61.7244 36.0417 69.3395 45.3885 69.3395Z" fill="#FFB6B6"/>
<path d="M41.0591 59.8918C40.9868 59.7318 40.9147 59.5712 40.8428 59.4102C40.8705 59.411 40.8979 59.4151 40.9256 59.4158L41.0591 59.8918Z" fill="#2F2E41"/>
<path d="M27.994 36.0952C28.85 35.4089 29.8504 34.7775 30.9448 34.813C32.0391 34.8484 33.1489 35.8418 32.9222 36.9184C34.9323 33.3414 38.1319 30.5903 41.9592 29.1479C45.7865 27.7056 49.9971 27.6641 53.8517 29.031C56.5717 29.9954 59.2391 31.9249 59.8639 34.7548C60.0243 35.4813 60.0587 36.2778 60.51 36.8677C61.0791 37.6115 62.1678 37.7797 63.0643 37.5181C63.0733 37.5155 63.0822 37.5128 63.0912 37.5101C63.2426 37.4581 63.4061 37.453 63.5605 37.4955C63.7148 37.5379 63.853 37.6259 63.957 37.7481C64.0611 37.8702 64.1263 38.021 64.1442 38.1808C64.1621 38.3407 64.1318 38.5022 64.0574 38.6446L63.2877 40.0871C64.2579 40.3045 65.2659 40.2829 66.226 40.0243C66.3855 39.9823 66.554 39.9909 66.7085 40.0489C66.8629 40.1069 66.9957 40.2115 67.0886 40.3484C67.1816 40.4853 67.2301 40.6477 67.2275 40.8134C67.225 40.9791 67.1715 41.1399 67.0744 41.2739C64.5367 44.7755 60.297 47.0366 55.9706 47.0101C52.8956 46.9912 49.7889 45.9261 46.7962 46.6368C45.6385 46.9117 44.5567 47.4437 43.6302 48.1936C42.7037 48.9435 41.956 49.8924 41.4419 50.9707C40.9279 52.0489 40.6606 53.2291 40.6596 54.4247C40.6586 55.6203 40.924 56.801 41.4362 57.8801C40.5169 56.8694 38.7397 57.1087 37.7992 58.0996C36.8588 59.0905 36.6154 60.5695 36.7101 61.9356C36.855 64.0249 37.6695 65.9936 38.5282 67.9098C31.329 67.682 24.5197 62.6065 22.2276 55.7417C19.926 48.8482 22.3382 40.6296 27.994 36.0952Z" fill="#090814"/>
<path opacity="0.2" d="M16.6575 94.7947L21.4042 120.751L24.2524 121L16.6575 94.7947Z" fill="black"/>
<path opacity="0.2" d="M68.9443 92.8372L64.1975 120.732L61.3494 121L68.9443 92.8372Z" fill="black"/>
<path d="M32.0426 27.3597C31.1324 27.7417 30.1827 27.3231 29.7845 26.3645C29.3801 25.3912 29.7578 24.4032 30.6825 24.0152C31.6073 23.6271 32.5401 24.0467 32.9509 25.0356C33.3557 26.0097 32.9821 26.9654 32.0426 27.3597ZM30.2991 22.0995L29.5755 22.4032C29.3947 22.4781 29.1925 22.4822 29.0089 22.4145C28.8253 22.3468 28.6737 22.2123 28.584 22.0377L28.5482 21.9673C27.7695 20.556 27.6804 18.8408 28.2846 16.8719C28.8443 15.1057 29.0768 13.8636 28.6093 12.7383C28.0687 11.4372 26.9144 11.0297 25.4424 11.6201C24.8715 11.8596 24.6898 11.8558 24.2405 12.3038C24.1428 12.4024 24.0263 12.4802 23.898 12.5326C23.7697 12.585 23.6322 12.6109 23.4937 12.6088C23.3599 12.6072 23.2277 12.5785 23.1051 12.5245C22.9825 12.4704 22.872 12.3922 22.7801 12.2943C22.6031 12.1056 22.504 11.8565 22.5027 11.5973C22.5014 11.338 22.598 11.0879 22.7731 10.8975C23.5283 10.103 24.4391 9.47449 25.4481 9.05157C28.6108 7.7243 30.2029 9.68382 30.9315 11.4374C31.6441 13.1526 31.2433 14.744 30.5992 16.8051C30.0594 18.5177 30.0908 19.7867 30.704 21.0485C30.7482 21.1439 30.7729 21.2473 30.7764 21.3525C30.7799 21.4577 30.7622 21.5626 30.7244 21.6607C30.6866 21.7589 30.6294 21.8483 30.5564 21.9237C30.4833 21.9991 30.3958 22.0589 30.2991 22.0995Z" fill="#A5B68D"/>
<path d="M101.164 30.9124H81.7725C81.7109 30.9128 81.6498 30.9016 81.5928 30.8796C81.5358 30.8576 81.4839 30.8251 81.4402 30.7841C81.3965 30.7431 81.3618 30.6942 81.3381 30.6405C81.3144 30.5867 81.3022 30.529 81.3022 30.4708C81.3022 30.4125 81.3144 30.3549 81.3381 30.3011C81.3618 30.2473 81.3965 30.1985 81.4402 30.1575C81.4839 30.1164 81.5358 30.0839 81.5928 30.0619C81.6498 30.0399 81.7109 30.0288 81.7725 30.0292H101.164C101.287 30.03 101.405 30.0768 101.492 30.1596C101.579 30.2423 101.628 30.3542 101.628 30.4708C101.628 30.5874 101.579 30.6992 101.492 30.782C101.405 30.8647 101.287 30.9116 101.164 30.9124Z" fill="#FB8F5B"/>
<path d="M125.902 30.9124H106.516C106.455 30.9128 106.394 30.9016 106.337 30.8796C106.28 30.8576 106.228 30.8251 106.184 30.7841C106.141 30.7431 106.106 30.6942 106.082 30.6405C106.059 30.5867 106.046 30.529 106.046 30.4708C106.046 30.4125 106.059 30.3549 106.082 30.3011C106.106 30.2473 106.141 30.1985 106.184 30.1575C106.228 30.1164 106.28 30.0839 106.337 30.0619C106.394 30.0399 106.455 30.0288 106.516 30.0292H125.902C125.963 30.0288 126.024 30.0399 126.082 30.0619C126.139 30.0839 126.19 30.1164 126.234 30.1575C126.278 30.1985 126.312 30.2473 126.336 30.3011C126.36 30.3549 126.372 30.4125 126.372 30.4708C126.372 30.529 126.36 30.5867 126.336 30.6405C126.312 30.6942 126.278 30.7431 126.234 30.7841C126.19 30.8251 126.139 30.8576 126.082 30.8796C126.024 30.9016 125.963 30.9128 125.902 30.9124Z" fill="#FB8F5B"/>
<path d="M150.646 30.9124H131.255C131.131 30.9116 131.013 30.8647 130.926 30.782C130.84 30.6992 130.791 30.5874 130.791 30.4708C130.791 30.3542 130.84 30.2423 130.926 30.1596C131.013 30.0768 131.131 30.03 131.255 30.0292H150.646C150.708 30.0288 150.769 30.0399 150.826 30.0619C150.883 30.0839 150.935 30.1164 150.978 30.1575C151.022 30.1985 151.057 30.2473 151.08 30.3011C151.104 30.3549 151.116 30.4125 151.116 30.4708C151.116 30.529 151.104 30.5867 151.08 30.6405C151.057 30.6942 151.022 30.7431 150.978 30.7841C150.935 30.8251 150.883 30.8576 150.826 30.8796C150.769 30.9016 150.708 30.9128 150.646 30.9124Z" fill="#FB8F5B"/>
<path d="M174.513 30.9124H155.115C154.992 30.9116 154.874 30.8647 154.787 30.782C154.7 30.6993 154.651 30.5874 154.651 30.4708C154.651 30.3542 154.7 30.2423 154.787 30.1596C154.874 30.0768 154.992 30.03 155.115 30.0292H174.513C174.636 30.03 174.754 30.0768 174.841 30.1596C174.928 30.2423 174.977 30.3542 174.977 30.4708C174.977 30.5874 174.928 30.6993 174.841 30.782C174.754 30.8647 174.636 30.9116 174.513 30.9124Z" fill="#FB8F5B"/>
<path d="M91.907 26.4964C93.8592 26.4964 95.4418 24.9146 95.4418 22.9635C95.4418 21.0124 93.8592 19.4307 91.907 19.4307C89.9547 19.4307 88.3721 21.0124 88.3721 22.9635C88.3721 24.9146 89.9547 26.4964 91.907 26.4964Z" fill="#A5B68D"/>
<path d="M116.651 26.4964C118.603 26.4964 120.186 24.9146 120.186 22.9635C120.186 21.0124 118.603 19.4307 116.651 19.4307C114.699 19.4307 113.116 21.0124 113.116 22.9635C113.116 24.9146 114.699 26.4964 116.651 26.4964Z" fill="#A5B68D"/>
<path d="M140.954 26.4964C143.15 26.4964 144.93 24.9146 144.93 22.9635C144.93 21.0124 143.15 19.4307 140.954 19.4307C138.757 19.4307 136.977 21.0124 136.977 22.9635C136.977 24.9146 138.757 26.4964 140.954 26.4964Z" fill="#A5B68D"/>
<path d="M165.256 26.4964C167.208 26.4964 168.791 24.9146 168.791 22.9635C168.791 21.0124 167.208 19.4307 165.256 19.4307C163.304 19.4307 161.721 21.0124 161.721 22.9635C161.721 24.9146 163.304 26.4964 165.256 26.4964Z" fill="#A5B68D"/>
</g>
<defs>
<clipPath id="clip0_1458_1864">
<rect width="190" height="121" fill="white"/>
</clipPath>
</defs>
</svg>
