<svg width="155" height="143" viewBox="0 0 155 143" fill="none" xmlns="http://www.w3.org/2000/svg">
<g clip-path="url(#clip0_1058_2345)">
<path d="M22.6995 132.253C52.965 146.582 102.036 146.583 132.301 132.253C162.567 117.924 162.567 94.6916 132.301 80.3628C102.035 66.0331 52.9646 66.0331 22.6991 80.3623C-7.56643 94.6911 -7.56643 117.924 22.6995 132.253Z" fill="#F2F3F1"/>
<path d="M125.061 120.264C129.002 122.13 135.393 122.13 139.334 120.264C143.276 118.398 143.276 115.373 139.334 113.506C135.393 111.641 129.002 111.641 125.061 113.506C121.12 115.373 121.12 118.398 125.061 120.264Z" fill="#E7E7E5"/>
<path d="M20.3799 117.571L23.9483 115.524C23.9483 115.524 26.8922 113.376 28.3498 109.385C29.4529 106.366 29.3007 104.069 28.5098 102.918C27.5368 101.501 25.0196 101.748 24.9196 104.735C24.7228 110.617 22.9952 114.686 20.3799 117.571Z" fill="#B4CBB4"/>
<path d="M20.3799 117.571C22.9952 114.686 24.7228 110.617 24.9196 104.735C24.9817 102.881 25.9753 102.083 26.9529 102.083C27.5498 102.083 28.1409 102.381 28.5098 102.918C28.9037 103.491 29.1393 104.349 29.1402 105.438C29.141 106.536 28.9035 107.87 28.3499 109.385C26.8922 113.376 23.9483 115.524 23.9483 115.524L20.3799 117.571Z" fill="#98AD93"/>
<path d="M20.3802 117.789C20.3104 117.789 20.2421 117.757 20.1994 117.695C20.1305 117.596 20.1553 117.46 20.255 117.392C28.5111 111.717 26.9117 103.81 26.8947 103.731C26.8692 103.614 26.9447 103.497 27.063 103.472C27.1825 103.446 27.2985 103.521 27.324 103.639C27.3419 103.721 29.0104 111.904 20.505 117.75C20.4669 117.777 20.4233 117.789 20.3802 117.789Z" fill="white"/>
<path d="M13.2435 121.664C13.2435 121.664 12.0012 120.659 12.3017 119.299C12.6023 117.939 13.4035 116.961 12.0263 115.206C10.6489 113.451 10.2929 111.113 11.9129 109.845C13.165 108.865 15.1191 110.254 15.825 107.657C16.3397 105.763 16.164 101.571 18.5959 100.176C21.0274 98.781 22.5375 100.881 22.1639 103.724C21.8301 106.268 21.3598 108.718 21.7223 109.385C22.4318 110.689 23.6512 110.514 23.5956 112.904C23.5439 115.129 21.4255 116.972 21.4255 116.972L13.2435 121.664Z" fill="#B4CBB4"/>
<path d="M17.3247 119.541C17.2151 119.541 17.1204 119.46 17.1068 119.349C16.4782 114.179 17.9764 105.253 19.2153 102.6C19.2661 102.49 19.3958 102.442 19.507 102.494C19.617 102.545 19.6648 102.674 19.6137 102.783C18.3964 105.391 16.942 114.355 17.543 119.297C17.5574 119.416 17.4716 119.525 17.3513 119.539L17.3247 119.541Z" fill="white"/>
<path d="M17.2059 115.517L17.1095 115.494C15.5856 114.754 14.6197 112.125 14.5792 112.013C14.5381 111.9 14.5974 111.776 14.7115 111.735C14.8257 111.694 14.9512 111.752 14.9927 111.866C15.0018 111.892 15.9385 114.44 17.3026 115.103C17.4115 115.155 17.4567 115.286 17.4035 115.394C17.3652 115.472 17.2871 115.517 17.2059 115.517Z" fill="white"/>
<path d="M17.1809 117.259C17.094 117.259 17.0116 117.207 16.9771 117.122C16.932 117.01 16.9867 116.883 17.0993 116.838C19.664 115.817 21.2629 112.781 21.2787 112.751C21.3344 112.644 21.4667 112.601 21.5745 112.657C21.6824 112.712 21.7246 112.844 21.669 112.951C21.6012 113.082 19.978 116.162 17.2628 117.243L17.1809 117.259Z" fill="white"/>
<path d="M106.841 93.7879C106.841 93.7879 104.921 90.7024 104.735 87.3432C104.55 83.9837 105.292 82.5896 106.31 82.1891C107.329 81.789 107.406 83.0216 107.932 83.7524C108.458 84.4832 109.522 84.0648 109.915 81.793C110.308 79.5215 111.75 75.6715 114.733 74.9368C118.027 74.1261 116.26 77.9648 115.433 79.4626C114.606 80.9605 113.961 83.0002 114.506 83.5556C115.052 84.1111 115.897 83.0849 116.708 84.036C117.687 85.1844 114.644 89.3132 112.897 90.3149L106.841 93.7879Z" fill="#B4CBB4"/>
<path d="M109.472 92.4886L109.461 92.4882C109.34 92.4821 109.247 92.3791 109.253 92.2591C109.737 83.3253 114.126 77.1376 114.171 77.076C114.242 76.9779 114.379 76.9556 114.477 77.0259C114.575 77.0957 114.598 77.2322 114.528 77.33C114.484 77.3906 110.168 83.481 109.692 92.2822C109.686 92.3983 109.589 92.4886 109.472 92.4886Z" fill="white"/>
<path d="M109.724 89.9131L109.617 89.886C108.387 89.2098 107.706 87.2032 107.677 87.1181C107.64 87.0038 107.701 86.8803 107.817 86.8423C107.932 86.8031 108.057 86.8668 108.095 86.9807C108.101 86.9999 108.75 88.9109 109.83 89.5043C109.936 89.5623 109.975 89.6949 109.916 89.8005C109.876 89.8725 109.801 89.9131 109.724 89.9131Z" fill="white"/>
<path d="M109.939 88.5906C109.841 88.5906 109.751 88.5252 109.726 88.4261C109.696 88.3088 109.767 88.1905 109.885 88.1613C113.055 87.3646 114.153 85.7141 114.164 85.6979C114.229 85.5967 114.366 85.5675 114.467 85.6316C114.569 85.6962 114.6 85.8306 114.535 85.9318C114.488 86.0055 113.347 87.7416 109.993 88.5837L109.939 88.5906Z" fill="white"/>
<path d="M59.0619 87.0042C59.0619 87.0042 54.8502 85.9841 54.631 78.1502C54.3942 69.6941 55.6632 59.8292 50.6955 59.0272C45.7282 58.2244 42.9409 64.2752 43.0047 71.3058C43.0606 77.4792 45.5631 90.8738 59.0615 93.4991L59.0619 87.0042Z" fill="#B4CBB4"/>
<path d="M59.0615 93.4991C45.5631 90.8738 43.0607 77.4792 43.0048 71.3058C43.0039 71.2286 43.0035 71.1509 43.0035 71.0737C43.0025 64.5631 45.4551 58.9553 49.8241 58.9553C50.1065 58.9553 50.3973 58.9788 50.6955 59.0273C54.273 59.6049 54.6161 64.8834 54.6165 70.9511C54.6165 72.3909 54.5972 73.8748 54.5972 75.3513C54.5972 76.292 54.6051 77.2296 54.631 78.1502C54.8502 85.9841 59.062 87.0042 59.062 87.0042L59.0615 93.4991Z" fill="#98AD93"/>
<path d="M59.062 92.6937L59.0225 92.6902C55.9847 92.1409 53.5132 90.4811 51.6746 87.7573C46.2176 79.6707 47.9372 64.5762 48.5016 61.9392C48.5266 61.8214 48.643 61.7468 48.762 61.7712C48.8806 61.7965 48.9562 61.9121 48.9311 62.0299C48.3729 64.6373 46.6682 79.5542 52.0396 87.5143C53.8092 90.1365 56.185 91.7333 59.1011 92.2608C59.2206 92.2827 59.2996 92.3965 59.2776 92.5148C59.2583 92.6199 59.1661 92.6937 59.062 92.6937Z" fill="white"/>
<path d="M59.0625 112.805C54.7075 113.392 47.6341 113.381 43.5598 110.189C39.4853 106.997 40.3329 104.246 41.9002 103.098C43.4676 101.95 44.8288 100.639 42.1325 98.0921C39.4363 95.5454 35.1023 91.4528 33.7009 85.3131C32.2992 79.1738 32.9895 75.3369 35.7474 74.0572C38.4238 72.8163 39.1284 74.788 40.7666 78.8549C42.4045 82.9226 46.0911 79.4356 49.2426 80.7052C52.3945 81.9745 52.2707 84.488 52.4696 86.6486C52.6682 88.8088 53.7091 89.4061 55.4933 89.4061C57.2779 89.4061 59.0612 90.4292 59.0616 92.4755L59.0625 112.805Z" fill="#B4CBB4"/>
<path d="M59.0624 105.677L59.0031 105.669C58.8147 105.617 54.3108 104.315 47.7562 98.3334C40.7734 91.9616 37.4763 82.4086 37.4438 82.313C37.405 82.1987 37.4669 82.0748 37.5818 82.0364C37.6971 81.9989 37.8215 82.0595 37.8601 82.1734C37.8922 82.2685 41.1555 91.7181 48.0531 98.0123C54.5203 103.913 59.0765 105.236 59.1217 105.249C59.2385 105.282 59.3062 105.402 59.2737 105.519C59.2464 105.614 59.1586 105.677 59.0624 105.677Z" fill="white"/>
<path d="M49.5798 99.8564C49.492 99.8564 49.409 99.8038 49.3751 99.7177C47.9657 96.1196 47.6463 88.4279 47.6336 88.1024C47.6288 87.982 47.7232 87.8807 47.8444 87.8755C47.9569 87.8768 48.0676 87.9645 48.0724 88.0854C48.0755 88.1639 48.4018 96.0297 49.7845 99.5594C49.8284 99.6715 49.7722 99.798 49.6593 99.8416L49.5798 99.8564Z" fill="white"/>
<path d="M49.5429 105.032C48.8604 105.032 48.3882 104.978 48.3311 104.971C48.2108 104.957 48.1247 104.849 48.1392 104.729C48.1532 104.61 48.2617 104.521 48.3829 104.539C48.4238 104.542 52.5104 105.001 54.3877 103.1C54.472 103.013 54.6117 103.013 54.6982 103.097C54.7847 103.181 54.786 103.319 54.7013 103.405C53.3274 104.796 50.974 105.032 49.5429 105.032Z" fill="white"/>
<path d="M63.3915 118.644L104.69 94.959C105.11 94.7177 105.11 94.3268 104.691 94.0855L100.87 91.8895C100.45 91.6483 99.769 91.6478 99.3486 91.8887L58.039 115.574C57.6187 115.815 57.6187 116.206 58.039 116.447L61.8695 118.644C62.2899 118.885 62.9711 118.885 63.3915 118.644Z" fill="#DADAD8"/>
<path d="M103.548 3.52144L66.3159 24.8744C65.2657 25.4769 64.4141 26.942 64.4141 28.1467V115.875C64.4141 117.08 65.2657 117.569 66.3159 116.966L103.549 95.6134C104.599 95.0109 105.45 93.5453 105.45 92.3411L105.45 4.61221C105.45 3.40756 104.599 2.9189 103.548 3.52144Z" fill="#223263"/>
<path d="M66.3159 24.8744L103.548 3.52145C104.488 2.98304 105.266 3.31813 105.421 4.25619C105.278 3.13183 104.497 1.88442 103.548 1.33991L102 0.452026C100.949 -0.150517 99.2459 -0.150517 98.1957 0.452026L60.9635 21.8049C60.4386 22.106 59.9629 22.6226 59.6185 23.2151L64.9714 26.2845C65.3153 25.6924 65.791 25.1759 66.3159 24.8744Z" fill="#131D35"/>
<path d="M59.0624 112.805C59.0624 114.01 59.9136 115.475 60.9643 116.078L62.513 116.966C63.4626 117.51 64.9415 117.558 65.9935 117.118C65.097 117.455 64.414 116.954 64.414 115.875V28.1467C64.414 27.5441 64.627 26.8766 64.9714 26.2845L59.6185 23.2151C59.2745 23.8071 59.0615 24.4747 59.0615 25.0768L59.0624 112.805Z" fill="#17272E"/>
<path d="M67.3397 36.5666L102.525 16.3873C103.155 16.0256 103.666 16.3188 103.666 17.0418L103.667 81.9579C103.667 82.6808 103.155 83.56 102.525 83.9213L67.3402 104.101C66.7099 104.462 66.1986 104.169 66.1986 103.446V38.53C66.1986 37.807 66.7094 36.9278 67.3397 36.5666Z" fill="white"/>
<path d="M84.9323 17.5261C84.5629 17.7381 84.2633 18.2534 84.2633 18.677C84.2633 19.1011 84.5629 19.2726 84.9323 19.0606C85.3021 18.849 85.6016 18.3337 85.6016 17.9096C85.6016 17.4859 85.3021 17.314 84.9323 17.5261Z" fill="#131D35"/>
<path d="M84.933 97.1279C83.4739 97.9647 82.2915 99.9996 82.2915 101.673C82.2915 103.347 83.4739 104.025 84.933 103.188C86.3917 102.352 87.5746 100.317 87.5746 98.6432C87.5746 96.9699 86.3917 96.2915 84.933 97.1279Z" fill="#131D35"/>
<path d="M78.613 24.2788C77.8738 24.7029 77.2751 25.7335 77.2751 26.5812C77.2751 27.429 77.8738 27.7723 78.6135 27.3487C79.3523 26.925 79.9509 25.894 79.9509 25.0463C79.9509 24.1985 79.3518 23.8552 78.613 24.2788Z" fill="#131D35"/>
<path d="M81.8849 23.9913C81.8849 24.5563 82.3105 24.7705 82.8358 24.469L91.6393 19.4205C92.1642 19.1195 92.5902 18.417 92.5902 17.852C92.5898 17.287 92.1642 17.0727 91.6389 17.3742L82.8358 22.4227C82.3105 22.7238 81.8849 23.4263 81.8849 23.9913Z" fill="#131D35"/>
<path d="M62.0232 39.3755C62.614 39.7145 63.0936 40.5391 63.0936 41.2176C63.0936 41.8956 62.614 42.1705 62.0232 41.831C61.4316 41.492 60.9524 40.6678 60.9524 39.9894C60.9524 39.3113 61.4316 39.0365 62.0232 39.3755Z" fill="#131D35"/>
<path d="M62.0232 47.5676C62.614 47.9071 63.0936 48.7317 63.0936 49.4097C63.0936 50.0877 62.614 50.3626 62.0232 50.0236C61.4316 49.6846 60.9524 48.86 60.9524 48.1819C60.9524 47.5035 61.4316 47.229 62.0232 47.5676Z" fill="#131D35"/>
<path d="M61.6925 39.5395C62.2837 39.8786 62.7629 40.7036 62.7629 41.3816C62.7629 42.0597 62.2837 42.3345 61.6925 41.9955C61.1008 41.6565 60.6221 40.8319 60.6221 40.1539C60.6221 39.4754 61.1013 39.2005 61.6925 39.5395Z" fill="#223263"/>
<path d="M61.6925 47.7321C62.2837 48.0711 62.7629 48.8957 62.7629 49.5742C62.7629 50.2522 62.2837 50.5271 61.6925 50.1881C61.1008 49.8486 60.6221 49.024 60.6221 48.346C60.6221 47.668 61.1013 47.3931 61.6925 47.7321Z" fill="#223263"/>
<path d="M110.803 19.0946C110.803 18.3716 110.293 18.0789 109.662 18.4401L105.45 20.8551L74.4768 38.619C73.8465 38.9807 73.3357 39.8594 73.3357 40.5823L73.3361 105.498C73.3361 106.221 73.847 106.514 74.4773 106.153L105.461 88.3825L109.662 85.9741C110.293 85.6124 110.804 84.7332 110.804 84.0107L110.803 19.0946Z" fill="white"/>
<path d="M110.803 19.0946H111.023C111.023 18.8027 110.95 18.5501 110.799 18.3616C110.65 18.1722 110.417 18.0649 110.172 18.0671C109.97 18.0671 109.761 18.1317 109.552 18.2508L105.341 20.6662L74.367 38.43C74.0077 38.6373 73.7029 38.9737 73.4798 39.3563C73.258 39.7394 73.117 40.17 73.1161 40.5823L73.1165 105.498C73.1165 105.79 73.189 106.043 73.3397 106.231C73.489 106.421 73.7222 106.528 73.9673 106.526C74.1689 106.525 74.378 106.461 74.5866 106.342L105.571 88.5714L109.772 86.163C110.131 85.9557 110.436 85.6194 110.659 85.2367C110.882 84.8536 111.022 84.423 111.023 84.0107L111.023 19.0946H110.803H110.584L110.584 84.0107C110.585 84.3209 110.47 84.6913 110.279 85.0186C110.089 85.3467 109.823 85.6307 109.552 85.7852L105.352 88.1936L74.3675 105.964C74.2098 106.054 74.0727 106.09 73.9673 106.09C73.8386 106.087 73.7556 106.046 73.6831 105.959C73.6115 105.872 73.5558 105.72 73.5558 105.498L73.5553 40.5823C73.5544 40.2721 73.6691 39.9017 73.8601 39.5745C74.0499 39.2464 74.3156 38.9623 74.5866 38.8079L105.56 21.044L109.772 18.6291C109.929 18.5383 110.066 18.503 110.172 18.5034C110.3 18.5056 110.383 18.5466 110.456 18.6334C110.528 18.7215 110.584 18.8734 110.584 19.0946H110.803Z" fill="#B4CBB4"/>
<path d="M73.9669 106.526C73.8206 106.526 73.6831 106.491 73.5606 106.421C73.2742 106.257 73.1165 105.929 73.1165 105.498L73.1161 40.5823C73.1161 39.7782 73.6656 38.8323 74.367 38.43L105.341 20.6662L105.56 21.044L74.5866 38.8079C74.0275 39.1285 73.5553 39.941 73.5553 40.5823L73.5558 105.498C73.5558 105.763 73.6375 105.961 73.7802 106.043C73.923 106.125 74.1369 106.096 74.3675 105.964L105.352 88.194L105.571 88.5714L74.5866 106.341C74.3723 106.465 74.1615 106.526 73.9669 106.526Z" fill="#B4CBB4"/>
<path d="M73.9669 106.526V106.308C73.8558 106.308 73.7587 106.283 73.67 106.232H73.6704C73.5672 106.173 73.4881 106.087 73.4293 105.966C73.3709 105.845 73.3362 105.687 73.3362 105.498L73.3357 40.5823C73.3348 40.2294 73.4596 39.8232 73.6686 39.4645C73.8768 39.105 74.1685 38.7948 74.4768 38.6189C74.1518 38.807 73.8755 39.1159 73.6713 39.4658C73.4684 39.8166 73.337 40.2089 73.3357 40.5823L73.3362 105.498C73.3362 105.653 73.3594 105.795 73.4113 105.922C73.4627 106.048 73.547 106.161 73.6704 106.232C73.7622 106.285 73.8654 106.307 73.9669 106.307C74.1382 106.306 74.3082 106.249 74.4768 106.153L74.4773 106.153L105.272 88.492L105.382 88.6805L105.571 88.5714L105.461 88.3825L74.4773 106.152L74.4768 106.153C74.2888 106.261 74.1145 106.309 73.9669 106.308V106.526V106.745C74.2089 106.745 74.4562 106.669 74.6969 106.53L105.872 88.6513L105.432 87.896L74.2577 105.775C74.1377 105.844 74.0319 105.872 73.9669 105.871L73.8896 105.855H73.89C73.8707 105.844 73.8426 105.817 73.8175 105.757C73.793 105.697 73.7749 105.608 73.7754 105.498L73.7749 40.5823C73.7736 40.3149 73.8786 39.9798 74.0517 39.684C74.223 39.3873 74.4623 39.1299 74.6964 38.9968L105.86 21.1243L105.421 20.3682L74.2572 38.2411C73.8637 38.4676 73.5303 38.8314 73.2883 39.2464C73.0476 39.6622 72.8974 40.1308 72.8965 40.5823L72.8969 105.498C72.8969 105.74 72.9408 105.962 73.0331 106.154C73.1244 106.345 73.2672 106.505 73.4504 106.61H73.4508C73.6076 106.701 73.7855 106.745 73.9669 106.745V106.526Z" fill="#B4CBB4"/>
<path d="M105.571 88.5714L105.352 88.194L109.552 85.7852C110.111 85.4641 110.584 84.6516 110.584 84.0107L110.584 19.0946C110.584 18.8302 110.502 18.6317 110.359 18.5497C110.217 18.4681 110.003 18.4964 109.772 18.6291L105.56 21.044L105.341 20.6662L109.552 18.2508C109.927 18.0361 110.292 18.0073 110.579 18.1718C110.865 18.3359 111.023 18.664 111.023 19.0946L111.023 84.0107C111.023 84.8148 110.474 85.7603 109.772 86.1626L105.571 88.5714Z" fill="#B4CBB4"/>
<path d="M105.571 88.5714L105.761 88.4624L105.652 88.2739L109.662 85.9741C109.987 85.7861 110.264 85.4767 110.468 85.1268C110.671 84.776 110.802 84.3842 110.804 84.0107L110.803 19.0946C110.803 18.9397 110.78 18.7975 110.728 18.671C110.676 18.5453 110.592 18.4319 110.469 18.3607C110.377 18.3079 110.274 18.2857 110.172 18.2857C110.001 18.2866 109.831 18.3437 109.662 18.4401C109.85 18.3319 110.025 18.2844 110.172 18.2844C110.283 18.2848 110.38 18.3101 110.469 18.3607C110.572 18.4201 110.651 18.506 110.71 18.6273C110.768 18.7482 110.803 18.9053 110.803 19.0946L110.804 84.0107C110.804 84.3633 110.68 84.7695 110.47 85.1281C110.262 85.4876 109.971 85.7978 109.662 85.9737L105.462 88.3825L105.571 88.5714L105.681 88.7604L109.882 86.3515C110.275 86.1251 110.609 85.7612 110.851 85.3463C111.092 84.9305 111.242 84.4619 111.243 84.0107L111.243 19.0946C111.242 18.8529 111.198 18.6308 111.106 18.4393C111.015 18.2477 110.872 18.0876 110.689 17.9829C110.531 17.8926 110.354 17.8476 110.172 17.8481C109.93 17.8481 109.682 17.9244 109.442 18.0619L105.041 20.5863L105.48 21.3425L109.881 18.818C110.001 18.7486 110.107 18.7216 110.172 18.722L110.249 18.7386C110.268 18.7495 110.296 18.7761 110.322 18.8363C110.346 18.8957 110.364 18.9847 110.364 19.0946L110.365 84.0107C110.365 84.2782 110.261 84.6128 110.088 84.9086C109.916 85.2058 109.677 85.4632 109.443 85.5963L105.052 88.1142L105.491 88.8694L105.681 88.7604L105.571 88.5714Z" fill="#B4CBB4"/>
<path d="M92.0692 34.1799C96.0109 31.9194 99.2058 33.7519 99.2058 38.2729C99.2058 42.794 96.0109 48.2915 92.0692 50.552C88.128 52.8125 84.9326 50.98 84.9326 46.459C84.9326 41.9379 88.128 36.4404 92.0692 34.1799Z" fill="#B4CBB4"/>
<path d="M92.0692 37.738C93.3478 37.0046 94.3848 37.5993 94.3848 39.0657C94.3848 40.5326 93.3478 42.3162 92.0692 43.0497C90.7906 43.7827 89.754 43.1884 89.754 41.7215C89.754 40.2547 90.7906 38.4715 92.0692 37.738Z" fill="#B4CBB4"/>
<path d="M96.5823 45.5589C96.5823 43.1491 94.879 42.1722 92.7786 43.3773L91.4649 44.1304C89.3645 45.335 87.6611 48.2653 87.6611 50.675V51.3234C88.8756 51.7239 90.4041 51.507 92.0692 50.552C93.7818 49.5698 95.3525 47.976 96.5823 46.1178V45.5589Z" fill="#B4CBB4"/>
<path d="M91.0353 43.3634C90.2754 43.3634 89.754 42.7621 89.754 41.7215C89.754 40.2547 90.7906 38.4715 92.0692 37.738C92.4408 37.5247 92.7922 37.4239 93.1036 37.4239C93.863 37.4239 94.3848 38.0256 94.3848 39.0657C94.3848 40.5326 93.3478 42.3162 92.0692 43.0497C91.6976 43.2626 91.3462 43.3634 91.0353 43.3634Z" fill="#9CDDD1"/>
<path d="M88.8949 51.5145C88.4566 51.5145 88.0433 51.4495 87.6611 51.3234V50.675C87.6611 48.2653 89.3645 45.335 91.4649 44.1304L92.7786 43.3773C93.3887 43.027 93.9658 42.8612 94.4771 42.8612C95.725 42.8612 96.5823 43.8494 96.5823 45.5589V46.1178C95.3525 47.976 93.7818 49.5698 92.0692 50.552C90.9281 51.2064 89.8507 51.5145 88.8949 51.5145Z" fill="#9CDDD1"/>
<path d="M78.2607 60.5221L87.4442 55.2554C87.8645 55.0141 88.2049 55.2096 88.2049 55.6917V55.9927C88.2049 56.4749 87.8645 57.0608 87.4442 57.3017L78.2607 62.5683C77.8408 62.8096 77.5 62.6142 77.5 62.132V61.831C77.5 61.3489 77.8408 60.7629 78.2607 60.5221Z" fill="#B4CBB4"/>
<path d="M77.9208 62.6718C77.6713 62.6718 77.5 62.4741 77.5 62.132V61.831C77.5 61.3489 77.8408 60.7629 78.2607 60.5221L87.4442 55.2554C87.5663 55.1851 87.6818 55.152 87.7841 55.152C88.0336 55.152 88.2049 55.3496 88.2049 55.6917V55.9927C88.2049 56.4749 87.8645 57.0608 87.4442 57.3017L78.2607 62.5683C78.1386 62.6386 78.0231 62.6718 77.9208 62.6718Z" fill="#F3A14B"/>
<path d="M77.8804 66.8795L105.666 50.9442C105.876 50.8238 106.046 50.9216 106.046 51.1624V54.3828C106.046 54.6236 105.876 54.9168 105.666 55.0372L77.8804 70.9725C77.6704 71.0929 77.5 70.9956 77.5 70.7548V67.534C77.5 67.2931 77.6704 67.0004 77.8804 66.8795Z" fill="#B4CBB4"/>
<path d="M77.7104 71.0244C77.5857 71.0244 77.5 70.9254 77.5 70.7548V67.5339C77.5 67.2931 77.6704 67.0003 77.8804 66.8795L105.666 50.9442C105.727 50.9093 105.785 50.8927 105.836 50.8927C105.961 50.8927 106.046 50.9913 106.046 51.1624V54.3828C106.046 54.6236 105.876 54.9168 105.666 55.0372L105.467 55.1515C104.947 54.4905 104.566 54.0533 104.221 54.0533C104.125 54.0533 104.032 54.0874 103.939 54.1594C103.613 54.4142 103.85 54.9661 104.384 55.7728L77.8804 70.9725C77.8193 71.0078 77.7618 71.0244 77.7104 71.0244Z" fill="#98AD93"/>
<path d="M78.2607 74.8474L87.4442 69.5807C87.8645 69.3394 88.2049 69.5349 88.2049 70.017V70.3181C88.2049 70.7997 87.8645 71.3861 87.4442 71.627L78.2607 76.8937C77.8408 77.1349 77.5 76.9395 77.5 76.4573V76.1563C77.5 75.6742 77.8408 75.0886 78.2607 74.8474Z" fill="#B4CBB4"/>
<path d="M77.9208 76.997C77.6713 76.997 77.5 76.7994 77.5 76.4573V76.1563C77.5 75.6742 77.8408 75.0886 78.2607 74.8473L87.4442 69.5807C87.5663 69.5104 87.6818 69.4773 87.7841 69.4773C88.0336 69.4773 88.2049 69.6749 88.2049 70.017V70.318C88.2049 70.7997 87.8645 71.3861 87.4442 71.627L78.2607 76.8936C78.1386 76.9639 78.0231 76.997 77.9208 76.997Z" fill="#F3A14B"/>
<path d="M77.8804 81.2048L105.666 65.2695C105.876 65.1491 106.046 65.2464 106.046 65.4877V68.708C106.046 68.9489 105.876 69.2421 105.666 69.3625L77.8804 85.2978C77.6704 85.4182 77.5 85.3209 77.5 85.0796V81.8592C77.5 81.6184 77.6704 81.3252 77.8804 81.2048Z" fill="#B4CBB4"/>
<path d="M77.7104 85.3493C77.5857 85.3493 77.5 85.2507 77.5 85.0797V81.8593C77.5 81.6184 77.6704 81.3252 77.8804 81.2048L105.666 65.2695C105.727 65.2346 105.785 65.218 105.836 65.218C105.961 65.218 106.046 65.3166 106.046 65.4877V68.7081C106.046 68.9489 105.876 69.2421 105.666 69.3625L77.8804 85.2978C77.8193 85.3327 77.7618 85.3493 77.7104 85.3493Z" fill="#98AD93"/>
<path d="M88.9661 83.0334L99.9337 76.7436C100.354 76.5023 100.694 76.6977 100.694 77.1799V80.5503C100.694 81.0325 100.354 81.6184 99.9337 81.8593L88.9661 88.1495C88.5458 88.3904 88.205 88.1953 88.205 87.7132V84.3423C88.205 83.8602 88.5458 83.2742 88.9661 83.0334Z" fill="#B4CBB4"/>
<path d="M88.6262 88.2525C88.3767 88.2525 88.205 88.0553 88.205 87.7132V84.3423C88.205 83.8602 88.5458 83.2742 88.9661 83.0334L99.9337 76.7436C100.056 76.6733 100.171 76.6402 100.273 76.6402C100.523 76.6402 100.694 76.8378 100.694 77.1799V80.5504C100.694 81.0325 100.354 81.6184 99.9337 81.8593L88.9661 88.1495C88.844 88.2193 88.7285 88.2525 88.6262 88.2525Z" fill="#F3A14B"/>
<path d="M114.968 68.8185C114.968 68.8185 109.572 61.4248 109.243 60.5447C108.994 59.8816 109.26 58.8951 109.321 58.4365C109.383 57.9784 109.472 56.9574 109.549 56.6734C109.683 56.1777 109.036 56.2794 108.673 56.7301C108.302 57.1917 108.183 58.0927 107.998 58.241C107.813 58.3894 106.371 56.3086 105.619 55.3457C104.867 54.3828 104.397 53.8025 103.939 54.1594C103.61 54.4168 103.855 54.9774 104.4 55.7977C104.946 56.6175 105.187 56.9976 105.269 57.1734C105.352 57.3497 104.903 57.3636 104.661 57.7336C104.472 58.0224 104.648 58.4902 104.398 58.7127C104.148 58.9361 103.914 59.337 104.189 59.7886C104.539 60.3645 105.24 61.187 106.046 61.7424C106.853 62.2978 107.181 62.4929 107.656 63.2481C108.132 64.0034 112.432 71.7142 112.72 72.1767C113.008 72.6392 113.569 73.5821 114.417 73.6087C115.265 73.6357 122.204 67.7011 122.561 67.4053C123.705 66.458 124.065 66.3188 124.263 67.1723C124.325 67.4393 124.365 67.7438 124.408 68.0876C124.545 69.1679 125.286 73.0345 125.286 73.0345C125.286 73.0345 128.795 74.7239 131.685 73.891C134.575 73.0585 135.544 71.8595 135.544 71.8595L134.098 69.5192C134.492 68.5532 136.309 64.6465 136.88 61.9086L127.832 60.4575C127.646 60.4173 127.35 60.3436 126.971 60.2446C126.474 60.1145 125.225 59.6787 124.262 60.5107C121.148 63.201 114.968 68.8185 114.968 68.8185Z" fill="#FFD18E"/>
<path d="M132.906 114.167L131.284 116.406C131.284 116.406 132.035 116.844 133.64 116.904C135.091 116.959 135.491 116.486 135.544 116.373C135.789 115.85 135.407 114.908 135.302 114.099L132.906 114.167Z" fill="#131D35"/>
<path d="M131.375 115.332C131.375 115.332 129.41 115.207 128.051 115.037C126.691 114.867 125.616 115.526 125.936 116.082C126.255 116.637 127.003 117.1 128.168 117.489C129.166 117.822 130.362 118.065 131.404 118.375C132.471 118.692 133.155 119.055 133.76 118.849C134.434 118.618 134.724 118.35 134.666 117.862C134.609 117.375 134.12 115.804 134.12 115.804L131.375 115.332Z" fill="#131D35"/>
<path d="M135.544 111.918C135.544 111.918 135.298 113.951 135.279 114.388C135.26 114.825 133.281 114.965 132.906 114.167L132.845 111.681L135.544 111.918Z" fill="#FFD18E"/>
<path d="M133.548 113.169L134.256 116.254C134.256 116.254 134.323 116.631 132.705 116.87C131.087 117.11 128.55 116.03 128.118 115.81C127.686 115.59 127.635 115.154 129.224 115.241C130.812 115.329 131.376 115.332 131.376 115.332L130.86 113.964L133.548 113.169Z" fill="#FFD18E"/>
<path d="M136.88 61.9086L137.998 61.6019C137.998 61.6019 140.342 68.9611 140.6 69.6697C140.859 70.3787 141.151 71.1344 140.648 72.0113C140.047 73.055 136.88 77.2571 136.88 77.2571L134.87 75.3029L137.15 71.1518L135.133 67.0915L136.88 61.9086Z" fill="#FFD18E"/>
<path d="M125.364 52.343C125.364 52.343 124.467 50.9172 125.412 49.1711C126.525 47.1139 129.014 46.1103 131.976 46.4952C133.344 46.6732 134.959 47.7888 135.844 49.4926C136.818 51.3635 136.909 55.1345 137.15 56.5604L125.364 52.343Z" fill="#131D35"/>
<path d="M125.297 53.148C125.297 53.148 124.593 54.4792 124.715 54.6001C124.837 54.7209 125.306 54.8191 125.306 54.8191L125.297 53.148Z" fill="#FFD18E"/>
<path d="M127.432 48.9407C126.667 49.4363 125.35 50.3426 125.292 53.333C125.233 56.4029 125.669 57.3924 126.126 57.748C126.434 57.988 128.238 57.8667 129.013 57.6856C129.787 57.505 132.015 56.412 132.817 54.7501C133.759 52.7946 133.569 49.9316 132.165 49.1008C130.191 47.9306 128.08 48.5214 127.432 48.9407Z" fill="#FFD18E"/>
<path d="M135.544 71.8595C136.898 73.9534 138.186 75.7976 138.46 78.1506C139.041 83.1202 137.137 88.8014 136.734 92.476C136.734 92.476 138.012 94.1265 138.011 96.0663C138.01 97.5847 135.544 111.918 135.544 111.918C135.544 111.918 133.751 112.461 132.845 111.681L131.15 85.3131L132.043 82.1032L135.544 71.8595Z" fill="#B4CBB4"/>
<path d="M134.25 112.102C133.951 112.102 133.637 112.067 133.351 111.966C133.17 110.869 132.882 109.141 132.562 107.282L131.15 85.314L131.858 96.3246L131.976 86.8816L133.342 82.755C135.964 81.8492 136.88 80.1974 136.88 80.1974C134.517 81.5089 132.043 82.1032 132.043 82.1032C135.919 80.9583 137.186 79.3138 137.633 76.9744C137.667 76.7933 137.683 76.6118 137.683 76.4299C137.684 75.7505 137.462 75.0721 137.152 74.4337C137.805 75.6004 138.302 76.7907 138.46 78.1507C138.536 78.8012 138.57 79.4635 138.57 80.1319C138.568 84.5727 137.084 89.2822 136.734 92.476C136.734 92.476 138.012 94.1265 138.011 96.0663C138.01 97.5847 135.544 111.918 135.544 111.918C135.544 111.918 134.937 112.102 134.25 112.102ZM135.781 72.2252C135.694 72.096 135.614 71.9738 135.544 71.8595C135.623 71.9821 135.702 72.1039 135.781 72.2252Z" fill="#B4CBB4"/>
<path d="M131.15 85.3131L132.043 82.1032C132.043 82.1032 134.517 81.5089 136.88 80.1974C136.88 80.1974 135.964 81.8492 133.342 82.755L131.976 86.8816L131.858 96.3246L131.15 85.3131Z" fill="#B4CBB4"/>
<path d="M131.858 96.3246L131.15 85.3139L132.043 82.1032C132.043 82.1032 134.517 81.5089 136.88 80.1974C136.88 80.1974 135.964 81.8492 133.342 82.755L131.976 86.8816L131.858 96.3246Z" fill="#98AD93"/>
<path d="M135.544 71.8595C136.269 73.0345 138 75.0437 137.633 76.9744C137.186 79.3138 135.919 80.9583 132.043 82.1032L128.407 95.1815C128.407 95.1815 130.3 96.9416 130.879 98.6152C131.457 100.289 133.548 113.169 133.548 113.169C133.548 113.169 132.902 114.218 130.86 113.964C130.86 113.964 123.74 97.8098 123.237 96.7697C122.734 95.7295 122.408 94.952 122.634 93.2578C122.861 91.5641 125.286 73.0345 125.286 73.0345L135.544 71.8595Z" fill="#B4CBB4"/>
<path d="M131.473 114.003C131.285 114.003 131.08 113.991 130.86 113.964C130.86 113.964 123.74 97.8098 123.237 96.7697C122.845 95.959 122.561 95.308 122.561 94.2583C122.561 93.9611 122.584 93.6317 122.634 93.2578C122.861 91.5641 125.286 73.0345 125.286 73.0345C125.286 73.0345 127.545 74.1218 129.93 74.1218C130.519 74.1218 131.114 74.0559 131.685 73.891C134.575 73.0585 135.544 71.8595 135.544 71.8595C136.2 72.9241 137.685 74.6741 137.683 76.4298C137.683 76.6118 137.667 76.7933 137.633 76.9744C137.186 79.3138 135.919 80.9583 132.043 82.1032L131.15 85.3139L128.407 95.1815C128.407 95.1815 130.3 96.9416 130.879 98.6152C131.457 100.289 133.548 113.169 133.548 113.169C133.548 113.169 133.034 114.003 131.473 114.003Z" fill="#B4CBB4"/>
<path d="M136.88 61.9086L127.832 60.4575C127.646 60.4173 127.348 60.3427 126.97 60.2441L126.969 60.2437C126.969 60.2437 126.583 65.879 124.263 67.1723H124.262C124.317 67.441 124.365 67.7434 124.408 68.0876C124.546 69.1679 125.286 73.0345 125.286 73.0345C125.286 73.0345 128.796 74.7239 131.685 73.891C134.575 73.0585 135.544 71.8595 135.544 71.8595L134.098 69.5192C134.492 68.5532 136.309 64.6465 136.88 61.9086Z" fill="#B4CBB4"/>
<path d="M129.93 74.1218C127.545 74.1218 125.286 73.0345 125.286 73.0345C125.286 73.0345 124.546 69.1679 124.408 68.0876C124.365 67.7434 124.317 67.441 124.262 67.1723H124.263C126.583 65.879 126.969 60.2437 126.969 60.2437L126.97 60.2441C127.348 60.3427 127.646 60.4173 127.832 60.4575L136.88 61.9086C136.546 63.5103 135.785 65.5125 135.133 67.0915C134.67 68.2115 134.262 69.1182 134.098 69.5192L135.544 71.8595C135.544 71.8595 134.575 73.0585 131.685 73.891C131.114 74.0559 130.519 74.1218 129.93 74.1218Z" fill="#F3A14B"/>
<path d="M134.493 68.599C134.456 68.6836 131.584 70.212 130.731 70.4459C132.076 70.38 133.194 70.0658 134.098 69.5191L134.493 68.599Z" fill="#E47A0C"/>
<path d="M127.206 49.0916C127.206 49.0916 126.785 51.929 127.806 53.593C127.806 53.593 128.19 52.4634 129.156 52.6794C130.128 52.8967 130.169 54.1511 129.493 54.8623C128.818 55.5734 128.066 55.3165 128.066 55.3165C128.066 55.3165 127.915 57.3671 127.833 59.0862C127.754 60.7433 127.289 64.5527 129.237 66.0841C131.185 67.616 136.066 68.133 138.354 64.9558C139.628 63.1883 137.936 60.0639 137.15 56.5604C136.427 53.3391 136.02 48.5655 132.579 47.7997C129.139 47.034 127.206 49.0916 127.206 49.0916Z" fill="#131D35"/>
<path d="M131.94 6.02296L131.214 6.4392C131.272 6.17393 131.313 5.91084 131.313 5.65734C131.313 4.19745 130.282 3.60626 129.009 4.3362C128.639 4.54824 128.294 4.85496 127.984 5.21055L127.985 5.20008C127.985 3.23495 126.596 2.43826 124.883 3.42083C123.17 4.40339 121.781 6.79261 121.781 8.75774C121.781 8.85809 121.787 8.95277 121.794 9.04658C121.432 8.98244 120.999 9.07101 120.534 9.33759C119.261 10.0675 118.23 11.842 118.23 13.3019C118.23 13.503 118.251 13.6854 118.288 13.8525L117.902 14.0737C116.851 14.6763 116 15.8517 116 16.6994C116 17.5472 116.851 17.7457 117.902 17.1436L131.94 9.09283C132.99 8.49029 133.842 7.31487 133.842 6.46712C133.842 5.61937 132.99 5.42042 131.94 6.02296Z" fill="#E7E7E5"/>
<path d="M133.94 8.02296L133.214 8.4392C133.272 8.17393 133.313 7.91084 133.313 7.65734C133.313 6.19745 132.282 5.60626 131.009 6.3362C130.639 6.54824 130.294 6.85496 129.984 7.21055L129.985 7.20008C129.985 5.23495 128.596 4.43826 126.883 5.42083C125.17 6.40339 123.781 8.79261 123.781 10.7577C123.781 10.8581 123.787 10.9528 123.794 11.0466C123.432 10.9824 122.999 11.071 122.534 11.3376C121.261 12.0675 120.23 13.842 120.23 15.3019C120.23 15.503 120.251 15.6854 120.288 15.8525L119.902 16.0737C118.851 16.6763 118 17.8517 118 18.6994C118 19.5472 118.851 19.7457 119.902 19.1436L133.94 11.0928C134.99 10.4903 135.842 9.31487 135.842 8.46712C135.842 7.61937 134.99 7.42042 133.94 8.02296Z" fill="#FCFDFD"/>
<path d="M38.1219 33.3806L37.0238 33.9838C37.1115 33.5994 37.174 33.2181 37.174 32.8508C37.174 30.7352 35.6126 29.8785 33.687 30.9363C33.1267 31.2436 32.6055 31.688 32.1363 32.2033L32.1369 32.1881C32.1369 29.3405 30.0358 28.186 27.4428 29.6098C24.8505 31.0337 22.7487 34.4959 22.7487 37.3436C22.7487 37.489 22.7574 37.6262 22.7687 37.7621C22.2203 37.6692 21.5656 37.7975 20.8617 38.1838C18.9354 39.2416 17.3747 41.813 17.3747 43.9285C17.3747 44.22 17.4072 44.4843 17.4631 44.7264L16.8781 45.047C15.2882 45.9201 14 47.6234 14 48.8519C14 50.0804 15.2882 50.3681 16.8781 49.4955L38.1219 37.8292C39.7111 36.956 41 35.2527 41 34.0242C41 32.7957 39.7111 32.5074 38.1219 33.3806Z" fill="#E7E7E5"/>
<path d="M42.1219 34.3806L41.0238 34.9838C41.1115 34.5994 41.174 34.2181 41.174 33.8508C41.174 31.7352 39.6126 30.8785 37.687 31.9363C37.1267 32.2436 36.6055 32.688 36.1363 33.2033L36.1369 33.1881C36.1369 30.3405 34.0358 29.186 31.4428 30.6098C28.8505 32.0337 26.7487 35.4959 26.7487 38.3436C26.7487 38.489 26.7574 38.6262 26.7687 38.7621C26.2203 38.6692 25.5656 38.7975 24.8617 39.1838C22.9354 40.2416 21.3747 42.813 21.3747 44.9285C21.3747 45.22 21.4072 45.4843 21.4631 45.7264L20.8781 46.047C19.2882 46.9201 18 48.6234 18 49.8519C18 51.0804 19.2882 51.3681 20.8781 50.4955L42.1219 38.8292C43.7111 37.956 45 36.2527 45 35.0242C45 33.7957 43.7111 33.5074 42.1219 34.3806Z" fill="#FCFDFD"/>
</g>
<defs>
<clipPath id="clip0_1058_2345">
<rect width="155" height="143" fill="white"/>
</clipPath>
</defs>
</svg>
