<svg width="668" height="734" viewBox="0 0 668 734" fill="none" xmlns="http://www.w3.org/2000/svg">
<g clip-path="url(#clip0_842_1641)">
<g filter="url(#filter0_d_842_1641)">
<path d="M267.491 21.8221H267.413C296.504 -2.24454 340.792 -3.69652 372.33 16.7181L372.353 16.7328L372.375 16.7469C401.371 34.6419 418.604 70.1956 416.873 105.046L416.87 105.095L416.87 105.144C416.217 168.391 416.772 231.723 417.326 295.029C417.75 343.444 418.174 391.843 418.057 440.177C396.685 404.429 374.896 368.991 353.117 333.567C317.561 275.736 282.028 217.944 248.369 158.905L248.308 158.798L248.236 158.698C220.139 119.075 226.353 58.2844 262.56 26.193L267.491 21.8221Z" fill="#ED9367" stroke="black" stroke-width="5"/>
<path d="M12.8667 440.303C70.9387 341.55 129.688 243.24 189.963 145.957C189.492 199.272 189.612 252.594 189.731 305.895L189.744 311.696C189.874 369.913 189.978 428.106 189.288 486.274L189.288 486.3L189.288 486.327C189.678 527.104 162.295 565.98 125.083 578.536L125.047 578.548L125.01 578.562C95.7897 589.444 61.554 582.765 37.4632 562.612L37.4449 562.596L37.4263 562.582C2.74014 534.671 -7.42616 480.527 12.8667 440.303Z" fill="#FBC55F" stroke="black" stroke-width="5"/>
<path d="M573.151 164.872L573.216 164.874L573.281 164.873C614.295 164.216 652.632 196.459 662.449 237.796L662.449 237.797C668.537 263.367 665.7 291.755 652.008 313.961L651.991 313.989L651.975 314.017C595.56 411.127 538.405 507.868 478.795 602.823C478.875 570.331 479.111 537.84 479.346 505.347C479.841 437.088 480.336 368.82 479.39 300.52C479.619 294.488 479.53 288.419 479.394 282.393C479.369 281.283 479.343 280.175 479.316 279.07C479.198 274.129 479.08 269.226 479.107 264.337C479.173 252.382 480.107 240.746 483.922 229.599C497.191 191.691 534.166 163.463 573.151 164.872Z" fill="#AACCFF" stroke="black" stroke-width="5"/>
<path d="M416.762 695.722L416.734 695.756L416.708 695.792C389.885 732.009 336.634 742.311 298.735 719.126L298.686 719.096L298.635 719.068C267.506 701.961 251.056 664.107 251.93 628.221L251.93 628.211L251.93 628.2C253.694 516.885 253.309 405.444 252.385 294.146C276.016 334.401 300.075 374.365 324.127 414.319C359.617 473.271 395.093 532.202 429.168 592.018C443.803 625.398 439.398 667.32 416.762 695.722Z" fill="#A5B68D" stroke="black" stroke-width="5"/>
</g>
</g>
<defs>
<filter id="filter0_d_842_1641" x="-10.0024" y="-0.00012207" width="677.993" height="749" filterUnits="userSpaceOnUse" color-interpolation-filters="sRGB">
<feFlood flood-opacity="0" result="BackgroundImageFix"/>
<feColorMatrix in="SourceAlpha" type="matrix" values="0 0 0 0 0 0 0 0 0 0 0 0 0 0 0 0 0 0 127 0" result="hardAlpha"/>
<feOffset dx="-10" dy="15"/>
<feComposite in2="hardAlpha" operator="out"/>
<feColorMatrix type="matrix" values="0 0 0 0 0 0 0 0 0 0 0 0 0 0 0 0 0 0 1 0"/>
<feBlend mode="normal" in2="BackgroundImageFix" result="effect1_dropShadow_842_1641"/>
<feBlend mode="normal" in="SourceGraphic" in2="effect1_dropShadow_842_1641" result="shape"/>
</filter>
<clipPath id="clip0_842_1641">
<rect width="668" height="734" fill="white"/>
</clipPath>
</defs>
</svg>
