<svg width="178" height="177" viewBox="0 0 178 177" fill="none" xmlns="http://www.w3.org/2000/svg">
<g clip-path="url(#clip0_1458_1807)">
<path d="M88.6024 15.09C88.3716 15.1328 88.1537 15.2273 87.965 15.3664C87.7623 15.5157 87.5872 15.6988 87.4474 15.9078C87.2955 16.1321 87.1779 16.3777 87.0985 16.6365C87.0136 16.9085 86.9699 17.1916 86.969 17.4764V134.348C86.9714 134.914 87.137 135.468 87.4462 135.943C87.5864 136.16 87.7613 136.353 87.9641 136.513C88.1513 136.662 88.3689 136.769 88.6017 136.825L175.544 156.811C175.893 156.895 176.255 156.904 176.607 156.84C176.924 156.781 177.223 156.648 177.479 156.453C177.732 156.258 177.935 156.006 178.07 155.717C178.217 155.397 178.291 155.05 178.287 154.699V2.30992C178.29 1.95489 178.216 1.60345 178.07 1.27954C177.934 0.9817 177.732 0.718435 177.479 0.509569C177.225 0.300763 176.927 0.151389 176.607 0.0724415C176.259 -0.0118175 175.897 -0.0224561 175.545 0.0412161L88.6024 15.09Z" fill="#090814"/>
<path d="M90.6101 18.0547C90.3748 18.1006 90.1529 18.1987 89.9611 18.342C89.7555 18.4947 89.5781 18.682 89.4369 18.8952C89.2845 19.1236 89.1672 19.3733 89.0889 19.6362C89.0058 19.9125 88.965 20.1998 88.9679 20.4883V132.391C88.9642 132.965 89.1276 133.528 89.4382 134.012C89.5797 134.234 89.7567 134.431 89.9624 134.597C90.1526 134.75 90.374 134.862 90.6113 134.923L171.968 152.992C172.313 153.066 172.67 153.066 173.016 152.992C173.329 152.925 173.621 152.784 173.869 152.581C174.116 152.379 174.312 152.121 174.439 151.828C174.579 151.505 174.647 151.155 174.638 150.803V7.20547C174.646 6.84951 174.578 6.49593 174.439 6.16791C174.311 5.86675 174.117 5.59812 173.87 5.38193C173.624 5.16573 173.332 5.00751 173.016 4.91897C172.675 4.8245 172.318 4.80321 171.968 4.85652L90.6101 18.0547Z" fill="white"/>
<path d="M100.997 33.2952C100.888 33.3081 100.782 33.346 100.69 33.4058C100.592 33.4687 100.507 33.5489 100.439 33.6424C100.365 33.7424 100.308 33.8534 100.27 33.9712C100.229 34.096 100.208 34.2264 100.207 34.3578V38.8377C100.207 38.9652 100.228 39.0919 100.27 39.2124C100.307 39.3202 100.364 39.4201 100.439 39.5069C100.507 39.5871 100.593 39.6511 100.689 39.6942C100.786 39.7364 100.892 39.7536 100.997 39.7442L155.798 34.9292C155.947 34.9152 156.091 34.8713 156.223 34.8002C156.355 34.7294 156.472 34.6355 156.571 34.5229C156.671 34.4087 156.75 34.2779 156.806 34.1364C156.862 33.9915 156.892 33.8374 156.893 33.6818V28.3907C156.893 28.2407 156.864 28.0921 156.806 27.9535C156.753 27.8248 156.672 27.7087 156.571 27.6126C156.472 27.5186 156.353 27.4472 156.223 27.4034C156.087 27.3574 155.941 27.3418 155.798 27.3578L100.997 33.2952Z" fill="#A5B68D"/>
<path d="M100.702 48.1786C100.675 48.1803 100.648 48.1885 100.624 48.2026C100.6 48.2171 100.579 48.2362 100.562 48.2588C100.543 48.283 100.529 48.3102 100.519 48.339C100.509 48.37 100.504 48.4023 100.504 48.4349V50.1856C100.504 50.2175 100.509 50.2491 100.519 50.2793C100.528 50.3067 100.543 50.3322 100.561 50.3545C100.578 50.3752 100.6 50.3919 100.624 50.4035C100.648 50.4151 100.675 50.4204 100.702 50.4188L156.481 47.4076C156.518 47.4056 156.555 47.3959 156.588 47.3792C156.621 47.3626 156.65 47.3401 156.675 47.3127C156.726 47.2556 156.755 47.1816 156.755 47.1048V45.0409C156.755 45.0029 156.748 44.9652 156.733 44.9301C156.72 44.8972 156.7 44.8674 156.675 44.8423C156.649 44.8172 156.619 44.7976 156.586 44.7851C156.552 44.7726 156.517 44.7673 156.481 44.7696L100.702 48.1786Z" fill="#CCCCCC"/>
<path d="M100.702 53.8721C100.675 53.8733 100.648 53.8811 100.625 53.8949C100.6 53.909 100.579 53.9278 100.562 53.9502C100.543 53.974 100.529 54.0009 100.519 54.0295C100.509 54.0603 100.504 54.0925 100.504 54.125V55.8751C100.504 55.9069 100.509 55.9386 100.519 55.9688C100.529 55.9969 100.543 56.0232 100.562 56.0462C100.579 56.0671 100.6 56.0841 100.625 56.0962C100.649 56.1081 100.675 56.1137 100.702 56.1127L156.482 54.111C156.519 54.1098 156.555 54.1009 156.588 54.085C156.621 54.0691 156.651 54.047 156.675 54.0201C156.727 53.9637 156.755 53.8903 156.755 53.814V51.7505C156.756 51.7124 156.748 51.6746 156.734 51.6393C156.72 51.6061 156.7 51.5759 156.675 51.5503C156.651 51.5253 156.621 51.5055 156.588 51.4922C156.555 51.4787 156.518 51.4725 156.482 51.4741L100.702 53.8721Z" fill="#CCCCCC"/>
<path d="M100.702 59.5662C100.675 59.5668 100.648 59.5741 100.625 59.5874C100.6 59.6011 100.579 59.6194 100.562 59.6414C100.543 59.665 100.529 59.6917 100.519 59.7201C100.509 59.7508 100.504 59.783 100.504 59.8153V61.566C100.504 61.5979 100.51 61.6295 100.52 61.6597C100.529 61.6878 100.543 61.714 100.562 61.7371C100.579 61.7585 100.6 61.776 100.625 61.7886C100.649 61.801 100.675 61.8073 100.702 61.8068L156.481 60.8167C156.518 60.8156 156.554 60.8067 156.587 60.7907C156.62 60.7756 156.65 60.7544 156.674 60.7283C156.7 60.701 156.719 60.6692 156.733 60.6346C156.747 60.5988 156.754 60.5607 156.754 60.5222V58.459C156.754 58.4208 156.747 58.3829 156.733 58.3475C156.719 58.3141 156.699 58.2835 156.674 58.2576C156.65 58.2317 156.62 58.2109 156.587 58.1967C156.554 58.1829 156.517 58.1764 156.481 58.1776L100.702 59.5662Z" fill="#CCCCCC"/>
<path d="M100.602 70.9384C100.575 70.938 100.548 70.9443 100.524 70.9568C100.5 70.9695 100.479 70.987 100.462 71.0083C100.443 71.0315 100.429 71.0577 100.42 71.0857C100.41 71.1159 100.405 71.1476 100.405 71.1794V72.9279C100.405 72.9603 100.41 72.9925 100.42 73.0232C100.43 73.0512 100.444 73.0774 100.463 73.1006C100.48 73.1225 100.501 73.1408 100.525 73.1543C100.55 73.168 100.577 73.1755 100.604 73.1762L156.346 74.2065C156.382 74.2072 156.419 74.2002 156.452 74.1859C156.485 74.1719 156.514 74.1515 156.539 74.126C156.564 74.0998 156.584 74.0691 156.598 74.0354C156.612 74 156.619 73.9621 156.619 73.924V71.8613C156.619 71.8228 156.612 71.7847 156.598 71.7489C156.584 71.7143 156.564 71.6825 156.539 71.6553C156.514 71.629 156.485 71.6078 156.452 71.5928C156.419 71.5775 156.383 71.5693 156.346 71.5688L100.602 70.9384Z" fill="#CCCCCC"/>
<path d="M100.602 76.6307C100.575 76.6298 100.549 76.6356 100.525 76.6476C100.5 76.6601 100.479 76.6777 100.462 76.6991C100.443 76.7222 100.429 76.7484 100.42 76.7765C100.409 76.8067 100.405 76.8384 100.405 76.8702V78.6187C100.405 78.6512 100.41 78.6835 100.42 78.7143C100.43 78.7428 100.444 78.7695 100.463 78.7933C100.48 78.8154 100.501 78.834 100.525 78.8479C100.549 78.8614 100.576 78.8691 100.603 78.8701L156.345 80.909C156.381 80.9103 156.417 80.9039 156.451 80.8902C156.484 80.8768 156.513 80.857 156.538 80.8318C156.563 80.8062 156.583 80.7758 156.597 80.7425C156.611 80.7071 156.618 80.6693 156.618 80.6311V78.5678C156.618 78.5293 156.611 78.491 156.597 78.4551C156.583 78.4206 156.563 78.3888 156.538 78.3614C156.513 78.3347 156.484 78.3128 156.451 78.2971C156.418 78.2812 156.382 78.2724 156.345 78.2712L100.602 76.6307Z" fill="#CCCCCC"/>
<path d="M100.602 82.3225C100.576 82.3215 100.549 82.3272 100.525 82.339C100.501 82.3506 100.48 82.3672 100.463 82.3877C100.444 82.4102 100.43 82.4358 100.42 82.4633C100.41 82.4935 100.405 82.5251 100.405 82.557V84.3055C100.405 84.3381 100.41 84.3705 100.42 84.4014C100.43 84.4302 100.444 84.4572 100.463 84.4813C100.48 84.5037 100.501 84.5225 100.525 84.5369C100.549 84.5519 100.576 84.561 100.604 84.5631L156.346 87.6121C156.382 87.6142 156.417 87.6087 156.451 87.596C156.484 87.5833 156.514 87.5637 156.539 87.5384C156.565 87.5131 156.585 87.483 156.598 87.45C156.612 87.4148 156.62 87.3772 156.62 87.3392V85.2759C156.619 85.1997 156.591 85.1264 156.539 85.0698C156.515 85.0428 156.485 85.0205 156.453 85.0043C156.42 84.9878 156.383 84.9784 156.346 84.9765L100.602 82.3225Z" fill="#CCCCCC"/>
<path d="M100.602 88.0426C100.576 88.0406 100.549 88.0454 100.525 88.0566C100.5 88.068 100.479 88.0845 100.462 88.105C100.443 88.1271 100.429 88.1524 100.419 88.1796C100.409 88.2098 100.404 88.2414 100.404 88.2733V90.0218C100.404 90.0545 100.409 90.087 100.419 90.118C100.429 90.1469 100.443 90.1742 100.462 90.1985C100.479 90.2213 100.5 90.2406 100.525 90.2554C100.548 90.2701 100.575 90.2789 100.602 90.2813L156.344 94.3447C156.38 94.3474 156.416 94.3423 156.45 94.3297C156.483 94.3176 156.512 94.2987 156.537 94.2745C156.562 94.2496 156.582 94.22 156.596 94.1873C156.61 94.1522 156.617 94.1147 156.617 94.0768V92.0132C156.617 91.9745 156.61 91.936 156.596 91.8999C156.582 91.865 156.562 91.8327 156.537 91.8047C156.512 91.7771 156.483 91.7542 156.45 91.7372C156.417 91.7202 156.381 91.7101 156.344 91.7076L100.602 88.0426Z" fill="#CCCCCC"/>
<path d="M100.602 93.734C100.576 93.7316 100.549 93.736 100.525 93.7468C100.5 93.7579 100.479 93.7742 100.462 93.7946C100.443 93.8161 100.429 93.8409 100.419 93.8677C100.409 93.8978 100.404 93.9295 100.404 93.9613V95.7099C100.404 95.7426 100.409 95.7752 100.419 95.8063C100.429 95.8356 100.443 95.8631 100.462 95.8878C100.479 95.9109 100.5 95.9306 100.524 95.9459C100.548 95.9605 100.574 95.9694 100.602 95.9718L156.344 101.047C156.379 101.05 156.416 101.046 156.45 101.034C156.482 101.023 156.512 101.004 156.537 100.98C156.562 100.956 156.582 100.927 156.595 100.894C156.61 100.859 156.617 100.822 156.617 100.784V98.7204C156.617 98.6815 156.609 98.6428 156.595 98.6065C156.582 98.5711 156.562 98.5385 156.537 98.51C156.512 98.482 156.483 98.4586 156.45 98.441C156.417 98.4235 156.381 98.4129 156.344 98.4098L100.602 93.734Z" fill="#CCCCCC"/>
<path d="M100.602 105.147C100.576 105.144 100.549 105.148 100.525 105.157C100.501 105.167 100.479 105.182 100.462 105.201C100.443 105.222 100.429 105.247 100.419 105.275C100.409 105.305 100.404 105.336 100.404 105.368V107.117C100.404 107.15 100.409 107.182 100.419 107.214C100.429 107.243 100.443 107.271 100.462 107.297C100.479 107.32 100.5 107.341 100.525 107.357C100.548 107.372 100.574 107.382 100.602 107.386L156.344 114.485C156.38 114.49 156.416 114.487 156.45 114.476C156.483 114.466 156.512 114.448 156.537 114.425C156.562 114.401 156.582 114.373 156.596 114.341C156.61 114.306 156.617 114.269 156.617 114.232V112.169C156.617 112.13 156.61 112.091 156.596 112.054C156.582 112.019 156.562 111.985 156.537 111.956C156.512 111.927 156.483 111.903 156.45 111.884C156.417 111.865 156.381 111.853 156.344 111.848L100.602 105.147Z" fill="#CCCCCC"/>
<path d="M100.602 110.839C100.576 110.835 100.549 110.838 100.525 110.848C100.5 110.857 100.479 110.872 100.462 110.892C100.443 110.912 100.429 110.937 100.419 110.963C100.409 110.993 100.404 111.025 100.404 111.057V112.805C100.404 112.838 100.409 112.871 100.419 112.902C100.429 112.932 100.443 112.961 100.462 112.986C100.479 113.01 100.5 113.032 100.524 113.049C100.547 113.065 100.574 113.075 100.602 113.08L156.344 121.19C156.379 121.195 156.415 121.193 156.45 121.183C156.482 121.173 156.512 121.156 156.537 121.134C156.562 121.11 156.582 121.082 156.595 121.051C156.61 121.016 156.617 120.979 156.617 120.942V118.877C156.617 118.838 156.609 118.799 156.595 118.762C156.581 118.726 156.562 118.692 156.537 118.663C156.512 118.633 156.483 118.608 156.45 118.589C156.417 118.57 156.381 118.557 156.344 118.551L100.602 110.839Z" fill="#CCCCCC"/>
<path d="M100.602 116.531C100.576 116.527 100.549 116.529 100.525 116.538C100.501 116.547 100.479 116.562 100.462 116.581C100.443 116.601 100.429 116.625 100.419 116.652C100.409 116.682 100.404 116.713 100.404 116.745V118.495C100.404 118.529 100.409 118.562 100.419 118.593C100.429 118.623 100.443 118.652 100.462 118.678C100.479 118.702 100.5 118.723 100.525 118.74C100.548 118.756 100.574 118.767 100.602 118.771L156.344 127.892C156.379 127.898 156.415 127.896 156.45 127.887C156.482 127.878 156.512 127.861 156.537 127.839C156.562 127.816 156.582 127.788 156.596 127.757C156.61 127.723 156.617 127.686 156.617 127.648V125.584C156.617 125.545 156.61 125.506 156.596 125.469C156.582 125.432 156.562 125.398 156.537 125.368C156.512 125.338 156.483 125.313 156.45 125.293C156.418 125.273 156.381 125.26 156.344 125.253L100.602 116.531Z" fill="#CCCCCC"/>
<path d="M57.0379 177L0 176.864V176.552L57.0379 176.688V177Z" fill="#D6D6E3"/>
<path d="M46.2004 119.144L43.3427 113.534L40.0547 115.196L42.9123 120.806C42.7577 121.293 42.7021 121.807 42.7488 122.316C42.7954 122.825 42.9432 123.32 43.1838 123.772C44.0745 125.521 45.974 126.342 47.4274 125.608C48.8809 124.874 49.3358 122.861 48.4451 121.112C48.221 120.652 47.9071 120.24 47.5217 119.902C47.1363 119.564 46.6871 119.305 46.2004 119.142V119.144Z" fill="#ED9DA0"/>
<path d="M26.8049 93.7843L41.2426 120.658L46.8879 117.651L34.2413 90.114" fill="#A5B68D"/>
<path d="M34.6915 100.083L38.6264 118.284L21.4775 118.88C21.4775 118.88 23.7244 106.239 22.9269 104.055L34.6915 100.083Z" fill="#ED9DA0"/>
<path d="M41.9751 167.817H37.9675V173.078H41.9751V167.817Z" fill="#ED9DA0"/>
<path d="M37.1566 176.193C37.0052 176.087 36.8779 175.951 36.7831 175.793C36.6883 175.634 36.6282 175.458 36.6067 175.275C36.6123 175.045 36.6657 174.819 36.7633 174.61C36.861 174.402 37.0008 174.215 37.1741 174.063C37.1839 173.941 37.3086 172.429 37.5864 172.159C37.4844 171.84 37.5084 171.494 37.6535 171.192C37.713 171.108 37.7912 171.039 37.882 170.989C37.9728 170.94 38.0737 170.912 38.177 170.908H38.1874L38.1927 170.917C38.1996 170.929 38.8755 172.099 39.8932 172.202C40.4763 172.261 41.0604 171.962 41.6288 171.313C41.6488 171.265 41.8097 170.476 41.9134 169.953L41.9175 169.932L47.4603 172.833L50.7001 173.726C50.8851 173.777 51.0502 173.883 51.1731 174.03C51.296 174.177 51.371 174.358 51.3881 174.548C51.4051 174.739 51.3634 174.93 51.2685 175.096C51.1735 175.262 51.0299 175.395 50.8568 175.478L49.2865 176.23C48.626 176.545 47.903 176.709 47.1706 176.71H38.652C38.1091 176.713 37.5814 176.532 37.1566 176.195V176.193Z" fill="#090814"/>
<path d="M10.0609 170.468L13.9089 171.583L15.3843 166.532L11.5363 165.417L10.0609 170.468Z" fill="#ED9DA0"/>
<path d="M8.40819 173.234C8.2923 173.09 8.20825 172.924 8.16156 172.745C8.11488 172.567 8.10662 172.381 8.13732 172.199C8.20717 171.98 8.32182 171.777 8.47408 171.604C8.62633 171.431 8.81289 171.291 9.02204 171.193C9.06561 171.079 9.60955 169.662 9.95221 169.479C9.9435 169.144 10.0635 168.819 10.2877 168.57C10.3685 168.505 10.463 168.46 10.564 168.438C10.665 168.416 10.7698 168.418 10.8702 168.442L10.8802 168.444L10.8827 168.454C10.8858 168.468 11.2072 169.779 12.1549 170.161C12.6985 170.379 13.3428 170.254 14.0704 169.79C14.1034 169.751 14.478 169.036 14.7254 168.563L14.7351 168.543L19.2439 172.873L22.1044 174.631C22.2677 174.732 22.3964 174.879 22.4733 175.054C22.5502 175.229 22.5717 175.424 22.5348 175.611C22.4979 175.799 22.4044 175.971 22.2668 176.104C22.1292 176.237 21.9541 176.326 21.7648 176.357L20.0459 176.642C19.3233 176.761 18.5831 176.718 17.8796 176.515L9.70047 174.146C9.17815 173.997 8.72248 173.676 8.40913 173.234H8.40819Z" fill="#090814"/>
<path d="M19.624 109.625L36.7729 110.023C36.7729 110.023 47.1942 139.941 46.7954 168.341H32.4904L31.6408 135.372L29.1559 169.621L10.3035 168.54L19.624 109.625Z" fill="#090814"/>
<path d="M36.0269 76.2104C36.0272 75.0882 35.7352 73.9851 35.1795 73.0089C34.6237 72.0326 33.8233 71.2166 32.8564 70.6405C31.8894 70.0644 30.7889 69.7479 29.6625 69.722C28.536 69.696 27.422 69.9614 26.4293 70.4923C25.4366 71.0232 24.5991 71.8014 23.9986 72.751C23.3982 73.7006 23.0552 74.789 23.0033 75.91C22.9513 77.031 23.1922 78.1463 23.7023 79.1469C24.2125 80.1475 24.9744 80.9992 25.9138 81.6189C25.3746 82.9565 24.6576 84.2159 23.782 85.3635L30.2039 90.6922L31.4626 82.4023C32.7861 81.9882 33.9424 81.1644 34.7633 80.0506C35.5842 78.9369 36.0269 77.5914 36.0269 76.2097V76.2104Z" fill="#ED9DA0"/>
<path d="M31.4475 85.5147L24.0692 83.7272L19.3399 89.7583C18.2136 92.0468 18.0358 94.6845 18.8449 97.1024L22.7665 108.822C22.7665 108.822 34.7315 108.623 37.3239 101.671L38.0673 100.129C38.5658 99.0947 38.7734 97.945 38.6679 96.8023C38.5624 95.6597 38.1478 94.5669 37.4681 93.6403L31.4475 85.5147Z" fill="#A5B68D"/>
<path d="M23.5938 124.254L23.7308 117.966L20.0443 117.886L19.9073 124.174C19.5396 124.532 19.2472 124.959 19.0469 125.43C18.8467 125.901 18.7427 126.408 18.741 126.92C18.6984 128.88 19.9841 130.497 21.6131 130.532C23.242 130.568 24.5973 129.006 24.6393 127.046C24.6598 126.535 24.5779 126.025 24.3984 125.545C24.2189 125.066 23.9454 124.627 23.5938 124.254Z" fill="#ED9DA0"/>
<path d="M18.5044 92.7814V123.261H24.9065L26.7989 93.0387" fill="#A5B68D"/>
<path d="M26.0755 77.1699C26.0755 77.1699 31.207 75.4732 29.9433 73.5496C29.9433 73.5496 35.3898 74.4944 35.5303 73.5496C35.6707 72.6047 35.5303 66.5502 28.1513 67.5303C20.7722 68.5104 21.7557 74.6692 21.7557 74.6692C21.7557 74.6692 22.295 80.6233 26.2652 81.8482C26.2643 81.8485 23.1941 75.9453 26.0755 77.1699Z" fill="#090814"/>
<path d="M24.458 71.0089C24.458 71.0089 22.9425 69.9188 21.175 70.2545C20.5558 70.3719 19.9015 70.8231 19.3115 71.3598C18.1337 72.4524 17.2288 73.8042 16.6689 75.3071C15.1236 79.3412 11.8804 89.432 17.5543 90.6691C24.6677 92.2206 25.1098 77.2339 25.1098 77.2339L24.458 71.0089Z" fill="#090814"/>
<path d="M56.2993 117.458C56.3485 117.501 56.3887 117.554 56.4175 117.612C56.4464 117.671 56.4632 117.735 56.4672 117.8C56.4712 117.866 56.4622 117.931 56.4407 117.993C56.4192 118.055 56.3856 118.112 56.342 118.161L55.2066 119.442L55.2675 119.503L54.4946 120.371L54.4369 120.309L50.3706 124.898C50.2314 125.055 50.0396 125.156 49.8311 125.183C49.6226 125.21 49.4116 125.16 49.2374 125.043L45.9829 122.857C45.9039 122.804 45.8376 122.734 45.7886 122.652C45.7395 122.571 45.709 122.479 45.699 122.385C45.6891 122.29 45.7 122.195 45.7311 122.105C45.7621 122.015 45.8125 121.933 45.8786 121.864L51.9549 115.568C52.0825 115.436 52.2513 115.352 52.4336 115.328C52.6159 115.304 52.8009 115.342 52.9583 115.437L56.2229 117.404C56.2501 117.42 56.2756 117.439 56.2992 117.459L56.2993 117.458Z" fill="#3F3D56"/>
<path d="M53.3985 116.219L55.1141 117.253C55.145 117.271 55.1812 117.279 55.2171 117.275C55.253 117.271 55.2865 117.256 55.3126 117.231C55.3422 117.202 55.3804 117.185 55.4211 117.18C55.4618 117.176 55.5029 117.185 55.5379 117.206L55.8994 117.424C55.9487 117.454 55.9908 117.494 56.0228 117.541C56.0548 117.589 56.0759 117.643 56.0846 117.7C56.0932 117.757 56.0893 117.815 56.073 117.87C56.0567 117.925 56.0285 117.976 55.9903 118.019L50.0994 124.675C50.0262 124.758 49.9251 124.811 49.8152 124.824C49.7054 124.838 49.5946 124.81 49.5039 124.747L46.2921 122.515C46.2514 122.486 46.2173 122.449 46.1922 122.407C46.167 122.364 46.1515 122.316 46.1465 122.267C46.1416 122.217 46.1474 122.167 46.1635 122.12C46.1796 122.073 46.2057 122.03 46.24 121.994L52.2159 115.72C52.304 115.628 52.421 115.568 52.5477 115.551C52.6743 115.534 52.803 115.561 52.9123 115.627L53.2923 115.856C53.2608 115.918 53.2542 115.991 53.2739 116.058C53.2936 116.125 53.3381 116.183 53.3985 116.219Z" fill="#A5B68D"/>
<path d="M78.572 101.05H54.8825C54.603 101.05 54.335 101.161 54.1374 101.358C53.9398 101.555 53.8285 101.822 53.8281 102.1V111.55C53.8285 111.828 53.9396 112.095 54.1373 112.292C54.335 112.489 54.6029 112.599 54.8825 112.6H56.5569V115.996H56.6196C57.2937 115.996 57.94 115.729 58.4166 115.254C58.8933 114.779 59.1614 114.136 59.1621 113.464V112.6H78.5726C78.8521 112.599 79.1201 112.489 79.3178 112.292C79.5154 112.095 79.6266 111.828 79.6269 111.55V102.1C79.6265 101.822 79.5152 101.555 79.3174 101.358C79.1197 101.161 78.8516 101.05 78.572 101.05ZM79.5022 111.55C79.5018 111.795 79.4037 112.031 79.2294 112.204C79.055 112.378 78.8186 112.476 78.572 112.476H59.0374V113.464C59.0364 114.092 58.7898 114.695 58.3497 115.145C57.9097 115.594 57.3109 115.855 56.6807 115.872V112.476H54.8825C54.6359 112.476 54.3995 112.378 54.2251 112.204C54.0507 112.031 53.9526 111.795 53.9523 111.55V102.1C53.9526 101.855 54.0507 101.619 54.2251 101.445C54.3995 101.272 54.6359 101.174 54.8825 101.174H78.5717C78.8183 101.174 79.0547 101.272 79.229 101.445C79.4034 101.619 79.5015 101.855 79.5018 102.1L79.5022 111.55Z" fill="#3F3D56"/>
<path d="M73.8901 103.753H59.565C59.3805 103.74 59.1978 103.797 59.054 103.913C58.9102 104.029 58.8162 104.195 58.791 104.378C58.7904 104.386 58.7904 104.395 58.791 104.403C58.8088 104.592 58.9 104.765 59.045 104.887C59.19 105.008 59.3772 105.069 59.5663 105.054H73.8914C73.9865 105.07 74.0839 105.066 74.177 105.04C74.27 105.015 74.3564 104.97 74.4301 104.908C74.5038 104.846 74.5631 104.769 74.6037 104.682C74.6443 104.594 74.6654 104.5 74.6654 104.403C74.6654 104.307 74.6443 104.213 74.6037 104.125C74.5631 104.038 74.5038 103.961 74.4301 103.899C74.3564 103.837 74.27 103.792 74.177 103.767C74.0839 103.741 73.9865 103.737 73.8914 103.753L73.8901 103.753Z" fill="#A5B68D"/>
<path d="M73.8901 106.347H59.565C59.3805 106.334 59.1978 106.391 59.054 106.507C58.9102 106.623 58.8162 106.789 58.791 106.972C58.7904 106.98 58.7904 106.989 58.791 106.997C58.8088 107.185 58.9 107.359 59.045 107.481C59.19 107.602 59.3772 107.662 59.5663 107.648H73.8914C73.9865 107.664 74.0839 107.659 74.177 107.634C74.27 107.609 74.3564 107.564 74.4301 107.502C74.5038 107.44 74.5631 107.362 74.6037 107.275C74.6443 107.188 74.6654 107.093 74.6654 106.997C74.6654 106.901 74.6443 106.806 74.6037 106.719C74.5631 106.632 74.5038 106.555 74.4301 106.493C74.3564 106.431 74.27 106.386 74.177 106.36C74.0839 106.335 73.9865 106.33 73.8914 106.347L73.8901 106.347Z" fill="#A5B68D"/>
<path d="M73.8901 108.941H59.565C59.3805 108.928 59.1978 108.985 59.054 109.101C58.9102 109.217 58.8162 109.383 58.791 109.566C58.7904 109.574 58.7904 109.583 58.791 109.591C58.8088 109.779 58.9 109.953 59.045 110.075C59.19 110.196 59.3772 110.256 59.5663 110.242H73.8914C73.9865 110.258 74.0839 110.253 74.177 110.228C74.27 110.203 74.3564 110.158 74.4301 110.096C74.5038 110.034 74.5631 109.956 74.6037 109.869C74.6443 109.782 74.6654 109.687 74.6654 109.591C74.6654 109.495 74.6443 109.4 74.6037 109.313C74.5631 109.226 74.5038 109.149 74.4301 109.087C74.3564 109.025 74.27 108.98 74.177 108.954C74.0839 108.929 73.9865 108.924 73.8914 108.941L73.8901 108.941Z" fill="#A5B68D"/>
</g>
<defs>
<clipPath id="clip0_1458_1807">
<rect width="178" height="177" fill="white"/>
</clipPath>
</defs>
</svg>
