<svg width="160" height="168" viewBox="0 0 160 168" fill="none" xmlns="http://www.w3.org/2000/svg">
<path d="M102.873 78.1514H0.0407715V0.973877H102.873V78.1514Z" fill="white"/>
<path d="M24.9593 17.0815C27.2199 17.0815 29.0526 15.2483 29.0526 12.9868C29.0526 10.7254 27.2199 8.89209 24.9593 8.89209C22.6986 8.89209 20.866 10.7254 20.866 12.9868C20.866 15.2483 22.6986 17.0815 24.9593 17.0815Z" fill="#A5B68D"/>
<path d="M34.4127 10.257C34.2318 10.257 34.0582 10.3289 33.9303 10.4569C33.8023 10.5848 33.7305 10.7584 33.7305 10.9394C33.7305 11.1205 33.8023 11.294 33.9303 11.422C34.0582 11.55 34.2318 11.6219 34.4127 11.6219H84.2218C84.4027 11.6219 84.5762 11.55 84.7042 11.422C84.8321 11.294 84.904 11.1205 84.904 10.9394C84.904 10.7584 84.8321 10.5848 84.7042 10.4569C84.5762 10.3289 84.4027 10.257 84.2218 10.257H34.4127Z" fill="#E6E6E6"/>
<path d="M34.4127 14.3517C34.3231 14.3515 34.2343 14.369 34.1515 14.4031C34.0686 14.4372 33.9933 14.4873 33.9298 14.5506C33.8016 14.6783 33.7294 14.8518 33.729 15.0328C33.7286 15.2138 33.8002 15.3875 33.9278 15.5158C34.0555 15.644 34.2289 15.7163 34.4099 15.7167H65.8997C66.0807 15.7167 66.2542 15.6448 66.3822 15.5168C66.5101 15.3888 66.582 15.2152 66.582 15.0342C66.582 14.8532 66.5101 14.6796 66.3822 14.5516C66.2542 14.4236 66.0807 14.3517 65.8997 14.3517H34.4127Z" fill="#E6E6E6"/>
<path d="M102.873 78.1514H0.0407715V0.973877H102.873V78.1514ZM1.19201 77H101.722V2.12622H1.19201V77Z" fill="#E6E6E6"/>
<path d="M5.78857 24.5099V70.4137H97.1255V24.5099H5.78857ZM96.6855 35.876H74.4011V24.9491H96.6865L96.6855 35.876ZM51.6756 35.876V24.9491H73.9611V35.876H51.6756ZM73.9611 36.3152V47.2422H51.6766V36.3157L73.9611 36.3152ZM51.2366 35.876H28.9521V24.9491H51.2375L51.2366 35.876ZM51.2366 36.3152V47.2422H28.9521V36.3157L51.2366 36.3152ZM28.5119 47.2422H6.22762V36.3157H28.5119V47.2422ZM28.5119 47.6814V58.6083H6.22762V47.6814H28.5119ZM28.9509 47.6814H51.2363V58.6083H28.9521L28.9509 47.6814ZM51.2363 59.0475V69.9745H28.9521V59.0475H51.2363ZM51.6754 59.0475H73.9608V69.9745H51.6766L51.6754 59.0475ZM51.6754 58.6083V47.6814H73.9608V58.6083H51.6754ZM74.3999 47.6814H96.6853V58.6083H74.4011L74.3999 47.6814ZM74.3999 47.2422V36.3157H96.6853V47.2427L74.3999 47.2422ZM28.5119 24.9491V35.876H6.22762V24.9491H28.5119ZM6.22762 59.0475H28.5119V69.9745H6.22762V59.0475ZM74.4011 69.9745V59.0475H96.6865V69.9745H74.4011Z" fill="#E6E6E6"/>
<path d="M43.2832 36.8597L34.1961 36.6536C33.2871 33.1311 33.6962 29.7768 34.4216 26.6862L43.5097 26.892C42.5905 30.1415 42.5128 33.5716 43.2841 36.8594L43.2832 36.8597Z" fill="#A5B68D"/>
<path d="M35.9779 28.8889L35.9826 28.5431L40.691 28.7114L40.6861 29.0573L35.9779 28.8889Z" fill="white"/>
<path d="M35.958 30.2725L35.9627 29.9266L40.6709 30.0952L40.6659 30.441L35.958 30.2725Z" fill="white"/>
<path d="M35.9382 31.6561L35.9432 31.3103L40.6513 31.4789L40.6464 31.8247L35.9382 31.6561Z" fill="white"/>
<path d="M35.9172 33.0401L35.922 32.6942L40.6304 32.8628L40.6266 33.2079L35.9172 33.0401Z" fill="white"/>
<path d="M35.8988 34.4236L35.9035 34.0778L40.6119 34.2463L40.607 34.5922L35.8988 34.4236Z" fill="white"/>
<path d="M23.5227 62.3372L14.4356 62.1311C13.5266 58.6086 13.9357 55.2544 14.6611 52.1637L23.7492 52.3695C22.83 55.6191 22.7524 59.0491 23.5236 62.337L23.5227 62.3372Z" fill="#F0F0F0"/>
<path d="M16.2174 54.3665L16.2221 54.0206L20.9305 54.189L20.9256 54.5348L16.2174 54.3665Z" fill="#090814"/>
<path d="M16.1976 55.75L16.2026 55.4042L20.9107 55.5727L20.9058 55.9186L16.1976 55.75Z" fill="#090814"/>
<path d="M16.1787 57.1339L16.1837 56.7881L20.8918 56.9566L20.8871 57.3025L16.1787 57.1339Z" fill="#090814"/>
<path d="M16.1565 58.5176L16.1612 58.1718L20.8696 58.3403L20.8658 58.6854L16.1565 58.5176Z" fill="#090814"/>
<path d="M16.1381 59.9011L16.1428 59.5553L20.8512 59.7239L20.8462 60.0697L16.1381 59.9011Z" fill="#090814"/>
<path d="M71.9139 52.1636L62.8268 51.9578C61.9179 48.4353 62.327 45.081 63.0524 41.9904L72.1404 42.1962C71.2212 45.4457 71.1436 48.8758 71.9149 52.1636H71.9139Z" fill="#F0F0F0"/>
<path d="M64.6088 44.1933L64.6135 43.8474L69.3219 44.0157L69.3169 44.3616L64.6088 44.1933Z" fill="#090814"/>
<path d="M64.5889 45.5769L64.5938 45.2311L69.302 45.3996L69.297 45.7455L64.5889 45.5769Z" fill="#090814"/>
<path d="M64.569 46.9606L64.5739 46.6147L69.2821 46.7833L69.2771 47.1292L64.569 46.9606Z" fill="#090814"/>
<path d="M64.5481 48.3444L64.5528 47.9985L69.2612 48.1671L69.2574 48.5122L64.5481 48.3444Z" fill="#090814"/>
<path d="M64.5294 49.7282L64.5344 49.3823L69.2428 49.5509L69.2378 49.8967L64.5294 49.7282Z" fill="#090814"/>
<path d="M66.9956 48.5L57.9085 48.294C56.9995 44.7714 57.4086 41.4172 58.134 38.3265L67.2221 38.5324C66.3029 41.7819 66.2253 45.212 66.9965 48.4998L66.9956 48.5Z" fill="#A5B68D"/>
<path d="M59.6904 40.5294L59.6954 40.1836L64.4038 40.3519L64.3988 40.6978L59.6904 40.5294Z" fill="white"/>
<path d="M59.6707 41.9131L59.6756 41.5673L64.3838 41.7358L64.3788 42.0817L59.6707 41.9131Z" fill="white"/>
<path d="M59.6505 43.2969L59.6555 42.951L64.3636 43.1196L64.3589 43.4655L59.6505 43.2969Z" fill="white"/>
<path d="M59.6296 44.6806L59.6346 44.3347L64.343 44.5033L64.339 44.8484L59.6296 44.6806Z" fill="white"/>
<path d="M59.611 46.0641L59.6159 45.7183L64.3243 45.8868L64.3194 46.2327L59.611 46.0641Z" fill="white"/>
<path d="M90.7081 38.6166L81.621 38.4106C80.712 34.888 81.1212 31.5338 81.8465 28.4431L90.9346 28.6489C90.0154 31.8985 89.9378 35.3285 90.709 38.6164L90.7081 38.6166Z" fill="#F0F0F0"/>
<path d="M83.403 30.646L83.4077 30.3002L88.1161 30.4685L88.1111 30.8143L83.403 30.646Z" fill="#090814"/>
<path d="M83.3832 32.0296L83.3881 31.6837L88.0963 31.8523L88.0913 32.1981L83.3832 32.0296Z" fill="#090814"/>
<path d="M83.3632 33.4135L83.3681 33.0676L88.0763 33.2362L88.0713 33.582L83.3632 33.4135Z" fill="#090814"/>
<path d="M83.3422 34.797L83.3469 34.4512L88.0553 34.6197L88.0515 34.9649L83.3422 34.797Z" fill="#090814"/>
<path d="M83.3235 36.1806L83.3284 35.8347L88.0368 36.0033L88.0319 36.3491L83.3235 36.1806Z" fill="#090814"/>
<path d="M67.4963 163.622C67.4962 163.662 67.5039 163.701 67.519 163.737C67.5341 163.774 67.5562 163.807 67.5842 163.835C67.6121 163.863 67.6453 163.885 67.6818 163.9C67.7184 163.915 67.7575 163.923 67.797 163.923H138.636C138.716 163.923 138.792 163.891 138.848 163.835C138.905 163.778 138.937 163.702 138.937 163.622C138.937 163.542 138.905 163.466 138.848 163.409C138.792 163.353 138.716 163.321 138.636 163.321H67.7966C67.757 163.321 67.7179 163.329 67.6814 163.344C67.6448 163.359 67.6117 163.381 67.5837 163.409C67.5558 163.437 67.5336 163.47 67.5186 163.507C67.5035 163.543 67.4958 163.583 67.4959 163.622H67.4963Z" fill="#E6E6E6"/>
<path d="M103.238 59.3526L111.63 60.752L114.427 47.4598L107.667 44.6615L103.238 59.3526Z" fill="#090814"/>
<path d="M111.63 53.5219C111.63 53.5219 112.329 62.3834 106.968 63.0829C101.606 63.7823 111.63 79.6397 114.194 79.4066C116.759 79.1734 121.421 62.1498 121.421 62.1498C121.421 62.1498 115.36 57.952 117.457 54.2201L111.63 53.5219Z" fill="#E28F8F"/>
<path d="M114.777 56.6709C118.768 56.6709 122.004 53.4343 122.004 49.4419C122.004 45.4494 118.768 42.2129 114.777 42.2129C110.786 42.2129 107.551 45.4494 107.551 49.4419C107.551 53.4343 110.786 56.6709 114.777 56.6709Z" fill="#E28F8F"/>
<path d="M102.655 85.8214C102.655 85.8214 103.587 92.5841 106.385 92.5841C109.182 92.5841 104.52 84.8888 104.52 84.8888L102.655 85.8214Z" fill="#E28F8F"/>
<path d="M143.45 92.5831C143.45 92.5831 150.444 98.413 149.511 100.28C148.579 102.146 142.518 98.1814 142.052 93.5169L143.45 92.5831Z" fill="#E28F8F"/>
<path d="M101.256 114.97L96.8268 131.527L91.9315 151.582H96.5937C96.5937 151.582 98.2253 145.285 101.256 142.021C101.256 142.021 104.286 136.89 104.286 133.392L111.513 116.371L101.256 114.97Z" fill="#E28F8F"/>
<path d="M120.372 115.903L121.771 131.527C121.771 131.527 121.537 142.721 121.771 145.286C122.004 147.851 121.771 151.582 121.771 151.582H125.965C125.965 151.582 129.929 137.824 128.763 130.361L130.395 112.872L120.372 115.903Z" fill="#E28F8F"/>
<path d="M114.777 72.9947C114.777 72.9947 108.496 68.0157 110.121 61.0607C110.121 61.0607 103.821 61.3348 101.256 63.9C98.692 66.4652 101.956 75.0934 101.956 75.0934C101.956 75.0934 107.551 84.4215 106.618 88.6178C105.685 92.8141 95.6616 114.969 98.9253 116.368C102.189 117.767 122.004 122.664 132.028 114.503C132.028 114.503 134.591 91.4161 124.335 83.954V78.1251C124.335 78.1251 126.2 76.4928 125.268 72.2953C125.268 72.2953 129.231 65.0663 126.899 63.6669C124.568 62.2675 119.213 60.2172 119.213 60.2172C119.213 60.2172 119.672 70.663 114.777 72.9947Z" fill="#FFDCCB"/>
<path d="M102.655 63.8998C102.655 63.8998 99.6246 63.4335 96.594 67.8647C93.5633 72.2958 85.6375 79.2912 89.3675 82.7892C93.0974 86.2872 103.121 88.619 103.121 88.619L105.454 84.4206L95.4305 79.5236L103.821 73.2277L102.655 63.8998Z" fill="#FFDCCB"/>
<path d="M125.733 63.8999C125.733 63.8999 128.997 63.8999 130.395 67.8647C131.794 71.8295 139.953 85.3544 139.953 85.3544L144.615 92.5832L141.352 96.3149L132.261 86.0544L123.636 71.8295L125.733 63.8999Z" fill="#FFDCCB"/>
<path d="M97.5262 151.115H90.9999L89.601 162.542C89.601 162.542 85.8718 168.606 91.4651 167.906C97.0584 167.206 95.195 160.91 95.195 160.91L96.5939 158.578L97.0603 163.475L97.5265 163.242V157.879C97.5265 157.879 100.091 155.546 97.5262 151.115Z" fill="#090814"/>
<path d="M127.132 151.115L121.071 150.649L119.905 163.708C119.905 163.708 119.206 168.605 123.402 167.906C127.598 167.206 126.199 163.242 126.199 163.242V156.013L127.132 151.115Z" fill="#090814"/>
<path d="M109.532 42.0962C109.532 42.0962 106.136 43.2278 105.963 47.6997C105.946 48.415 106.025 49.1293 106.199 49.8233C106.39 50.6341 106.513 52.3786 105.031 54.6581C104.039 56.1633 103.132 57.7235 102.316 59.3311L102.306 59.3523L106.035 59.8186L106.828 53.6335C107.213 50.6348 108.036 47.7091 109.273 44.9504L109.299 44.8929C109.299 44.8929 110.93 47.9265 114.194 47.9265L113.028 46.7605C113.028 46.7605 118.157 48.8586 120.022 48.8586C120.022 48.8586 121.421 49.7915 120.022 51.1907C118.623 52.5898 115.826 55.8545 117.459 58.4197C119.092 60.9848 117.692 61.6845 117.692 61.6845L120.255 60.2851L121.421 59.5854V60.5183L127.482 59.8186C127.482 59.8186 129.114 59.5854 125.617 55.6209C125.617 55.6209 124.693 54.0814 125.099 52.7534C125.431 51.7444 125.518 50.6708 125.353 49.6213C124.569 45.2505 121.495 36.5589 109.532 42.0962Z" fill="#090814"/>
<path d="M153.46 104.021L145.862 99.028C146.957 95.559 149.082 92.9325 151.334 90.6957L158.932 95.689C156.431 97.957 154.548 100.825 153.46 104.021Z" fill="#A5B68D"/>
<path d="M151.202 93.8093L151.441 93.436L155.319 96.1154L155.08 96.4885L151.202 93.8093Z" fill="white"/>
<path d="M149.845 95.982L150.084 95.6088L153.962 98.2881L153.723 98.6613L149.845 95.982Z" fill="white"/>
<path d="M148.436 98.1234L148.675 97.7502L152.554 100.429L152.315 100.803L148.436 98.1234Z" fill="white"/>
</svg>
