<svg width="129" height="172" viewBox="0 0 129 172" fill="none" xmlns="http://www.w3.org/2000/svg">
<path d="M15.9812 91.5152L21.0222 101.494L36.0918 108.346C37.7014 111.066 42.8159 111.274 43.1879 109.516C43.6053 107.543 36.9766 104.367 36.9766 104.367L24.3705 95.8405L23.2675 88.5001L15.9812 91.5152Z" fill="#E28F8F"/>
<path d="M16.5758 158.481L15.6462 165.917L21.038 166.289L21.5952 158.481L16.5758 158.481Z" fill="#E28F8F"/>
<path d="M17.319 164.802C16.8369 164.293 16.3923 163.749 15.9884 163.176C15.2165 162.106 14.5308 167.591 14.5308 167.591C14.5308 167.591 13.787 169.822 13.9737 170.938C14.1603 172.053 18.4354 172.053 19.1794 171.868C19.9235 171.683 23.6412 171.868 23.6412 171.868H29.2188C34.0528 169.637 29.2188 168.15 29.2188 168.15C27.7314 167.964 22.7118 163.316 22.7118 163.316L21.5962 161.271C20.8526 161.085 20.1088 163.874 20.1088 163.874L17.319 164.802Z" fill="#090814"/>
<path d="M2.63166 158.574L1.70142 166.01L7.09319 166.382L7.65036 158.573L2.63166 158.574Z" fill="#E28F8F"/>
<path d="M3.37595 164.896C2.89396 164.386 2.44929 163.842 2.0454 163.269C1.27267 162.2 0.587148 167.685 0.587148 167.685C0.587148 167.685 -0.156438 169.73 0.0299953 170.845C0.216429 171.961 4.49175 171.959 5.23577 171.775C5.97979 171.591 9.69755 171.961 9.69755 171.961H15.2751C20.1091 169.73 15.2751 168.243 15.2751 168.243C13.7877 168.057 8.76816 163.409 8.76816 163.409L7.65255 161.364C6.90896 161.178 6.16516 163.967 6.16516 163.967L3.37595 164.896Z" fill="#090814"/>
<path d="M8.76751 110.608C8.02371 111.538 8.39572 114.698 8.39572 114.698C8.39572 114.698 7.09432 124.924 7.65212 125.853C8.20992 126.783 7.28032 127.526 6.72188 128.828C6.16344 130.13 5.60607 133.29 5.60607 133.29C2.44549 135.893 2.63127 147.791 2.63127 147.791L1.51697 158.388C1.88876 159.504 7.09455 159.69 7.83857 159.504C8.58259 159.318 10.8134 142.586 10.8134 142.586L15.8329 133.104C15.8329 133.104 15.4611 158.388 15.4611 159.505C15.4611 160.621 20.4807 160.062 21.5963 160.062C22.7119 160.062 22.7119 141.47 22.7119 141.47L23.8275 136.636L29.7769 114.513V111.909L28.8466 110.608C28.8466 110.608 9.5111 109.679 8.76751 110.608Z" fill="#090814"/>
<path d="M19.8291 65.3376C18.661 67.9391 19.3526 71.5735 21.6896 75.563L12.2076 71.1012L13.695 69.7998L13.3241 66.0821L19.8291 65.3376Z" fill="#E28F8F"/>
<path d="M16.9472 68.4058C20.1303 68.4058 22.7108 65.8254 22.7108 62.6422C22.7108 59.4591 20.1303 56.8787 16.9472 56.8787C13.764 56.8787 11.1836 59.4591 11.1836 62.6422C11.1836 65.8254 13.764 68.4058 16.9472 68.4058Z" fill="#E28F8F"/>
<path d="M19.8296 71.2869C21.0712 72.0252 21.8139 73.3814 22.2404 74.7617C23.0295 77.3168 23.5044 79.9585 23.6547 82.6285L24.1047 90.6216L29.6823 111.816C24.8487 115.906 22.0608 114.977 15.5528 111.63C9.04475 108.284 8.30179 112.747 8.30179 112.747C8.30179 112.747 7.74463 112.561 8.30179 112.003C8.85895 111.445 8.3018 112.003 7.74464 111.446C7.18748 110.889 7.74463 111.446 7.93064 110.889C8.11664 110.331 7.93064 110.703 7.74464 110.517C7.55863 110.331 8.48822 108.656 8.48822 108.656L7.00147 94.712L5.14099 75.0051C7.37198 72.2163 13.6927 69.7993 13.6927 69.7993L19.4572 73.8895C21.3176 74.6331 19.829 71.6585 19.829 71.6585L19.8296 71.2869Z" fill="#E1EDFF"/>
<path d="M2.07465 86.8109L1.33105 97.9659L10.8139 111.538C10.8139 114.698 12.4871 115.442 12.4871 115.442C13.1208 114.431 13.68 113.374 14.1603 112.282C15.0905 110.236 13.6031 108.563 13.6031 108.563L7.09614 94.8057L9.88493 87.9269L2.07465 86.8109Z" fill="#E28F8F"/>
<path d="M5.23376 75.0984C2.07318 76.214 1.51538 88.2987 1.51538 88.2987C5.23377 86.2535 9.69554 89.6001 9.69554 89.6001C9.69554 89.6001 10.6258 86.4395 11.7407 82.3496C12.0776 81.199 12.1179 79.982 11.8578 78.8117C11.5977 77.6414 11.0458 76.5559 10.2533 75.6564C10.2533 75.6564 8.39542 73.9832 5.23376 75.0984Z" fill="#E1EDFF"/>
<path d="M11.6489 64.4077C12.3826 63.8207 13.3836 64.8877 13.3836 64.8877L13.9705 59.6048C13.9705 59.6048 17.639 60.0449 19.987 59.458C22.335 58.871 22.7016 61.5857 22.7016 61.5857C22.8226 60.4899 22.8472 59.3856 22.7751 58.2856C22.6283 56.9653 20.7205 55.6451 17.3456 54.7637C13.9708 53.8823 12.2099 57.6995 12.2099 57.6995C9.86279 58.8712 10.9152 64.9948 11.6489 64.4077Z" fill="#090814"/>
<path d="M128.685 41.2736H127.742V15.4703C127.742 11.5095 126.169 7.71089 123.368 4.91015C120.568 2.10941 116.769 0.535946 112.808 0.535889H58.1424C54.1816 0.535889 50.3829 2.10933 47.5822 4.91007C44.7814 7.71082 43.208 11.5094 43.208 15.4703V157.027C43.208 160.988 44.7814 164.786 47.5822 167.587C50.3829 170.388 54.1816 171.961 58.1424 171.961H112.808C116.769 171.961 120.568 170.388 123.368 167.587C126.169 164.786 127.743 160.988 127.743 157.027V59.6383H128.685L128.685 41.2736Z" fill="#090814"/>
<path d="M113.413 4.42212H106.279C106.607 5.22679 106.732 6.09984 106.643 6.96434C106.555 7.82884 106.255 8.65824 105.77 9.37947C105.285 10.1007 104.63 10.6916 103.863 11.1001C103.096 11.5086 102.24 11.7222 101.371 11.722H70.0515C69.1825 11.7222 68.3267 11.5086 67.5597 11.1001C66.7927 10.6916 66.1379 10.1007 65.653 9.37947C65.1682 8.65824 64.8682 7.82884 64.7795 6.96434C64.6907 6.09984 64.816 5.22679 65.1443 4.42212H58.4813C55.5234 4.42212 52.6866 5.59714 50.5951 7.6887C48.5035 9.78026 47.3285 12.617 47.3285 15.5749V156.925C47.3285 159.882 48.5035 162.719 50.5949 164.811C52.6864 166.902 55.5231 168.077 58.4809 168.077H113.411C116.369 168.077 119.206 166.902 121.298 164.811C123.389 162.719 124.564 159.882 124.564 156.924V15.5749C124.564 12.6172 123.39 9.78062 121.298 7.68909C119.207 5.59756 116.371 4.4224 113.413 4.42212Z" fill="white"/>
<path d="M104.972 40.3517H54.0205C53.5471 40.3517 53.1633 40.7355 53.1633 41.2089V68.0544C53.1633 68.5278 53.5471 68.9116 54.0205 68.9116H104.972C105.445 68.9116 105.829 68.5278 105.829 68.0544V41.2089C105.829 40.7355 105.445 40.3517 104.972 40.3517Z" fill="#A5B68D"/>
<path d="M109.306 40.3517H124.564V68.9116H109.306C109.079 68.9116 108.861 68.8213 108.7 68.6605C108.539 68.4998 108.449 68.2818 108.449 68.0544V41.2089C108.449 40.9815 108.539 40.7635 108.7 40.6027C108.861 40.442 109.079 40.3517 109.306 40.3517Z" fill="#A5B68D"/>
<path d="M59.7406 16.6625C61.0333 16.6625 62.2969 17.0458 63.3717 17.764C64.4466 18.4821 65.2843 19.5029 65.779 20.6972C66.2737 21.8915 66.4031 23.2056 66.1509 24.4735C65.8987 25.7413 65.2762 26.9059 64.3622 27.8199C63.4481 28.734 62.2835 29.3565 61.0157 29.6087C59.7479 29.8609 58.4337 29.7314 57.2394 29.2367C56.0451 28.7421 55.0244 27.9043 54.3062 26.8295C53.588 25.7547 53.2047 24.491 53.2047 23.1984C53.2047 21.4649 53.8933 19.8025 55.119 18.5768C56.3447 17.3511 58.0072 16.6625 59.7406 16.6625Z" fill="#A5B68D"/>
<path d="M103.992 19.8767H117.921C118.148 19.8767 118.366 19.967 118.527 20.1278C118.688 20.2885 118.778 20.5065 118.778 20.7339V25.234C118.778 25.4613 118.688 25.6794 118.527 25.8401C118.366 26.0009 118.148 26.0912 117.921 26.0912H103.992C103.764 26.0912 103.546 26.0009 103.386 25.8401C103.225 25.6794 103.135 25.4613 103.135 25.234V20.7339C103.135 20.5065 103.225 20.2885 103.386 20.1278C103.546 19.967 103.764 19.8767 103.992 19.8767Z" fill="#FB8F5B"/>
<path d="M54.0619 79.4497H67.7765C68.0039 79.4497 68.2219 79.54 68.3826 79.7008C68.5434 79.8615 68.6337 80.0795 68.6337 80.3069V84.5927C68.6337 84.82 68.5434 85.0381 68.3826 85.1988C68.2219 85.3596 68.0039 85.4499 67.7765 85.4499H54.0619C53.8345 85.4499 53.6165 85.3596 53.4558 85.1988C53.295 85.0381 53.2047 84.82 53.2047 84.5927V80.3069C53.2047 80.0795 53.295 79.8615 53.4558 79.7008C53.6165 79.54 53.8345 79.4497 54.0619 79.4497Z" fill="#A5B68D"/>
<path d="M72.7053 79.4497H86.42C86.6473 79.4497 86.8653 79.54 87.0261 79.7008C87.1868 79.8615 87.2771 80.0795 87.2771 80.3069V84.5927C87.2771 84.82 87.1868 85.0381 87.0261 85.1988C86.8653 85.3596 86.6473 85.4499 86.42 85.4499H72.7053C72.478 85.4499 72.26 85.3596 72.0992 85.1988C71.9385 85.0381 71.8481 84.82 71.8481 84.5927V80.3069C71.8481 80.0795 71.9385 79.8615 72.0992 79.7008C72.26 79.54 72.478 79.4497 72.7053 79.4497Z" fill="#E6E6E6"/>
<path d="M91.3486 79.4497H105.063C105.291 79.4497 105.509 79.54 105.669 79.7008C105.83 79.8615 105.92 80.0795 105.92 80.3069V84.5927C105.92 84.82 105.83 85.0381 105.669 85.1988C105.509 85.3596 105.291 85.4499 105.063 85.4499H91.3486C91.1213 85.4499 90.9033 85.3596 90.7425 85.1988C90.5818 85.0381 90.4915 84.82 90.4915 84.5927V80.3069C90.4915 80.0795 90.5818 79.8615 90.7425 79.7008C90.9033 79.54 91.1213 79.4497 91.3486 79.4497Z" fill="#E6E6E6"/>
<path d="M104.972 40.3517H54.0205C53.5471 40.3517 53.1633 40.7355 53.1633 41.2089V68.0544C53.1633 68.5278 53.5471 68.9116 54.0205 68.9116H104.972C105.445 68.9116 105.829 68.5278 105.829 68.0544V41.2089C105.829 40.7355 105.445 40.3517 104.972 40.3517Z" fill="#A5B68D"/>
<path d="M54.0205 40.3517H104.972C105.199 40.3517 105.417 40.442 105.578 40.6027C105.739 40.7635 105.829 40.9815 105.829 41.2089V68.0544C105.829 68.2818 105.739 68.4998 105.578 68.6605C105.417 68.8213 105.199 68.9116 104.972 68.9116H54.0205C53.7932 68.9116 53.5751 68.8213 53.4144 68.6605C53.2536 68.4998 53.1633 68.2818 53.1633 68.0544V41.2089C53.1633 40.9815 53.2536 40.7635 53.4144 40.6027C53.5751 40.442 53.7932 40.3517 54.0205 40.3517Z" fill="#A5B68D"/>
<path d="M54.0205 91.8407H117.81C118.038 91.8407 118.256 91.931 118.416 92.0918C118.577 92.2525 118.668 92.4705 118.668 92.6979V139.345C118.668 139.572 118.577 139.79 118.416 139.951C118.256 140.111 118.038 140.202 117.81 140.202H54.0205C53.7932 140.202 53.5751 140.111 53.4144 139.951C53.2536 139.79 53.1633 139.572 53.1633 139.345V92.6979C53.1633 92.4705 53.2536 92.2525 53.4144 92.0918C53.5751 91.931 53.7932 91.8407 54.0205 91.8407Z" fill="#E6E6E6"/>
<path d="M54.0619 146.309H72.0624C72.2897 146.309 72.5077 146.399 72.6685 146.56C72.8292 146.721 72.9195 146.939 72.9195 147.166V159.595C72.9195 159.822 72.8292 160.04 72.6685 160.201C72.5077 160.362 72.2897 160.452 72.0624 160.452H54.0619C53.8345 160.452 53.6165 160.362 53.4558 160.201C53.295 160.04 53.2047 159.822 53.2047 159.595V147.166C53.2047 146.939 53.295 146.721 53.4558 146.56C53.6165 146.399 53.8345 146.309 54.0619 146.309Z" fill="#E6E6E6"/>
<path d="M99.9202 146.309H117.921C118.148 146.309 118.366 146.399 118.527 146.56C118.687 146.721 118.778 146.939 118.778 147.166V159.595C118.778 159.822 118.687 160.04 118.527 160.201C118.366 160.362 118.148 160.452 117.921 160.452H99.9202C99.6928 160.452 99.4748 160.362 99.314 160.201C99.1533 160.04 99.063 159.822 99.063 159.595V147.166C99.063 146.939 99.1533 146.721 99.314 146.56C99.4748 146.399 99.6928 146.309 99.9202 146.309Z" fill="#E6E6E6"/>
<path d="M77.2054 146.309H94.9916C95.219 146.309 95.437 146.399 95.5977 146.56C95.7585 146.721 95.8488 146.939 95.8488 147.166V159.595C95.8488 159.822 95.7585 160.04 95.5977 160.201C95.437 160.362 95.219 160.452 94.9916 160.452H77.2054C76.9781 160.452 76.7601 160.362 76.5993 160.201C76.4386 160.04 76.3483 159.822 76.3483 159.595V147.166C76.3483 146.939 76.4386 146.721 76.5993 146.56C76.7601 146.399 76.9781 146.309 77.2054 146.309Z" fill="#E6E6E6"/>
</svg>
