<svg width="158" height="167" viewBox="0 0 158 167" fill="none" xmlns="http://www.w3.org/2000/svg">
<path d="M150.782 39.8887H149.87V15.0153C149.87 11.1972 148.348 7.53547 145.638 4.83567C142.928 2.13587 139.253 0.619141 135.421 0.619141H82.5326C78.7006 0.619141 75.0255 2.13587 72.3159 4.83567C69.6063 7.53547 68.084 11.1972 68.084 15.0153V151.47C68.084 155.289 69.6063 158.95 72.3159 161.65C75.0255 164.35 78.7006 165.867 82.5326 165.867H135.421C139.253 165.867 142.928 164.35 145.638 161.65C148.348 158.95 149.87 155.289 149.87 151.47V57.5916H150.782V39.8887Z" fill="#090814"/>
<path d="M136.007 4.36536H129.104C129.422 5.14102 129.543 5.9826 129.457 6.81594C129.371 7.64928 129.081 8.4488 128.612 9.14404C128.143 9.83928 127.509 10.4089 126.767 10.8027C126.025 11.1965 125.197 11.4024 124.357 11.4022H94.0553C93.2146 11.4024 92.3866 11.1965 91.6446 10.8027C90.9025 10.4089 90.269 9.83928 89.7999 9.14404C89.3309 8.4488 89.0407 7.64928 88.9549 6.81594C88.869 5.9826 88.9902 5.14102 89.3078 4.36536H82.8614C79.9997 4.36536 77.2552 5.49804 75.2317 7.51423C73.2081 9.53042 72.0713 12.265 72.0713 15.1163V151.372C72.0713 154.223 73.2081 156.958 75.2315 158.974C77.255 160.99 79.9994 162.123 82.861 162.123H136.005C137.422 162.123 138.825 161.845 140.134 161.304C141.443 160.764 142.633 159.972 143.635 158.974C144.637 157.975 145.432 156.79 145.974 155.486C146.516 154.182 146.795 152.784 146.795 151.372V15.1163C146.795 12.2652 145.659 9.53085 143.635 7.51469C141.612 5.49852 138.868 4.36569 136.007 4.36536Z" fill="white"/>
<path d="M121.096 68.4242H56.2626C55.6849 68.4235 55.1311 68.1946 54.7226 67.7876C54.3142 67.3806 54.0844 66.8288 54.0837 66.2533V56.7928C54.0844 56.2172 54.3142 55.6654 54.7226 55.2584C55.1311 54.8514 55.6849 54.6225 56.2626 54.6218H121.096C121.674 54.6225 122.228 54.8514 122.636 55.2584C123.045 55.6654 123.274 56.2172 123.275 56.7928V66.2533C123.275 66.8289 123.045 67.3807 122.636 67.7877C122.228 68.1948 121.674 68.4237 121.096 68.4244V68.4242Z" fill="#D6D6E3"/>
<path d="M114.797 67.0934H57.733C57.1554 67.0927 56.6016 66.8638 56.1931 66.4568C55.7846 66.0498 55.5549 65.498 55.5542 64.9225V58.3914C55.5549 57.8158 55.7846 57.264 56.1931 56.857C56.6016 56.4501 57.1554 56.2211 57.733 56.2205H119.627C120.205 56.2212 120.758 56.4501 121.167 56.8571C121.575 57.2641 121.805 57.8158 121.806 58.3914V60.1103C121.803 61.9616 121.064 63.7365 119.75 65.0456C118.437 66.3547 116.655 67.0911 114.797 67.0934Z" fill="white"/>
<path d="M95.1135 60.8498H69.0554C68.9063 60.8498 68.7633 60.7908 68.6578 60.6857C68.5524 60.5807 68.4932 60.4382 68.4932 60.2896C68.4932 60.1411 68.5524 59.9986 68.6578 59.8936C68.7633 59.7885 68.9063 59.7295 69.0554 59.7295H95.1135C95.2626 59.7295 95.4056 59.7885 95.511 59.8936C95.6165 59.9986 95.6757 60.1411 95.6757 60.2896C95.6757 60.4382 95.6165 60.5807 95.511 60.6857C95.4056 60.7908 95.2626 60.8498 95.1135 60.8498Z" fill="#A5B68D"/>
<path d="M108.304 63.1388H69.0537C68.9046 63.1388 68.7616 63.0797 68.6561 62.9747C68.5507 62.8696 68.4915 62.7272 68.4915 62.5786C68.4915 62.43 68.5507 62.2875 68.6561 62.1825C68.7616 62.0774 68.9046 62.0184 69.0537 62.0184H108.304C108.453 62.0184 108.596 62.0774 108.701 62.1825C108.807 62.2875 108.866 62.43 108.866 62.5786C108.866 62.7272 108.807 62.8696 108.701 62.9747C108.596 63.0797 108.453 63.1388 108.304 63.1388Z" fill="#D6D6E3"/>
<path d="M121.096 88.4974H56.2626C55.6849 88.4968 55.1311 88.2678 54.7226 87.8609C54.3142 87.4539 54.0844 86.9021 54.0837 86.3265V76.866C54.0845 76.2905 54.3142 75.7387 54.7227 75.3317C55.1312 74.9247 55.6849 74.6958 56.2626 74.6951H121.096C121.674 74.6957 122.228 74.9247 122.636 75.3317C123.045 75.7386 123.274 76.2904 123.275 76.866V86.3265C123.274 86.9021 123.045 87.4539 122.636 87.8609C122.228 88.2678 121.674 88.4968 121.096 88.4974Z" fill="#D6D6E3"/>
<path d="M114.797 87.0332H57.733C57.1554 87.0326 56.6016 86.8036 56.1931 86.3966C55.7846 85.9896 55.5549 85.4378 55.5542 84.8623V78.3312C55.5549 77.7557 55.7846 77.2038 56.1931 76.7969C56.6016 76.3899 57.1554 76.1609 57.733 76.1603H119.627C120.205 76.161 120.758 76.3899 121.167 76.7969C121.575 77.2039 121.805 77.7557 121.806 78.3312V80.0501C121.803 81.9014 121.064 83.6763 119.75 84.9854C118.437 86.2945 116.655 87.031 114.797 87.0332Z" fill="white"/>
<path d="M95.1135 80.9231H69.0554C68.9063 80.9231 68.7633 80.864 68.6578 80.759C68.5524 80.6539 68.4932 80.5115 68.4932 80.3629C68.4932 80.2143 68.5524 80.0719 68.6578 79.9668C68.7633 79.8617 68.9063 79.8027 69.0554 79.8027H95.1135C95.2626 79.8027 95.4056 79.8617 95.511 79.9668C95.6165 80.0719 95.6757 80.2143 95.6757 80.3629C95.6757 80.5115 95.6165 80.6539 95.511 80.759C95.4056 80.864 95.2626 80.9231 95.1135 80.9231Z" fill="#A5B68D"/>
<path d="M108.304 83.2121H69.0537C68.9798 83.2121 68.9067 83.1976 68.8385 83.1695C68.7703 83.1413 68.7083 83.1001 68.6561 83.0481C68.6039 82.996 68.5625 82.9343 68.5342 82.8663C68.506 82.7984 68.4915 82.7255 68.4915 82.652C68.4915 82.5784 68.506 82.5056 68.5342 82.4376C68.5625 82.3696 68.6039 82.3079 68.6561 82.2559C68.7083 82.2038 68.7703 82.1626 68.8385 82.1344C68.9067 82.1063 68.9798 82.0918 69.0537 82.0918H108.304C108.378 82.0918 108.451 82.1063 108.519 82.1344C108.587 82.1626 108.649 82.2038 108.701 82.2559C108.754 82.3079 108.795 82.3696 108.823 82.4376C108.851 82.5056 108.866 82.5784 108.866 82.652C108.866 82.7255 108.851 82.7984 108.823 82.8663C108.795 82.9343 108.754 82.996 108.701 83.0481C108.649 83.1001 108.587 83.1413 108.519 83.1695C108.451 83.1976 108.378 83.2121 108.304 83.2121Z" fill="#D6D6E3"/>
<path d="M121.096 108.571H56.2626C55.6849 108.57 55.1311 108.341 54.7226 107.934C54.3142 107.527 54.0844 106.975 54.0837 106.4V96.9394C54.0844 96.3638 54.3142 95.812 54.7226 95.405C55.1311 94.998 55.6849 94.7691 56.2626 94.7684H121.096C121.674 94.7691 122.228 94.9981 122.636 95.4051C123.045 95.8121 123.274 96.3638 123.275 96.9394V106.4C123.274 106.975 123.045 107.527 122.636 107.934C122.228 108.341 121.674 108.57 121.096 108.571Z" fill="#D6D6E3"/>
<path d="M114.797 107.106H57.733C57.1554 107.106 56.6016 106.877 56.1931 106.47C55.7846 106.063 55.5549 105.511 55.5542 104.935V98.4042C55.5549 97.8287 55.7847 97.2769 56.1932 96.8699C56.6016 96.4629 57.1554 96.234 57.733 96.2333H119.627C120.205 96.234 120.758 96.4629 121.167 96.8699C121.575 97.2769 121.805 97.8287 121.806 98.4042V100.123C121.803 101.974 121.064 103.749 119.751 105.058C118.437 106.367 116.655 107.104 114.797 107.106Z" fill="white"/>
<path d="M95.1135 100.996H69.0554C68.9815 100.996 68.9084 100.982 68.8402 100.954C68.772 100.926 68.71 100.884 68.6578 100.832C68.6056 100.78 68.5642 100.719 68.536 100.651C68.5077 100.583 68.4932 100.51 68.4932 100.436C68.4932 100.363 68.5077 100.29 68.536 100.222C68.5642 100.154 68.6056 100.092 68.6578 100.04C68.71 99.9882 68.772 99.9469 68.8402 99.9187C68.9084 99.8906 68.9815 99.8761 69.0554 99.8761H95.1135C95.1873 99.8761 95.2604 99.8906 95.3286 99.9187C95.3968 99.9469 95.4588 99.9882 95.511 100.04C95.5632 100.092 95.6047 100.154 95.6329 100.222C95.6612 100.29 95.6757 100.363 95.6757 100.436C95.6757 100.51 95.6612 100.583 95.6329 100.651C95.6047 100.719 95.5632 100.78 95.511 100.832C95.4588 100.884 95.3968 100.926 95.3286 100.954C95.2604 100.982 95.1873 100.996 95.1135 100.996Z" fill="#A5B68D"/>
<path d="M108.304 103.285H69.0537C68.9046 103.285 68.7616 103.226 68.6561 103.121C68.5507 103.016 68.4915 102.874 68.4915 102.725C68.4915 102.577 68.5507 102.434 68.6561 102.329C68.7616 102.224 68.9046 102.165 69.0537 102.165H108.304C108.453 102.165 108.596 102.224 108.701 102.329C108.807 102.434 108.866 102.577 108.866 102.725C108.866 102.874 108.807 103.016 108.701 103.121C108.596 103.226 108.453 103.285 108.304 103.285Z" fill="#D6D6E3"/>
<path d="M118.045 37.7567H100.823C100.611 37.7567 100.405 37.6868 100.237 37.558C100.069 37.4291 99.9492 37.2485 99.8952 37.0444C99.8412 36.8403 99.8566 36.6241 99.9389 36.4296C100.021 36.2351 100.166 36.0732 100.35 35.9692C101.101 35.5455 101.507 34.7742 101.666 33.4686L102.022 30.2607C102.094 28.8304 102.532 27.4422 103.294 26.2276C104.055 25.0131 105.116 24.0125 106.374 23.3207C106.641 21.7508 107.887 20.1672 109.442 20.1672C111.096 20.1672 112.227 21.8651 112.488 23.3172C113.755 24.0159 114.821 25.0266 115.585 26.2528C116.349 27.4789 116.785 28.8797 116.85 30.3213L117.204 33.4779C117.362 34.7746 117.767 35.5457 118.518 35.9692C118.702 36.0732 118.847 36.2351 118.929 36.4296C119.011 36.6241 119.027 36.8403 118.973 37.0444C118.919 37.2485 118.798 37.4291 118.631 37.558C118.463 37.6868 118.257 37.7567 118.045 37.7567ZM102.973 35.8449H115.895C115.576 35.1679 115.374 34.4421 115.299 33.6982L114.939 30.4715C114.892 29.2733 114.516 28.1109 113.853 27.1103C113.19 26.1097 112.264 25.309 111.177 24.7952C111.012 24.7178 110.874 24.5955 110.776 24.4425C110.679 24.2895 110.627 24.1122 110.627 23.9311C110.627 23.1353 109.952 22.0799 109.443 22.0799C108.93 22.0799 108.25 23.1207 108.241 23.9147C108.244 24.1019 108.192 24.2859 108.091 24.444C107.99 24.602 107.845 24.727 107.673 24.8037C106.598 25.3126 105.682 26.1033 105.024 27.091C104.365 28.0788 103.988 29.2264 103.934 30.4111L103.571 33.6891C103.495 34.4362 103.293 35.165 102.973 35.8449Z" fill="#FB8F5B"/>
<path d="M109.434 42.0464C108.323 42.0452 107.259 41.6051 106.474 40.8227C105.688 40.0404 105.247 38.9796 105.245 37.8732V36.8006C105.245 36.5471 105.346 36.304 105.526 36.1247C105.706 35.9454 105.95 35.8447 106.205 35.8447C106.459 35.8447 106.703 35.9454 106.883 36.1247C107.063 36.304 107.164 36.5471 107.164 36.8006V37.873C107.164 38.17 107.223 38.4641 107.337 38.7384C107.451 39.0128 107.618 39.2621 107.829 39.4721C108.04 39.6821 108.29 39.8486 108.565 39.9623C108.841 40.0759 109.136 40.1344 109.434 40.1344C109.732 40.1344 110.027 40.0759 110.302 39.9623C110.578 39.8486 110.828 39.6821 111.039 39.4721C111.249 39.2621 111.417 39.0128 111.531 38.7384C111.645 38.4641 111.703 38.17 111.703 37.873V36.8006C111.703 36.5471 111.804 36.304 111.984 36.1247C112.164 35.9454 112.408 35.8447 112.663 35.8447C112.917 35.8447 113.161 35.9454 113.341 36.1247C113.521 36.304 113.622 36.5471 113.622 36.8006V37.873C113.621 38.9795 113.179 40.0403 112.394 40.8227C111.609 41.6051 110.544 42.0452 109.434 42.0464Z" fill="#FB8F5B"/>
<path d="M96.7465 140.145H94.5721C94.4644 140.145 94.3611 140.103 94.2849 140.027C94.2088 139.951 94.166 139.848 94.166 139.741C94.166 139.634 94.2088 139.531 94.2849 139.455C94.3611 139.379 94.4644 139.336 94.5721 139.336H96.7465C96.7999 139.336 96.8526 139.347 96.9019 139.367C96.9512 139.387 96.9959 139.417 97.0336 139.455C97.0713 139.492 97.1013 139.537 97.1217 139.586C97.1421 139.635 97.1526 139.688 97.1526 139.741C97.1526 139.794 97.1421 139.847 97.1217 139.896C97.1013 139.945 97.0713 139.989 97.0336 140.027C96.9959 140.064 96.9512 140.094 96.9019 140.115C96.8526 140.135 96.7999 140.145 96.7465 140.145Z" fill="white"/>
<path d="M94.8993 123.237C95.7978 123.109 99.0955 126.185 95.6019 130.518C92.6304 128.589 93.6188 123.42 94.8993 123.237Z" fill="#A5B68D"/>
<path d="M94.548 136.538C94.5737 136.501 94.3876 136.402 95.1101 135.838C96.3419 134.877 99.2425 134.087 100.871 134.088C98.7796 133.694 96.8938 134.644 95.1101 135.558C95.7806 130.868 102.247 132.666 101.715 134.368C101.652 134.567 98.2643 136.195 97.9908 136.258C95.9596 136.724 95.5254 135.782 94.548 136.538Z" fill="#A5B68D"/>
<path d="M97.7798 145.639C97.8161 145.596 97.8444 145.403 98.4824 144.799C99.8722 143.482 102.508 142.452 104.314 143.539C105.7 144.373 102.493 146.229 101.925 146.339C100.802 146.556 98.821 146.202 97.7798 145.639Z" fill="#A5B68D"/>
<path d="M101.996 140.318C101.94 140.372 101.758 140.135 101.714 140.599C100.356 141.725 99.6032 138.766 100.309 136.748C101.634 132.963 104.287 137.84 101.996 140.318Z" fill="#A5B68D"/>
<path d="M105.228 138.078L110.989 137.448C107.951 137.314 104.42 138.184 106.071 136.958C107.811 135.666 113.637 136.269 110.076 138.638C108.264 139.843 106.84 139.189 105.228 138.078Z" fill="#A5B68D"/>
<path d="M96.2339 131.358C95.3659 132.712 94.8989 134.966 94.2666 136.468L94.5476 136.538C93.6872 137.771 93.0922 140.134 92.8614 141.649L95.6016 148.159C97.3406 145.976 99.3676 142.684 101.574 141.018C101.599 141.166 101.52 141.335 101.433 141.438C100.482 142.577 99.2194 143.475 98.4823 144.799C97.8443 145.403 97.816 145.596 97.7797 145.639C97.5273 145.934 95.8424 148.204 95.8124 148.369C95.7648 148.631 96.7155 151.542 97.077 151.659C96.8802 151.84 96.7415 151.822 96.796 152.079C95.7002 148.64 92.2032 140.202 90.613 136.538C90.7033 136.548 90.8216 136.518 90.8941 136.538L92.6506 140.878C93.0865 139.36 93.5811 138.953 92.8614 138.078H93.0019C93.7197 138.984 94.2074 135.06 96.0934 131.358L96.2339 131.358Z" fill="#A5B68D"/>
<path d="M106.071 136.958C104.42 138.184 107.951 137.314 110.989 137.448L105.228 138.078C105.155 138.028 105.038 137.961 104.947 137.938C105.287 137.597 105.615 137.186 105.93 136.818C105.969 136.8 106.035 136.837 106.071 136.818V136.958Z" fill="white"/>
<path d="M105.93 136.818C105.615 137.186 105.287 137.597 104.946 137.938C104.022 138.865 102.929 139.685 102.136 140.738C102.117 140.75 101.916 140.735 101.714 140.878C101.718 140.786 101.706 140.69 101.714 140.598C101.843 140.492 101.888 140.435 101.996 140.318C103.209 139.152 104.548 138.1 105.649 136.818C105.723 136.793 105.877 136.843 105.93 136.818Z" fill="#A5B68D"/>
<path d="M95.1101 135.838V135.558C96.8938 134.644 98.7796 133.694 100.872 134.088C99.2425 134.087 96.3419 134.876 95.1101 135.838Z" fill="white"/>
<path d="M92.8613 138.078C93.581 138.953 93.0865 139.36 92.6506 140.878L90.894 136.538C91.0145 136.572 92.782 137.982 92.8613 138.078Z" fill="white"/>
<path d="M96.2343 131.358H96.0938C97.4742 128.648 99.3931 126.244 100.871 123.587C102.582 121.643 106.252 118.852 108.952 119.737C110.755 120.328 109.424 122.006 108.53 122.817C105.329 125.72 99.1601 124.92 97.7098 129.258C100.172 126.35 103.73 128.433 103.822 129.328C103.973 130.789 99.2601 132.928 97.0071 130.378C96.682 130.65 96.4577 131.009 96.2343 131.358Z" fill="#A5B68D"/>
<path d="M100.098 128.837C102.998 128.467 105.051 129.189 99.8173 129.117L97.569 130.098L97.4285 129.818C98.2729 129.477 99.1816 128.955 100.098 128.837Z" fill="white"/>
<path d="M107.476 135.278C107.725 134.881 108.665 131.535 111.762 131.218C116.83 130.698 112.482 135.159 110.778 135.418C109.544 135.605 108.373 134.916 107.476 135.278Z" fill="#A5B68D"/>
<path d="M113.308 131.918L113.659 131.988C106.761 135.543 105.511 135.72 113.308 131.918Z" fill="white"/>
<path d="M97.2881 138.918C98.4021 138.669 100.325 142.427 97.2881 145.639C94.5101 143.255 96.328 139.133 97.2881 138.918Z" fill="#A5B68D"/>
<path d="M97.4286 139.338C97.8713 141.054 97.5486 143.333 97.2881 145.079L97.4286 139.338Z" fill="white"/>
<path d="M107.476 135.278C107.142 135.81 106.625 136.517 106.071 136.818C106.035 136.837 105.969 136.8 105.93 136.818C105.877 136.843 105.723 136.793 105.649 136.818C105.144 136.988 105.04 137.298 104.876 137.238C102.367 133.877 106.068 128.942 107.054 132.968C107.572 135.081 106.069 136.529 107.476 135.278Z" fill="#A5B68D"/>
<path d="M105.72 132.058L105.79 134.088C105.004 139.53 105.314 134.51 105.72 132.058Z" fill="white"/>
<path d="M101.995 140.318C101.888 140.435 101.843 140.492 101.714 140.598C101.758 140.135 101.94 140.372 101.995 140.318Z" fill="white"/>
<path d="M101.434 141.438C101.52 141.335 101.6 141.166 101.574 141.018C101.582 141.012 101.566 140.984 101.715 140.878C101.916 140.735 102.117 140.75 102.136 140.738C106.278 138.115 108.708 139.753 106.703 141.298C105.207 142.452 103.006 142.423 101.434 141.438Z" fill="#A5B68D"/>
<path d="M107.265 140.178C107.378 140.225 107.378 140.41 107.265 140.458C106.025 140.983 96.7528 141.531 107.265 140.178Z" fill="white"/>
<path d="M101.433 162.58L101.152 162.51C101.301 162.307 101.422 162.313 101.433 162.3C101.414 162.336 101.444 162.473 101.433 162.58Z" fill="white"/>
<path d="M100.731 162.79C100.702 162.902 100.701 163.214 100.801 163.28C100.89 163.162 101.391 162.6 101.433 162.58C102.048 162.292 103.983 162.014 104.736 162.02C105.159 162.023 109.457 162.712 109.443 163.07C107.841 164.751 102.457 165.243 100.59 164.12C102.608 163.256 104.945 163.718 107.054 163.07L100.169 163.77" fill="#A5B68D"/>
<path d="M101.433 162.3C101.422 162.313 101.301 162.307 101.152 162.51L101.433 162.58C101.391 162.6 100.89 163.162 100.801 163.28C100.701 163.214 100.702 162.902 100.731 162.79" fill="#555758"/>
<path d="M100.309 164.4V164.05C100.399 163.883 100.481 164.167 100.59 164.12C102.457 165.243 107.841 164.751 109.443 163.07C109.458 162.712 105.159 162.023 104.736 162.02C103.983 162.015 102.048 162.292 101.434 162.58C101.444 162.473 101.415 162.336 101.434 162.3C101.762 161.937 102.253 161.653 102.558 161.25C102.677 158.279 106.057 155.677 108.67 154.74C113.126 153.142 112.49 155.669 110.427 158.31C107.214 162.422 101.445 160.998 101.855 162.23C104.508 161.447 107.304 162.022 109.865 162.93C107.929 165.267 102.961 165.149 100.309 164.4Z" fill="#A5B68D"/>
<path d="M110.216 154.46C112.281 154.201 112.095 155.184 110.848 157.33C109.736 159.243 107.074 160.956 104.876 161.18C101.599 161.514 105.552 160.322 107.827 158.66C111.222 155.767 103.846 160.946 103.19 161.18C101.973 161.614 103.551 158.481 104.876 157.26C105.73 156.473 109.154 154.592 110.216 154.46Z" fill="#A5B68D"/>
<path d="M39.5507 116.323C38.5029 116.173 34.6577 119.76 38.7314 124.812C42.1963 122.564 41.0437 116.537 39.5507 116.323Z" fill="#A5B68D"/>
<path d="M39.9604 131.832C39.9305 131.79 40.1475 131.674 39.305 131.016C37.8687 129.895 34.4865 128.974 32.587 128.975C35.0263 128.516 37.2252 129.623 39.305 130.69C38.5232 125.22 30.983 127.317 31.6039 129.302C31.6764 129.534 35.6271 131.433 35.946 131.506C38.3145 132.049 38.8207 130.95 39.9604 131.832Z" fill="#A5B68D"/>
<path d="M36.1917 142.444C36.1494 142.394 36.1164 142.169 35.3725 141.464C33.7519 139.929 30.6784 138.728 28.5726 139.995C26.9562 140.968 30.6963 143.132 31.3581 143.26C32.6681 143.514 34.9776 143.1 36.1917 142.444Z" fill="#A5B68D"/>
<path d="M31.2762 136.24C31.3413 136.303 31.5535 136.026 31.6039 136.567C33.1884 137.881 34.0657 134.43 33.2424 132.077C31.6977 127.663 28.604 133.35 31.2762 136.24Z" fill="#A5B68D"/>
<path d="M27.5079 133.628L20.7899 132.894C24.3321 132.737 28.4493 133.752 26.5248 132.322C24.496 130.815 17.7017 131.519 21.855 134.281C23.9672 135.686 25.6278 134.923 27.5079 133.628Z" fill="#A5B68D"/>
<path d="M37.9945 125.792C39.0066 127.371 39.5512 129.999 40.2885 131.751L39.9608 131.832C40.964 133.27 41.6578 136.025 41.927 137.791L38.7319 145.383C36.7041 142.837 34.3405 138.999 31.7681 137.057C31.7383 137.229 31.8309 137.425 31.932 137.546C33.0411 138.874 34.5133 139.922 35.3729 141.465C36.1168 142.169 36.1498 142.395 36.1921 142.444C36.4864 142.789 38.451 145.435 38.4861 145.628C38.5415 145.933 37.433 149.328 37.0114 149.464C37.2409 149.674 37.4027 149.654 37.3391 149.954C38.6169 145.943 42.6945 136.105 44.5486 131.832C44.4434 131.844 44.3054 131.809 44.2209 131.832L42.1728 136.893C41.6645 135.123 41.0878 134.648 41.927 133.628H41.7631C40.9262 134.684 40.3575 130.109 38.1584 125.792L37.9945 125.792Z" fill="#A5B68D"/>
<path d="M26.5246 132.322C28.4492 133.752 24.332 132.737 20.7898 132.894L27.5078 133.628C27.5928 133.57 27.7293 133.491 27.8355 133.465C27.4386 133.067 27.0554 132.588 26.6885 132.159C26.6432 132.138 26.566 132.181 26.5246 132.159V132.322Z" fill="white"/>
<path d="M26.6885 132.159C27.0554 132.588 27.4386 133.067 27.8354 133.465C28.9138 134.545 30.1881 135.502 31.1125 136.73C31.1344 136.744 31.3691 136.727 31.6041 136.893C31.5994 136.786 31.614 136.673 31.6041 136.567C31.4538 136.442 31.4021 136.376 31.2764 136.24C29.861 134.88 28.3004 133.654 27.0162 132.159C26.9303 132.13 26.7507 132.188 26.6885 132.159Z" fill="#A5B68D"/>
<path d="M39.3051 131.016V130.69C37.2253 129.623 35.0264 128.516 32.5872 128.975C34.4866 128.974 37.8688 129.895 39.3051 131.016Z" fill="white"/>
<path d="M41.9267 133.628C41.0875 134.648 41.6641 135.123 42.1724 136.893L44.2206 131.832C44.0802 131.872 42.0192 133.516 41.9267 133.628Z" fill="white"/>
<path d="M37.9942 125.792H38.1581C36.5485 122.632 34.3109 119.829 32.5871 116.731C30.5929 114.464 26.3137 111.21 23.1655 112.242C21.0629 112.93 22.6141 114.887 23.6571 115.833C27.39 119.218 34.5827 118.285 36.2738 123.343C33.4026 119.953 29.2536 122.382 29.1462 123.425C28.9706 125.129 34.466 127.623 37.093 124.649C37.4722 124.966 37.7337 125.386 37.9942 125.792Z" fill="#A5B68D"/>
<path d="M33.4882 122.853C30.1074 122.421 27.7133 123.263 33.8159 123.18L36.4376 124.323L36.6014 123.996C35.6167 123.599 34.5573 122.99 33.4882 122.853Z" fill="white"/>
<path d="M24.8861 130.363C24.5956 129.9 23.4994 125.999 19.8886 125.629C13.979 125.023 19.0491 130.225 21.0356 130.526C22.4749 130.745 23.8403 129.941 24.8861 130.363Z" fill="#A5B68D"/>
<path d="M18.0861 126.445L17.6765 126.527C25.7201 130.672 27.1766 130.879 18.0861 126.445Z" fill="white"/>
<path d="M36.7655 134.608C35.4665 134.318 33.2243 138.699 36.7655 142.444C40.0047 139.665 37.8849 134.858 36.7655 134.608Z" fill="#A5B68D"/>
<path d="M36.6017 135.098C36.0855 137.098 36.4618 139.755 36.7656 141.791L36.6017 135.098Z" fill="white"/>
<path d="M24.886 130.363C25.2756 130.984 25.8786 131.808 26.5245 132.159C26.5659 132.181 26.6431 132.138 26.6884 132.159C26.7506 132.188 26.9302 132.13 27.0161 132.159C27.6054 132.356 27.7263 132.718 27.9173 132.649C30.8427 128.729 26.5278 122.975 25.3775 127.669C24.7738 130.134 26.5266 131.822 24.886 130.363Z" fill="#A5B68D"/>
<path d="M26.934 126.608L26.8521 128.976C27.7688 135.321 27.4066 129.468 26.934 126.608Z" fill="white"/>
<path d="M31.2761 136.24C31.4019 136.376 31.4535 136.442 31.6038 136.567C31.5534 136.027 31.3413 136.303 31.2761 136.24Z" fill="white"/>
<path d="M31.9314 137.546C31.8304 137.425 31.7378 137.229 31.7676 137.057C31.7584 137.05 31.7769 137.016 31.6037 136.893C31.3688 136.727 31.134 136.744 31.1122 136.73C26.2823 133.672 23.4497 135.581 25.787 137.383C27.5314 138.729 30.098 138.694 31.9314 137.546Z" fill="#A5B68D"/>
<path d="M25.1318 136.077C25.0003 136.132 24.9997 136.348 25.1318 136.404C26.5778 137.016 37.3894 137.654 25.1318 136.077Z" fill="white"/>
<path d="M31.9319 162.198L32.2596 162.117C32.0858 161.88 31.9456 161.887 31.9319 161.872C31.954 161.913 31.9197 162.073 31.9319 162.198Z" fill="white"/>
<path d="M32.7507 162.443C32.7838 162.574 32.7856 162.937 32.6688 163.015C32.5655 162.876 31.9813 162.222 31.9314 162.198C31.2147 161.863 28.9582 161.539 28.0809 161.545C27.5879 161.549 22.5752 162.351 22.5918 162.77C24.4597 164.729 30.7378 165.303 32.9146 163.994C30.5622 162.987 27.8363 163.525 25.3773 162.77L33.4061 163.586" fill="#A5B68D"/>
<path d="M31.9316 161.872C31.9454 161.887 32.0855 161.88 32.2593 162.117L31.9316 162.198C31.9815 162.222 32.5657 162.876 32.669 163.015C32.7858 162.937 32.7839 162.574 32.7509 162.443" fill="#555758"/>
<path d="M33.2425 164.321V163.912C33.1375 163.717 33.0421 164.049 32.9148 163.994C30.7381 165.303 24.46 164.729 22.5921 162.77C22.5755 162.351 27.5881 161.549 28.0812 161.545C28.9585 161.539 31.2149 161.863 31.9317 162.198C31.9195 162.073 31.9538 161.913 31.9317 161.872C31.5483 161.448 30.9759 161.117 30.6209 160.647C30.4823 157.182 26.5409 154.149 23.4933 153.056C18.2978 151.193 19.039 154.139 21.4451 157.219C25.1914 162.014 31.9186 160.354 31.4402 161.79C28.347 160.877 25.086 161.547 22.1006 162.606C24.3583 165.331 30.1502 165.193 33.2425 164.321Z" fill="#A5B68D"/>
<path d="M21.691 152.729C19.283 152.428 19.4996 153.574 20.9537 156.076C22.2502 158.307 25.3541 160.304 27.9174 160.566C31.7383 160.955 27.1299 159.565 24.4765 157.627C20.5174 154.254 29.118 160.292 29.8836 160.566C31.3023 161.072 29.4625 157.418 27.9174 155.994C26.9215 155.077 22.9294 152.884 21.691 152.729Z" fill="#A5B68D"/>
<path d="M51.2616 104.709C49.269 96.6292 54.2272 88.47 62.3361 86.4846C70.445 84.4992 78.6339 89.4394 80.6265 97.5188C82.2426 104.071 79.2863 110.675 73.786 113.997L75.5571 133.382L58.1245 124.911C58.1245 124.911 60.2719 120.178 60.845 115.295C56.2368 113.645 52.5177 109.802 51.2616 104.709Z" fill="#FFB6B6"/>
<path d="M74.2203 119.291C74.2203 119.291 67.9016 130.348 58.2688 119.938L40.3896 145.123L48.9264 165.599L87.9391 166.183L86.2349 142.288L74.2203 119.291Z" fill="#FFE3D6"/>
<path d="M58.8032 122.36L60.6247 119.291C60.6247 119.291 38.5325 122.975 38.5254 129.01L28.5656 159.812C28.0393 161.44 30.3893 163.224 31.6288 164.406C32.4486 165.188 33.5357 165.631 34.6705 165.646L43.3734 165.757L43.5842 155.963L49.6711 137.358L58.8032 122.36Z" fill="#FFE3D6"/>
<path d="M73.5781 121.683L74.1126 119.262C74.1126 119.262 93.8488 122.298 93.8559 128.334L103.816 159.136C104.342 160.763 101.992 162.547 100.752 163.73C99.9327 164.512 98.8457 164.955 97.7108 164.969L89.0079 165.08L88.7972 155.286L82.7103 136.681L73.5781 121.683Z" fill="#FFE3D6"/>
<path d="M75.4345 119.538C75.3818 119.518 75.3171 119.501 75.2388 119.485C73.3611 119.105 73.1551 119.417 72.7094 115.705C72.6378 115.108 72.5813 114.467 72.4283 113.884C74.0736 112.293 76.2758 108.972 77.2061 106.814C77.4518 106.619 78.2915 106.1 78.3303 106.044C78.3303 106.044 78.3303 106.06 78.4708 105.904C80.7236 102.267 80.1599 98.8786 77.6979 101.843C73.6489 97.565 66.46 97.1923 63.0836 92.7427C60.2401 93.624 58.1278 96.8094 57.252 99.5332C56.129 103.026 56.9709 106.814 56.9709 106.814C57.6012 108.778 60.6293 113.044 62.0297 114.304C62.3483 115.736 62.1794 117.015 61.8892 118.365C61.7624 118.955 61.1644 119.754 61.1866 119.975L53.3174 118.995C53.203 118.722 50.7925 118.354 49.3827 114.794C46.1945 106.743 49.8167 84.6808 61.6784 84.762C64.9497 80.3666 71.9455 81.7299 75.7306 84.762C83.1885 90.7363 88.1307 110.471 82.6864 116.615C80.4866 119.097 76.6918 119.113 76.0061 119.517L75.4345 119.538Z" fill="#1D1D1D"/>
<path d="M78.4711 105.904C79.0815 105.972 79.6675 106.999 79.5953 107.654C79.4508 108.964 77.261 108.97 77.4873 107.934C77.5513 107.642 78.6508 107.363 78.3306 105.904" fill="white"/>
<path d="M70.394 139.808C70.012 140.587 69.5743 141.307 69.4486 142.191C71.464 141.506 74.0357 142.252 73.0172 142.84C72.8211 142.953 70.8542 142.53 70.3941 143.377C74.2168 143.264 75.8192 142.085 71.6996 145.329C69.8441 145.845 68.7439 144.329 68.4861 144.368C67.6488 144.494 65.8619 151.082 66.4093 150.973C68.0391 147.587 64.7582 155.747 65.8241 157.692C66.1619 158.308 66.3131 155.724 66.696 156.973C66.7427 157.126 66.3695 158.192 66.2649 158.411C66.2392 158.466 66.0046 158.14 65.6526 159.197C65.3689 158.068 65.3965 156.885 65.2803 155.733C65.5647 154.507 66.0504 150.655 65.7063 149.647C64.8234 147.059 63.1663 149.467 63.0096 144.71C66.3148 145.884 65.7899 149.666 66.2084 149.574C66.3841 146.536 68.2218 144.073 68.224 143.762C68.2286 143.132 67.1282 141.461 67.6729 143.755C65.5726 142.879 65.7047 141.215 65.1893 139.344C67.0074 139.631 68.5031 140.903 68.6085 142.783C69.1085 141.926 70.7471 138.474 69.8502 137.849C69.5987 137.674 68.4336 139.699 65.3949 134.682C68.0522 134.147 70.739 135.09 70.4674 138.143C72.831 136.239 71.1112 137.05 71.0454 136.944C70.8715 136.666 72.3903 135.44 69.6884 130.803C70.4847 135.043 63.5826 128.848 68.8434 130.316C69.7404 125.887 69.5484 129.413 69.9137 130.457C70.1092 131.016 71.698 134.947 71.9443 135.02C72.04 135.049 72.9156 133.836 73.4995 134.882C74.128 136.007 71.4776 137.691 72.5713 137.472C74.5001 137.085 73.4853 132.351 74.8441 131.187C76.9646 129.37 74.6864 132.096 76.1129 132.187C71.9115 134.392 76.6279 137.151 70.6315 138.589C70.4691 138.93 70.4213 139.752 70.394 139.808Z" fill="#FB8F5B"/>
<path d="M63.4692 138.546C63.4778 139.414 63.4097 140.253 63.6941 141.099C65.1888 139.588 67.8239 139.109 67.1769 140.089C67.0522 140.277 65.1035 140.776 65.0722 141.739C68.44 139.933 69.3438 138.165 67.1164 142.903C65.6885 144.191 64.024 143.326 63.8108 143.475C63.1185 143.961 64.4788 150.65 64.9194 150.308C64.8565 146.553 65.5868 155.314 67.4132 156.578C67.9921 156.979 66.9668 154.6 67.8703 155.547C67.9807 155.662 68.1255 156.782 68.1307 157.025C68.1319 157.085 67.7761 156.899 67.9357 158C67.1749 157.117 66.6687 156.047 66.0475 155.069C65.7513 153.846 64.456 150.184 63.6953 149.436C61.7435 147.515 61.3429 150.407 59.0666 146.223C62.5496 145.799 63.7786 149.415 64.1116 149.147C62.9047 146.352 63.4418 143.329 63.3042 143.05C63.0253 142.484 61.2913 141.481 62.8082 143.289C60.5364 143.442 59.9075 141.896 58.6064 140.452C60.3612 139.898 62.2701 140.369 63.2086 142.003C63.2708 141.014 63.186 137.196 62.1035 137.037C61.7999 136.993 61.6673 139.323 56.697 136.191C58.8332 134.528 61.6593 134.173 62.7873 137.025C64.0462 134.268 62.8721 135.76 62.7661 135.695C62.4858 135.524 63.2932 133.75 58.7947 130.808C61.411 134.245 52.4561 131.781 57.8204 130.749C56.6335 126.388 58.0453 129.627 58.8408 130.398C59.2664 130.81 62.4528 133.618 62.706 133.574C62.8044 133.557 63.0429 132.082 64.0347 132.757C65.102 133.483 63.488 136.171 64.3676 135.487C65.9187 134.281 62.8854 130.5 63.5779 128.853C64.6585 126.283 63.8452 129.736 65.1616 129.181C62.3944 133.026 67.8513 133.391 63.1345 137.351C63.1424 137.728 63.4686 138.484 63.4692 138.546Z" fill="#FB8F5B"/>
<path d="M74.093 145.451C73.5934 145.958 72.531 146.214 71.8564 146.439C69.9862 148.069 70.5845 155.718 71.1657 158.148C70.7265 158.129 70.6802 157.977 70.6532 157.978L70.2585 155.664L70.3117 158.148C70.1096 158.206 70.0839 158.178 70.0727 158.183C70.0176 157.159 69.8256 156.345 69.8995 155.29C69.9442 154.651 70.3478 154.879 70.3602 154.677C70.3774 154.395 70.1718 152.803 70.255 151.41C70.3167 150.378 70.874 147.256 70.7978 146.712C70.604 145.331 67.9038 142.774 70.4872 142.867C70.3503 141.933 71.1926 140.477 71.6287 139.36C71.8111 138.893 72.654 137.66 72.6005 137.215C72.5173 136.525 71.9818 136.886 71.763 136.484C71.4382 135.888 72.0979 133.194 72.7852 133.42C73.1915 133.554 72.3236 135.334 74.8346 133.249C74.3711 136.609 75.5473 134.79 75.9977 135.392C76.8626 136.547 72.7976 135.775 71.4758 140.416C70.9419 142.29 71.6851 143.722 73.3727 141.724C74.2305 143.309 73.1766 144.228 73.4091 144.515C73.5845 144.732 75.6941 143.825 74.093 145.451Z" fill="#A5B68D"/>
<path d="M69.836 141.871C69.5475 142.756 68.4517 143.674 67.7931 144.332C66.5554 147.331 71.7402 155.951 73.8457 158.462C73.3199 158.696 73.1764 158.544 73.1453 158.561L71.3262 156.077L72.8448 158.959C72.6418 159.145 72.5952 159.127 72.5846 159.139C71.9198 157.97 71.2177 157.128 70.686 155.848C70.3643 155.073 70.9708 155.105 70.8669 154.861C70.7217 154.52 69.5479 152.774 68.8286 151.091C68.2961 149.845 67.1199 145.861 66.7119 145.268C65.6748 143.761 61.0104 142.334 64.0938 140.94C63.386 139.924 63.5202 137.727 63.377 136.164C63.3171 135.51 63.5825 133.573 63.2592 133.084C62.7571 132.323 62.341 133.058 61.8488 132.714C61.1184 132.203 60.3131 128.661 61.2516 128.526C61.8063 128.447 61.8316 131.038 63.5538 127.132C64.9798 131.342 65.2929 128.525 66.1737 128.969C67.865 129.82 62.6462 131.28 63.8162 137.49C64.2888 139.999 65.9995 141.245 66.8074 137.921C68.7419 139.28 68.0446 140.97 68.4858 141.172C68.8186 141.324 70.7605 139.033 69.836 141.871Z" fill="#A5B68D"/>
<path d="M59.5781 139.616C59.9896 140.582 60.3041 141.55 61.0068 142.369C61.9382 140.015 64.593 138.307 64.3404 139.69C64.2918 139.956 62.3956 141.38 62.8076 142.47C65.6473 138.954 65.8143 136.575 65.5787 142.861C64.6168 144.935 62.3988 144.709 62.2354 144.971C61.7049 145.822 66.2898 152.69 66.6123 152.112C64.8035 147.945 69.6611 157.408 72.2408 158.008C73.0585 158.198 70.8365 155.996 72.2618 156.652C72.4358 156.732 73.1127 157.919 73.2312 158.188C73.2603 158.254 72.7855 158.205 73.4704 159.365C72.2304 158.716 71.182 157.746 70.0505 156.93C69.1601 155.695 66.0491 152.18 64.8718 151.682C61.8506 150.405 62.7538 153.814 58.3296 150.152C61.9355 148.129 64.9533 151.623 65.1923 151.174C62.5794 148.588 61.7648 144.972 61.4853 144.722C60.9187 144.214 58.5607 143.865 61.0547 145.21C58.6455 146.392 57.2422 144.943 55.1526 143.909C56.8117 142.51 59.1137 142.186 60.8958 143.595C60.505 142.461 58.643 138.233 57.3878 138.538C57.0358 138.623 57.971 141.286 51.0935 139.999C52.6548 137.19 55.5754 135.536 58.1284 138.22C58.2252 134.58 57.6348 136.769 57.4892 136.744C57.1038 136.677 57.1631 134.336 50.8886 133.05C55.3376 135.726 44.4198 136.958 49.7977 133.418C46.4805 129.074 49.5232 132.065 50.7488 132.572C51.4045 132.843 56.1844 134.562 56.4404 134.4C56.5399 134.337 56.1166 132.583 57.512 132.896C59.0138 133.232 58.4974 136.953 59.1407 135.798C60.2752 133.76 55.2112 130.885 55.2039 128.737C55.1926 125.385 55.9053 129.605 57.0852 128.4C55.8463 133.927 61.9727 131.906 58.6585 138.429C58.8422 138.848 59.5487 139.547 59.5781 139.616Z" fill="#A5B68D"/>
<path d="M65.7549 155.236C63.9679 155.279 62.2173 155.748 60.6491 156.603L41.9702 156.134L42.0048 164.998L60.9495 164.519C62.5776 165.254 64.3586 165.59 66.1437 165.499C70.616 165.33 74.1499 162.896 74.0419 160.063C73.934 157.23 70.2232 155.071 65.7537 155.237L65.7549 155.236Z" fill="#FFB6B6"/>
<path d="M72.0572 146.081C73.6994 146.785 75.1488 147.869 76.2848 149.244L92.8747 158.039L90.4494 163.954L73.0467 156.48C71.261 156.558 69.4825 156.208 67.86 155.461C63.7725 153.645 61.4028 150.075 62.562 147.486C63.7212 144.897 67.9722 144.27 72.0578 146.083L72.0572 146.081Z" fill="#FFB6B6"/>
<path d="M35.0146 155.203L43.5842 155.963L61.2571 156.149L59.5334 165.483L35.9632 165.599L35.0146 155.203Z" fill="#FFE3D6"/>
<path d="M95.5551 160.229L93.806 156.768L78.3955 149.353L75.2473 157.888L89.4596 165.556L95.5551 160.229Z" fill="#FFE3D6"/>
<path d="M0.116789 166.243C0.108837 166.334 0.137299 166.425 0.196002 166.495C0.254705 166.566 0.338917 166.61 0.430374 166.619H156.801C156.89 166.603 156.969 166.556 157.027 166.488C157.084 166.419 157.115 166.332 157.115 166.243C157.115 166.153 157.084 166.067 157.027 165.998C156.969 165.929 156.89 165.883 156.801 165.866H0.430374C0.338917 165.875 0.254705 165.92 0.196002 165.99C0.137299 166.061 0.108837 166.152 0.116789 166.243Z" fill="#F2F2F2"/>
</svg>
