<svg width="149" height="164" viewBox="0 0 149 164" fill="none" xmlns="http://www.w3.org/2000/svg">
<path d="M123.752 95.7754L125.689 103.436L112.312 103.271L113.843 96.2713L123.752 95.7754Z" fill="#E28F8F"/>
<path d="M126.227 121.949L129.131 134.665L134.477 160.123L131.999 160.619L114.972 122.676L126.227 121.949Z" fill="#E28F8F"/>
<path d="M120.635 124.846L115.27 136.733L107.391 160.618L104.088 159.792L111.229 118.619L120.635 124.846Z" fill="#E28F8F"/>
<path d="M124.938 100.32C124.938 100.32 130.91 111.501 129.821 123.852C129.821 123.852 121.016 130.94 106.871 124.379L112.694 99.677L124.938 100.32Z" fill="#090814"/>
<path d="M134.89 163.158C135.016 163.068 135.122 162.953 135.201 162.82C135.279 162.686 135.329 162.538 135.346 162.384C135.367 162.063 135.209 161.719 134.876 161.361C134.868 161.258 134.764 159.982 134.534 159.753C134.554 159.685 134.67 159.232 134.478 158.938C134.429 158.867 134.364 158.808 134.289 158.767C134.213 158.725 134.129 158.701 134.043 158.698H134.035L134.031 158.705C134.025 158.715 133.464 159.702 132.62 159.789C132.136 159.839 131.652 159.586 131.18 159.039C131.164 158.999 131.03 158.332 130.944 157.891L130.941 157.873L126.343 160.321L123.655 161.074C123.501 161.119 123.364 161.209 123.262 161.333C123.16 161.457 123.098 161.609 123.084 161.769C123.07 161.929 123.104 162.089 123.183 162.229C123.262 162.369 123.381 162.482 123.524 162.553L124.827 163.187C125.374 163.453 125.974 163.592 126.582 163.593H133.649C134.101 163.595 134.539 163.441 134.89 163.157L134.89 163.158Z" fill="#090814"/>
<path d="M108.631 163.158C108.757 163.068 108.863 162.953 108.941 162.82C109.02 162.686 109.07 162.538 109.087 162.384C109.107 162.063 108.95 161.719 108.616 161.361C108.608 161.258 108.505 159.982 108.274 159.753C108.295 159.685 108.411 159.232 108.219 158.938C108.17 158.867 108.105 158.808 108.03 158.767C107.954 158.725 107.87 158.701 107.784 158.698H107.776L107.771 158.705C107.766 158.715 107.205 159.702 106.361 159.789C105.877 159.839 105.393 159.586 104.921 159.039C104.904 158.999 104.771 158.332 104.685 157.891L104.682 157.873L100.084 160.321L97.3961 161.074C97.2421 161.119 97.1052 161.209 97.0033 161.333C96.9015 161.457 96.8394 161.609 96.8253 161.769C96.8112 161.929 96.8458 162.089 96.9243 162.229C97.0029 162.369 97.1219 162.482 97.2657 162.553L98.5685 163.187C99.1156 163.453 99.7157 163.592 100.324 163.593H107.391C107.842 163.595 108.28 163.441 108.631 163.157L108.631 163.158Z" fill="#090814"/>
<path d="M121.83 72.0018C121.83 71.0038 121.553 70.0253 121.031 69.1751C120.509 68.3249 119.761 67.6361 118.871 67.1854C117.981 66.7346 116.984 66.5395 115.99 66.6216C114.996 66.7037 114.044 67.0599 113.241 67.6506C112.437 68.2413 111.812 69.0434 111.436 69.9678C111.06 70.8923 110.948 71.9029 111.111 72.8874C111.275 73.872 111.708 74.7919 112.362 75.5452C113.016 76.2984 113.866 76.8555 114.818 77.1544L115.861 84.0528L121.178 79.6185C120.454 78.6638 119.86 77.616 119.414 76.5032C120.157 76.0113 120.767 75.3426 121.188 74.557C121.61 73.7715 121.83 72.8936 121.83 72.0018Z" fill="#E28F8F"/>
<path d="M118.307 116.33L116.923 117.035C111.946 119.512 108.699 121.162 105.862 120.072C105.318 119.874 104.82 119.569 104.396 119.175C103.973 118.781 103.632 118.306 103.395 117.778C103.158 117.25 103.03 116.68 103.017 116.101C103.005 115.522 103.108 114.947 103.321 114.409C103.569 113.773 103.953 113.198 104.445 112.725C104.937 112.252 105.527 111.891 106.172 111.669C105.841 111.072 105.644 110.409 105.595 109.728C105.545 109.047 105.645 108.363 105.886 107.724C106.087 107.181 106.395 106.684 106.791 106.263C107.188 105.841 107.665 105.504 108.194 105.27C108.723 105.036 109.293 104.911 109.872 104.902C110.45 104.893 111.024 105 111.56 105.216C114.398 106.306 115.707 109.707 117.749 114.88L118.307 116.33Z" fill="#A5B68D"/>
<path d="M121.685 77.3322L115.33 81.3973L112.396 86.5804C111.547 88.0814 111.26 89.8362 111.587 91.5298L112.935 98.507H126.987L124.767 83.9503C124.483 82.0928 123.776 80.3256 122.7 78.7857L121.684 77.3326L121.685 77.3322Z" fill="#E6E6E6"/>
<path d="M123.562 79.0963C123.562 79.0963 123.31 81.0092 120.976 81.0718L116.241 81.1984C116.241 81.1984 120.244 71.4497 118.597 72.5481C116.95 73.6465 112.562 69.0415 112.562 69.0415L111.267 71.4727C111.267 71.4727 108.173 70.3515 111.602 67.6059C111.602 67.6059 115.694 64.4405 120.037 66.3414C124.381 68.2423 123.562 79.0963 123.562 79.0963Z" fill="#090814"/>
<path d="M120.597 113.736L120.71 108.503L117.657 108.437L117.544 113.67C117.239 113.967 116.997 114.322 116.831 114.714C116.666 115.107 116.579 115.528 116.578 115.953C116.543 117.585 117.607 118.931 118.957 118.96C120.306 118.989 121.428 117.691 121.463 116.06C121.48 115.634 121.412 115.21 121.263 114.811C121.115 114.412 120.888 114.047 120.597 113.736L120.597 113.736Z" fill="#E28F8F"/>
<path d="M116.382 87.5466V112.91H121.683L123.25 87.7607" fill="#E6E6E6"/>
<path d="M148.064 163.536C148.064 163.593 148.055 163.65 148.038 163.703C148.021 163.757 147.995 163.805 147.963 163.846C147.931 163.886 147.893 163.919 147.851 163.941C147.809 163.963 147.764 163.974 147.718 163.974H0.402308C0.311927 163.971 0.22595 163.924 0.162767 163.842C0.0995834 163.76 0.064209 163.65 0.064209 163.536C0.064209 163.421 0.0995834 163.311 0.162767 163.229C0.22595 163.148 0.311927 163.1 0.402308 163.098H147.718C147.764 163.097 147.809 163.109 147.851 163.131C147.893 163.153 147.931 163.185 147.963 163.226C147.995 163.266 148.021 163.315 148.038 163.368C148.055 163.421 148.064 163.478 148.064 163.536Z" fill="#F2F2F2"/>
<path d="M91.2569 39.6187H90.3631V15.141C90.3631 11.3837 88.8716 7.78019 86.2166 5.12334C83.5615 2.46648 79.9605 0.973877 76.2058 0.973877H24.3837C20.6289 0.973877 17.0279 2.46648 14.3729 5.12334C11.7179 7.78019 10.2263 11.3837 10.2263 15.141V149.426C10.2263 153.184 11.7179 156.787 14.3729 159.444C17.0279 162.101 20.6289 163.593 24.3837 163.593H76.207C78.0662 163.593 79.9071 163.227 81.6248 162.515C83.3424 161.803 84.9031 160.759 86.2178 159.444C87.5324 158.128 88.5752 156.567 89.2867 154.848C89.9982 153.129 90.3644 151.287 90.3644 149.426V57.0418H91.2581L91.2569 39.6187Z" fill="#090814"/>
<path d="M76.7799 4.6604H70.0161C70.3272 5.42369 70.446 6.25184 70.3619 7.07188C70.2778 7.89192 69.9935 8.67868 69.5339 9.36284C69.0744 10.047 68.4537 10.6075 67.7267 10.9951C66.9996 11.3827 66.1884 11.5853 65.3647 11.5852H35.674C34.8502 11.5853 34.0391 11.3827 33.312 10.9951C32.5849 10.6075 31.9643 10.047 31.5047 9.36284C31.0452 8.67868 30.7608 7.89192 30.6768 7.07188C30.5927 6.25184 30.7114 5.42369 31.0226 4.6604H24.7056C21.9016 4.6604 19.2124 5.77506 17.2297 7.75916C15.2469 9.74326 14.1331 12.4343 14.1331 15.2402V149.328C14.1331 152.134 15.247 154.825 17.2297 156.809C19.2124 158.793 21.9014 159.908 24.7054 159.908H76.7779C78.1663 159.908 79.5411 159.634 80.8238 159.103C82.1066 158.571 83.2721 157.792 84.2538 156.809C85.2356 155.827 86.0143 154.661 86.5457 153.377C87.077 152.093 87.3504 150.718 87.3504 149.328V15.2402C87.3504 12.4347 86.2369 9.74405 84.2547 7.76002C82.2725 5.77599 79.5839 4.66105 76.7803 4.6604H76.7799Z" fill="white"/>
<path d="M66.4188 31.6735H41.0934C40.9837 31.6753 40.8749 31.6551 40.7731 31.6144C40.6713 31.5736 40.5787 31.5129 40.5006 31.436C40.4225 31.359 40.3604 31.2673 40.3181 31.1661C40.2757 31.0649 40.2539 30.9563 40.2539 30.8466C40.2539 30.7369 40.2757 30.6283 40.3181 30.5271C40.3604 30.4259 40.4225 30.3342 40.5006 30.2572C40.5787 30.1802 40.6713 30.1196 40.7731 30.0788C40.8749 30.038 40.9837 30.0179 41.0934 30.0196H66.4188C66.6357 30.023 66.8426 30.1117 66.9948 30.2664C67.147 30.4211 67.2323 30.6295 67.2323 30.8466C67.2323 31.0637 67.147 31.2721 66.9948 31.4268C66.8426 31.5815 66.6357 31.6701 66.4188 31.6735Z" fill="#A5B68D"/>
<path d="M52.0709 34.9391H41.0932C40.8763 34.9357 40.6694 34.847 40.5172 34.6923C40.365 34.5376 40.2797 34.3292 40.2797 34.1121C40.2797 33.895 40.365 33.6866 40.5172 33.5319C40.6694 33.3772 40.8763 33.2885 41.0932 33.2851H52.0716C52.1812 33.2834 52.29 33.3035 52.3918 33.3443C52.4936 33.3851 52.5862 33.4457 52.6643 33.5227C52.7425 33.5997 52.8045 33.6914 52.8468 33.7926C52.8892 33.8938 52.911 34.0024 52.911 34.1121C52.911 34.2218 52.8892 34.3304 52.8468 34.4316C52.8045 34.5328 52.7425 34.6245 52.6643 34.7015C52.5862 34.7784 52.4936 34.8391 52.3918 34.8799C52.29 34.9207 52.1812 34.9408 52.0716 34.9391H52.0709Z" fill="#A5B68D"/>
<path d="M74.8335 35.7641C76.6464 35.7641 78.1161 34.2934 78.1161 32.4792C78.1161 30.665 76.6464 29.1943 74.8335 29.1943C73.0206 29.1943 71.5509 30.665 71.5509 32.4792C71.5509 34.2934 73.0206 35.7641 74.8335 35.7641Z" fill="#A5B68D"/>
<path d="M74.2885 33.6598H74.2682C74.2066 33.6566 74.1464 33.6402 74.0917 33.6117C74.0371 33.5832 73.9892 33.5432 73.9513 33.4945L73.4029 32.7898C73.3682 32.7453 73.3427 32.6943 73.3278 32.6399C73.3128 32.5854 73.3087 32.5286 73.3157 32.4726C73.3227 32.4165 73.3407 32.3625 73.3685 32.3134C73.3964 32.2643 73.4337 32.2212 73.4782 32.1865L73.4985 32.1711C73.5431 32.1364 73.594 32.1108 73.6484 32.0958C73.7028 32.0808 73.7596 32.0767 73.8156 32.0837C73.8716 32.0907 73.9257 32.1087 73.9747 32.1366C74.0237 32.1646 74.0668 32.2019 74.1014 32.2465C74.1291 32.2821 74.1641 32.3113 74.2041 32.3322C74.2442 32.353 74.2882 32.3649 74.3332 32.3671C74.3783 32.3693 74.4232 32.3617 74.4651 32.3449C74.5069 32.3281 74.5447 32.3024 74.5757 32.2697L75.6888 31.0908C75.7672 31.0082 75.8751 30.96 75.9889 30.9569C76.1027 30.9539 76.2131 30.9961 76.2959 31.0743L76.3142 31.0916C76.3552 31.1304 76.3881 31.1769 76.4111 31.2284C76.4341 31.28 76.4467 31.3355 76.4483 31.3919C76.4498 31.4484 76.4402 31.5045 76.42 31.5573C76.3998 31.61 76.3694 31.6582 76.3306 31.6991L74.6021 33.5248C74.562 33.5672 74.5137 33.601 74.4601 33.6241C74.4066 33.6472 74.3488 33.6591 74.2905 33.6592L74.2885 33.6598Z" fill="white"/>
<path d="M34.032 37.1552H25.2979C24.7863 37.1546 24.2959 36.951 23.9341 36.589C23.5724 36.227 23.3689 35.7362 23.3683 35.2242V29.7363C23.3689 29.2243 23.5724 28.7335 23.9341 28.3715C24.2959 28.0095 24.7863 27.8059 25.2979 27.8053H34.032C34.5436 27.8059 35.0341 28.0095 35.3958 28.3715C35.7576 28.7335 35.9611 29.2243 35.9616 29.7363V35.2242C35.9611 35.7362 35.7576 36.227 35.3958 36.589C35.0341 36.951 34.5436 37.1546 34.032 37.1552Z" fill="#A5B68D"/>
<path d="M29.6583 35.4219L29.1881 34.9973C27.5178 33.4629 26.4153 32.4669 26.4153 31.2262C26.4112 30.9901 26.4544 30.7557 26.5424 30.5366C26.6305 30.3176 26.7615 30.1184 26.9279 29.951C27.0942 29.7835 27.2924 29.6512 27.5108 29.5618C27.7291 29.4724 27.9632 29.4277 28.1991 29.4304C28.4775 29.4319 28.7523 29.494 29.0043 29.6124C29.2563 29.7309 29.4795 29.9028 29.6585 30.1162C29.8374 29.9029 30.0604 29.7311 30.3123 29.6127C30.5641 29.4942 30.8386 29.4321 31.1169 29.4304C31.3528 29.4277 31.5869 29.4724 31.8052 29.5618C32.0236 29.6512 32.2218 29.7835 32.3881 29.951C32.5545 30.1184 32.6855 30.3176 32.7736 30.5366C32.8616 30.7557 32.9048 30.9901 32.9007 31.2262C32.9007 32.4661 31.7979 33.4621 30.1279 34.9973L29.6583 35.4219Z" fill="#F2F2F2"/>
<path d="M66.4188 49.1537H41.0934C40.9837 49.1554 40.8749 49.1353 40.7731 49.0945C40.6713 49.0537 40.5787 48.993 40.5006 48.9161C40.4225 48.8391 40.3604 48.7474 40.3181 48.6462C40.2757 48.545 40.2539 48.4364 40.2539 48.3267C40.2539 48.217 40.2757 48.1084 40.3181 48.0072C40.3604 47.906 40.4225 47.8143 40.5006 47.7373C40.5787 47.6603 40.6713 47.5997 40.7731 47.5589C40.8749 47.5181 40.9837 47.498 41.0934 47.4997H66.4188C66.6357 47.5031 66.8426 47.5918 66.9948 47.7465C67.147 47.9012 67.2323 48.1096 67.2323 48.3267C67.2323 48.5438 67.147 48.7522 66.9948 48.9069C66.8426 49.0616 66.6357 49.1502 66.4188 49.1537Z" fill="#A5B68D"/>
<path d="M52.0709 52.4193H41.0932C40.8763 52.4159 40.6694 52.3273 40.5172 52.1725C40.365 52.0178 40.2797 51.8094 40.2797 51.5923C40.2797 51.3752 40.365 51.1668 40.5172 51.0121C40.6694 50.8574 40.8763 50.7688 41.0932 50.7654H52.0716C52.1812 50.7636 52.29 50.7838 52.3918 50.8245C52.4936 50.8653 52.5862 50.926 52.6643 51.0029C52.7425 51.0799 52.8045 51.1716 52.8468 51.2728C52.8892 51.374 52.911 51.4826 52.911 51.5923C52.911 51.702 52.8892 51.8106 52.8468 51.9118C52.8045 52.013 52.7425 52.1047 52.6643 52.1817C52.5862 52.2587 52.4936 52.3193 52.3918 52.3601C52.29 52.4009 52.1812 52.421 52.0716 52.4193H52.0709Z" fill="#A5B68D"/>
<path d="M74.8335 53.2443C76.6464 53.2443 78.1161 51.7736 78.1161 49.9594C78.1161 48.1452 76.6464 46.6746 74.8335 46.6746C73.0206 46.6746 71.5509 48.1452 71.5509 49.9594C71.5509 51.7736 73.0206 53.2443 74.8335 53.2443Z" fill="#E6E6E6"/>
<path d="M74.2885 51.14H74.2682C74.2066 51.1368 74.1464 51.1205 74.0917 51.0919C74.0371 51.0634 73.9892 51.0234 73.9513 50.9747L73.4029 50.27C73.3682 50.2255 73.3427 50.1745 73.3278 50.1201C73.3128 50.0657 73.3087 50.0088 73.3157 49.9528C73.3227 49.8968 73.3407 49.8427 73.3685 49.7936C73.3964 49.7445 73.4337 49.7014 73.4782 49.6668L73.4985 49.6513C73.5431 49.6166 73.594 49.591 73.6484 49.576C73.7028 49.561 73.7596 49.5569 73.8156 49.5639C73.8716 49.5709 73.9257 49.5889 73.9747 49.6169C74.0237 49.6448 74.0668 49.6821 74.1014 49.7267C74.1291 49.7624 74.1641 49.7916 74.2041 49.8124C74.2442 49.8332 74.2882 49.8451 74.3332 49.8473C74.3783 49.8495 74.4232 49.8419 74.4651 49.8251C74.5069 49.8083 74.5447 49.7827 74.5757 49.7499L75.6888 48.571C75.7672 48.4884 75.8751 48.4403 75.9889 48.4372C76.1027 48.4341 76.2131 48.4763 76.2959 48.5545L76.3142 48.5718C76.3552 48.6106 76.3881 48.6571 76.4111 48.7086C76.4341 48.7602 76.4467 48.8157 76.4483 48.8722C76.4498 48.9286 76.4402 48.9848 76.42 49.0375C76.3998 49.0902 76.3694 49.1384 76.3306 49.1794L74.6021 51.005C74.562 51.0475 74.5137 51.0812 74.4601 51.1043C74.4066 51.1274 74.3488 51.1394 74.2905 51.1394L74.2885 51.14Z" fill="white"/>
<path d="M34.032 54.6354H25.2979C24.7863 54.6348 24.2959 54.4312 23.9341 54.0692C23.5724 53.7072 23.3689 53.2164 23.3683 52.7045V47.2165C23.3689 46.7045 23.5724 46.2137 23.9341 45.8517C24.2959 45.4897 24.7863 45.2861 25.2979 45.2855H34.032C34.5436 45.2861 35.0341 45.4897 35.3958 45.8517C35.7576 46.2137 35.9611 46.7045 35.9616 47.2165V52.7045C35.9611 53.2164 35.7576 53.7072 35.3958 54.0692C35.0341 54.4312 34.5436 54.6348 34.032 54.6354Z" fill="#E6E6E6"/>
<path d="M29.6583 52.9021L29.1881 52.4775C27.5178 50.9431 26.4153 49.9471 26.4153 48.7064C26.4112 48.4704 26.4544 48.2359 26.5424 48.0168C26.6305 47.7978 26.7615 47.5987 26.9279 47.4312C27.0942 47.2638 27.2924 47.1314 27.5108 47.042C27.7291 46.9526 27.9632 46.9079 28.1991 46.9106C28.4775 46.9121 28.7523 46.9742 29.0043 47.0927C29.2563 47.2111 29.4795 47.383 29.6585 47.5964C29.8374 47.3831 30.0604 47.2113 30.3123 47.0929C30.5641 46.9745 30.8386 46.9123 31.1169 46.9106C31.3528 46.9079 31.5869 46.9526 31.8052 47.042C32.0236 47.1314 32.2218 47.2638 32.3881 47.4312C32.5545 47.5987 32.6855 47.7978 32.7736 48.0168C32.8616 48.2359 32.9048 48.4704 32.9007 48.7064C32.9007 49.9463 31.7979 50.9423 30.1279 52.4775L29.6583 52.9021Z" fill="#A5B68D"/>
<path d="M66.4188 66.634H41.0934C40.9837 66.6357 40.8749 66.6156 40.7731 66.5748C40.6713 66.534 40.5787 66.4734 40.5006 66.3964C40.4225 66.3195 40.3604 66.2277 40.3181 66.1265C40.2757 66.0253 40.2539 65.9167 40.2539 65.807C40.2539 65.6973 40.2757 65.5887 40.3181 65.4875C40.3604 65.3864 40.4225 65.2946 40.5006 65.2177C40.5787 65.1407 40.6713 65.0801 40.7731 65.0393C40.8749 64.9985 40.9837 64.9784 41.0934 64.9801H66.4188C66.6357 64.9835 66.8426 65.0721 66.9948 65.2268C67.147 65.3815 67.2323 65.5899 67.2323 65.807C67.2323 66.0241 67.147 66.2325 66.9948 66.3873C66.8426 66.542 66.6357 66.6306 66.4188 66.634Z" fill="#A5B68D"/>
<path d="M52.0709 69.8995H41.0932C40.8763 69.8961 40.6694 69.8075 40.5172 69.6528C40.365 69.498 40.2797 69.2896 40.2797 69.0725C40.2797 68.8554 40.365 68.647 40.5172 68.4923C40.6694 68.3376 40.8763 68.249 41.0932 68.2456H52.0716C52.1812 68.2439 52.29 68.264 52.3918 68.3048C52.4936 68.3456 52.5862 68.4062 52.6643 68.4832C52.7425 68.5601 52.8045 68.6519 52.8468 68.753C52.8892 68.8542 52.911 68.9628 52.911 69.0725C52.911 69.1822 52.8892 69.2909 52.8468 69.392C52.8045 69.4932 52.7425 69.585 52.6643 69.6619C52.5862 69.7389 52.4936 69.7995 52.3918 69.8403C52.29 69.8811 52.1812 69.9012 52.0716 69.8995H52.0709Z" fill="#A5B68D"/>
<path d="M74.8335 70.7246C76.6464 70.7246 78.1161 69.254 78.1161 67.4398C78.1161 65.6256 76.6464 64.1549 74.8335 64.1549C73.0206 64.1549 71.5509 65.6256 71.5509 67.4398C71.5509 69.254 73.0206 70.7246 74.8335 70.7246Z" fill="#E6E6E6"/>
<path d="M74.2885 68.6203H74.2682C74.2066 68.6172 74.1464 68.6008 74.0917 68.5723C74.0371 68.5438 73.9892 68.5038 73.9513 68.4551L73.4029 67.7504C73.3682 67.7058 73.3427 67.6549 73.3278 67.6004C73.3128 67.546 73.3087 67.4892 73.3157 67.4331C73.3227 67.3771 73.3407 67.323 73.3685 67.274C73.3964 67.2249 73.4337 67.1818 73.4782 67.1471L73.4985 67.1317C73.5431 67.097 73.594 67.0714 73.6484 67.0564C73.7028 67.0414 73.7596 67.0373 73.8156 67.0443C73.8716 67.0513 73.9257 67.0693 73.9747 67.0972C74.0237 67.1251 74.0668 67.1625 74.1014 67.2071C74.1291 67.2427 74.1641 67.2719 74.2041 67.2927C74.2442 67.3135 74.2882 67.3254 74.3332 67.3276C74.3783 67.3298 74.4232 67.3223 74.4651 67.3055C74.5069 67.2887 74.5447 67.263 74.5757 67.2303L75.6888 66.0514C75.7672 65.9687 75.8751 65.9206 75.9889 65.9175C76.1027 65.9144 76.2131 65.9566 76.2959 66.0349L76.3142 66.0522C76.3552 66.091 76.3881 66.1375 76.4111 66.189C76.4341 66.2405 76.4467 66.2961 76.4483 66.3525C76.4498 66.4089 76.4402 66.4651 76.42 66.5178C76.3998 66.5705 76.3694 66.6187 76.3306 66.6597L74.6021 68.4854C74.562 68.5278 74.5137 68.5616 74.4601 68.5847C74.4066 68.6078 74.3488 68.6197 74.2905 68.6197L74.2885 68.6203Z" fill="white"/>
<path d="M34.032 72.1155H25.2979C24.7863 72.1149 24.2959 71.9113 23.9341 71.5493C23.5724 71.1873 23.3689 70.6965 23.3683 70.1846V64.6966C23.3689 64.1846 23.5724 63.6938 23.9341 63.3318C24.2959 62.9698 24.7863 62.7662 25.2979 62.7656H34.032C34.5436 62.7662 35.0341 62.9698 35.3958 63.3318C35.7576 63.6938 35.9611 64.1846 35.9616 64.6966V70.1846C35.9611 70.6965 35.7576 71.1873 35.3958 71.5493C35.0341 71.9113 34.5436 72.1149 34.032 72.1155Z" fill="#E6E6E6"/>
<path d="M29.6583 70.3824L29.1881 69.9578C27.5178 68.4234 26.4153 67.4275 26.4153 66.1868C26.4112 65.9507 26.4544 65.7162 26.5424 65.4972C26.6305 65.2781 26.7615 65.079 26.9279 64.9116C27.0942 64.7441 27.2924 64.6118 27.5108 64.5223C27.7291 64.4329 27.9632 64.3883 28.1991 64.391C28.4775 64.3925 28.7523 64.4546 29.0043 64.573C29.2563 64.6914 29.4795 64.8633 29.6585 65.0768C29.8374 64.8635 30.0604 64.6917 30.3123 64.5732C30.5641 64.4548 30.8386 64.3926 31.1169 64.391C31.3528 64.3883 31.5869 64.4329 31.8052 64.5223C32.0236 64.6118 32.2218 64.7441 32.3881 64.9116C32.5545 65.079 32.6855 65.2781 32.7736 65.4972C32.8616 65.7162 32.9048 65.9507 32.9007 66.1868C32.9007 67.4267 31.7979 68.4226 30.1279 69.9578L29.6583 70.3824Z" fill="#A5B68D"/>
<path d="M66.4188 84.1142H41.0934C40.9837 84.1159 40.8749 84.0958 40.7731 84.055C40.6713 84.0142 40.5787 83.9536 40.5006 83.8767C40.4225 83.7997 40.3604 83.7079 40.3181 83.6068C40.2757 83.5056 40.2539 83.397 40.2539 83.2873C40.2539 83.1776 40.2757 83.069 40.3181 82.9678C40.3604 82.8666 40.4225 82.7748 40.5006 82.6979C40.5787 82.6209 40.6713 82.5603 40.7731 82.5195C40.8749 82.4787 40.9837 82.4586 41.0934 82.4603H66.4188C66.6357 82.4637 66.8426 82.5523 66.9948 82.707C67.147 82.8618 67.2323 83.0702 67.2323 83.2873C67.2323 83.5044 67.147 83.7128 66.9948 83.8675C66.8426 84.0222 66.6357 84.1108 66.4188 84.1142Z" fill="#E6E6E6"/>
<path d="M52.0709 87.3796H41.0932C40.8763 87.3762 40.6694 87.2876 40.5172 87.1329C40.365 86.9782 40.2797 86.7697 40.2797 86.5526C40.2797 86.3355 40.365 86.1271 40.5172 85.9724C40.6694 85.8177 40.8763 85.7291 41.0932 85.7257H52.0716C52.1812 85.724 52.29 85.7441 52.3918 85.7849C52.4936 85.8257 52.5862 85.8863 52.6643 85.9633C52.7425 86.0402 52.8045 86.132 52.8468 86.2332C52.8892 86.3343 52.911 86.4429 52.911 86.5526C52.911 86.6623 52.8892 86.771 52.8468 86.8721C52.8045 86.9733 52.7425 87.0651 52.6643 87.142C52.5862 87.219 52.4936 87.2796 52.3918 87.3204C52.29 87.3612 52.1812 87.3813 52.0716 87.3796H52.0709Z" fill="#E6E6E6"/>
<path d="M74.8335 88.2049C76.6464 88.2049 78.1161 86.7342 78.1161 84.92C78.1161 83.1058 76.6464 81.6351 74.8335 81.6351C73.0206 81.6351 71.5509 83.1058 71.5509 84.92C71.5509 86.7342 73.0206 88.2049 74.8335 88.2049Z" fill="#E6E6E6"/>
<path d="M74.2885 86.1006H74.2682C74.2066 86.0974 74.1464 86.081 74.0917 86.0525C74.0371 86.024 73.9892 85.984 73.9513 85.9353L73.4029 85.2306C73.3682 85.1861 73.3427 85.1351 73.3278 85.0807C73.3128 85.0262 73.3087 84.9694 73.3157 84.9134C73.3227 84.8573 73.3407 84.8033 73.3685 84.7542C73.3964 84.7051 73.4337 84.662 73.4782 84.6273L73.4985 84.6119C73.5431 84.5772 73.594 84.5516 73.6484 84.5366C73.7028 84.5216 73.7596 84.5175 73.8156 84.5245C73.8716 84.5315 73.9257 84.5495 73.9747 84.5774C74.0237 84.6054 74.0668 84.6427 74.1014 84.6873C74.1291 84.7229 74.1641 84.7521 74.2041 84.773C74.2442 84.7938 74.2882 84.8057 74.3332 84.8079C74.3783 84.8101 74.4232 84.8025 74.4651 84.7857C74.5069 84.7689 74.5447 84.7432 74.5757 84.7105L75.6888 83.5316C75.7672 83.449 75.8751 83.4008 75.9889 83.3977C76.1027 83.3947 76.2131 83.4369 76.2959 83.5151L76.3142 83.5324C76.3552 83.5712 76.3881 83.6177 76.4111 83.6692C76.4341 83.7208 76.4467 83.7763 76.4483 83.8327C76.4498 83.8892 76.4402 83.9453 76.42 83.9981C76.3998 84.0508 76.3694 84.099 76.3306 84.1399L74.6021 85.9656C74.562 86.008 74.5137 86.0418 74.4601 86.0649C74.4066 86.088 74.3488 86.0999 74.2905 86.1L74.2885 86.1006Z" fill="white"/>
<path d="M34.032 89.5959H25.2979C24.7863 89.5953 24.2959 89.3917 23.9341 89.0297C23.5724 88.6677 23.3689 88.1769 23.3683 87.6649V82.1769C23.3689 81.665 23.5724 81.1742 23.9341 80.8122C24.2959 80.4502 24.7863 80.2466 25.2979 80.246H34.032C34.5436 80.2466 35.0341 80.4502 35.3958 80.8122C35.7576 81.1742 35.9611 81.665 35.9616 82.1769V87.6649C35.9611 88.1769 35.7576 88.6677 35.3958 89.0297C35.0341 89.3917 34.5436 89.5953 34.032 89.5959Z" fill="#E6E6E6"/>
<path d="M66.4188 101.594H41.0934C40.9837 101.596 40.8749 101.576 40.7731 101.535C40.6713 101.494 40.5787 101.434 40.5006 101.357C40.4225 101.28 40.3604 101.188 40.3181 101.087C40.2757 100.986 40.2539 100.877 40.2539 100.767C40.2539 100.658 40.2757 100.549 40.3181 100.448C40.3604 100.347 40.4225 100.255 40.5006 100.178C40.5787 100.101 40.6713 100.041 40.7731 99.9997C40.8749 99.9589 40.9837 99.9388 41.0934 99.9405H66.4188C66.6357 99.9439 66.8426 100.033 66.9948 100.187C67.147 100.342 67.2323 100.55 67.2323 100.767C67.2323 100.985 67.147 101.193 66.9948 101.348C66.8426 101.502 66.6357 101.591 66.4188 101.594Z" fill="#E6E6E6"/>
<path d="M52.0709 104.86H41.0932C40.8763 104.857 40.6694 104.768 40.5172 104.613C40.365 104.458 40.2797 104.25 40.2797 104.033C40.2797 103.816 40.365 103.607 40.5172 103.453C40.6694 103.298 40.8763 103.209 41.0932 103.206H52.0716C52.1812 103.204 52.29 103.224 52.3918 103.265C52.4936 103.306 52.5862 103.367 52.6643 103.444C52.7425 103.521 52.8045 103.612 52.8468 103.713C52.8892 103.815 52.911 103.923 52.911 104.033C52.911 104.143 52.8892 104.251 52.8468 104.352C52.8045 104.454 52.7425 104.545 52.6643 104.622C52.5862 104.699 52.4936 104.76 52.3918 104.801C52.29 104.842 52.1812 104.862 52.0716 104.86H52.0709Z" fill="#E6E6E6"/>
<path d="M74.8335 105.685C76.6464 105.685 78.1161 104.214 78.1161 102.4C78.1161 100.586 76.6464 99.1152 74.8335 99.1152C73.0206 99.1152 71.5509 100.586 71.5509 102.4C71.5509 104.214 73.0206 105.685 74.8335 105.685Z" fill="#E6E6E6"/>
<path d="M74.2885 103.581H74.2682C74.2066 103.578 74.1464 103.561 74.0917 103.533C74.0371 103.504 73.9892 103.464 73.9513 103.415L73.4029 102.711C73.3682 102.666 73.3427 102.615 73.3278 102.561C73.3128 102.506 73.3087 102.449 73.3157 102.393C73.3227 102.337 73.3407 102.283 73.3685 102.234C73.3964 102.185 73.4337 102.142 73.4782 102.107L73.4985 102.092C73.5431 102.057 73.594 102.032 73.6484 102.017C73.7028 102.002 73.7596 101.998 73.8156 102.005C73.8716 102.012 73.9257 102.03 73.9747 102.058C74.0237 102.085 74.0668 102.123 74.1014 102.167C74.1291 102.203 74.1641 102.232 74.2041 102.253C74.2442 102.274 74.2882 102.286 74.3332 102.288C74.3783 102.29 74.4232 102.283 74.4651 102.266C74.5069 102.249 74.5447 102.223 74.5757 102.191L75.6888 101.012C75.7672 100.929 75.8751 100.881 75.9889 100.878C76.1027 100.875 76.2131 100.917 76.2959 100.995L76.3142 101.012C76.3552 101.051 76.3881 101.098 76.4111 101.149C76.4341 101.201 76.4467 101.256 76.4483 101.313C76.4498 101.369 76.4402 101.425 76.42 101.478C76.3998 101.531 76.3694 101.579 76.3306 101.62L74.6021 103.446C74.562 103.488 74.5137 103.522 74.4601 103.545C74.4066 103.568 74.3488 103.58 74.2905 103.58L74.2885 103.581Z" fill="white"/>
<path d="M34.032 107.076H25.2979C24.7863 107.076 24.2959 106.872 23.9341 106.51C23.5724 106.148 23.3689 105.657 23.3683 105.145V99.6572C23.3689 99.1452 23.5724 98.6544 23.9341 98.2924C24.2959 97.9304 24.7863 97.7268 25.2979 97.7262H34.032C34.5436 97.7268 35.0341 97.9304 35.3958 98.2924C35.7576 98.6544 35.9611 99.1452 35.9616 99.6572V105.145C35.9611 105.657 35.7576 106.148 35.3958 106.51C35.0341 106.872 34.5436 107.076 34.032 107.076Z" fill="#E6E6E6"/>
<path d="M66.4188 119.075H41.0934C40.9837 119.077 40.8749 119.056 40.7731 119.016C40.6713 118.975 40.5787 118.914 40.5006 118.837C40.4225 118.76 40.3604 118.669 40.3181 118.567C40.2757 118.466 40.2539 118.358 40.2539 118.248C40.2539 118.138 40.2757 118.03 40.3181 117.928C40.3604 117.827 40.4225 117.735 40.5006 117.658C40.5787 117.581 40.6713 117.521 40.7731 117.48C40.8749 117.439 40.9837 117.419 41.0934 117.421H66.4188C66.6357 117.424 66.8426 117.513 66.9948 117.668C67.147 117.822 67.2323 118.031 67.2323 118.248C67.2323 118.465 67.147 118.673 66.9948 118.828C66.8426 118.983 66.6357 119.071 66.4188 119.075Z" fill="#E6E6E6"/>
<path d="M52.0709 122.34H41.0932C40.8763 122.337 40.6694 122.248 40.5172 122.093C40.365 121.939 40.2797 121.73 40.2797 121.513C40.2797 121.296 40.365 121.088 40.5172 120.933C40.6694 120.778 40.8763 120.69 41.0932 120.686H52.0716C52.1812 120.685 52.29 120.705 52.3918 120.745C52.4936 120.786 52.5862 120.847 52.6643 120.924C52.7425 121.001 52.8045 121.093 52.8468 121.194C52.8892 121.295 52.911 121.404 52.911 121.513C52.911 121.623 52.8892 121.732 52.8468 121.833C52.8045 121.934 52.7425 122.026 52.6643 122.103C52.5862 122.18 52.4936 122.24 52.3918 122.281C52.29 122.322 52.1812 122.342 52.0716 122.34H52.0709Z" fill="#E6E6E6"/>
<path d="M74.8335 123.165C76.6464 123.165 78.1161 121.695 78.1161 119.88C78.1161 118.066 76.6464 116.596 74.8335 116.596C73.0206 116.596 71.5509 118.066 71.5509 119.88C71.5509 121.695 73.0206 123.165 74.8335 123.165Z" fill="#E6E6E6"/>
<path d="M74.2885 121.061H74.2682C74.2066 121.058 74.1464 121.041 74.0917 121.013C74.0371 120.984 73.9892 120.944 73.9513 120.896L73.4029 120.191C73.3682 120.146 73.3427 120.095 73.3278 120.041C73.3128 119.987 73.3087 119.93 73.3157 119.874C73.3227 119.818 73.3407 119.764 73.3685 119.715C73.3964 119.665 73.4337 119.622 73.4782 119.588L73.4985 119.572C73.5431 119.538 73.594 119.512 73.6484 119.497C73.7028 119.482 73.7596 119.478 73.8156 119.485C73.8716 119.492 73.9257 119.51 73.9747 119.538C74.0237 119.566 74.0668 119.603 74.1014 119.648C74.1291 119.683 74.1641 119.712 74.2041 119.733C74.2442 119.754 74.2882 119.766 74.3332 119.768C74.3783 119.77 74.4232 119.763 74.4651 119.746C74.5069 119.729 74.5447 119.704 74.5757 119.671L75.6888 118.492C75.7672 118.409 75.8751 118.361 75.9889 118.358C76.1027 118.355 76.2131 118.397 76.2959 118.475L76.3142 118.493C76.3552 118.532 76.3881 118.578 76.4111 118.63C76.4341 118.681 76.4467 118.737 76.4483 118.793C76.4498 118.849 76.4402 118.906 76.42 118.958C76.3998 119.011 76.3694 119.059 76.3306 119.1L74.6021 120.926C74.562 120.968 74.5137 121.002 74.4601 121.025C74.4066 121.048 74.3488 121.06 74.2905 121.06L74.2885 121.061Z" fill="white"/>
<path d="M34.032 124.556H25.2979C24.7863 124.556 24.2959 124.352 23.9341 123.99C23.5724 123.628 23.3689 123.137 23.3683 122.625V117.138C23.3689 116.626 23.5724 116.135 23.9341 115.773C24.2959 115.411 24.7863 115.207 25.2979 115.207H34.032C34.5436 115.207 35.0341 115.411 35.3958 115.773C35.7576 116.135 35.9611 116.626 35.9616 117.138V122.625C35.9611 123.137 35.7576 123.628 35.3958 123.99C35.0341 124.352 34.5436 124.556 34.032 124.556Z" fill="#E6E6E6"/>
<path d="M66.4188 136.555H41.0934C40.9837 136.557 40.8749 136.537 40.7731 136.496C40.6713 136.455 40.5787 136.394 40.5006 136.317C40.4225 136.24 40.3604 136.149 40.3181 136.048C40.2757 135.946 40.2539 135.838 40.2539 135.728C40.2539 135.618 40.2757 135.51 40.3181 135.409C40.3604 135.307 40.4225 135.216 40.5006 135.139C40.5787 135.062 40.6713 135.001 40.7731 134.96C40.8749 134.92 40.9837 134.899 41.0934 134.901H66.4188C66.6357 134.905 66.8426 134.993 66.9948 135.148C67.147 135.303 67.2323 135.511 67.2323 135.728C67.2323 135.945 67.147 136.154 66.9948 136.308C66.8426 136.463 66.6357 136.552 66.4188 136.555Z" fill="#E6E6E6"/>
<path d="M52.0709 139.82H41.0932C40.8763 139.817 40.6694 139.728 40.5172 139.574C40.365 139.419 40.2797 139.211 40.2797 138.993C40.2797 138.776 40.365 138.568 40.5172 138.413C40.6694 138.259 40.8763 138.17 41.0932 138.166H52.0716C52.1812 138.165 52.29 138.185 52.3918 138.226C52.4936 138.266 52.5862 138.327 52.6643 138.404C52.7425 138.481 52.8045 138.573 52.8468 138.674C52.8892 138.775 52.911 138.884 52.911 138.993C52.911 139.103 52.8892 139.212 52.8468 139.313C52.8045 139.414 52.7425 139.506 52.6643 139.583C52.5862 139.66 52.4936 139.72 52.3918 139.761C52.29 139.802 52.1812 139.822 52.0716 139.82H52.0709Z" fill="#E6E6E6"/>
<path d="M74.8335 140.646C76.6464 140.646 78.1161 139.175 78.1161 137.361C78.1161 135.546 76.6464 134.076 74.8335 134.076C73.0206 134.076 71.5509 135.546 71.5509 137.361C71.5509 139.175 73.0206 140.646 74.8335 140.646Z" fill="#E6E6E6"/>
<path d="M74.2885 138.541H74.2682C74.2066 138.538 74.1464 138.522 74.0917 138.493C74.0371 138.465 73.9892 138.425 73.9513 138.376L73.4029 137.671C73.3682 137.627 73.3427 137.576 73.3278 137.521C73.3128 137.467 73.3087 137.41 73.3157 137.354C73.3227 137.298 73.3407 137.244 73.3685 137.195C73.3964 137.146 73.4337 137.103 73.4782 137.068L73.4985 137.052C73.5431 137.018 73.594 136.992 73.6484 136.977C73.7028 136.962 73.7596 136.958 73.8156 136.965C73.8716 136.972 73.9257 136.99 73.9747 137.018C74.0237 137.046 74.0668 137.083 74.1014 137.128C74.1291 137.163 74.1641 137.193 74.2041 137.214C74.2442 137.234 74.2882 137.246 74.3332 137.248C74.3783 137.251 74.4232 137.243 74.4651 137.226C74.5069 137.209 74.5447 137.184 74.5757 137.151L75.6888 135.972C75.7672 135.89 75.8751 135.841 75.9889 135.838C76.1027 135.835 76.2131 135.877 76.2959 135.956L76.3142 135.973C76.3552 136.012 76.3881 136.058 76.4111 136.11C76.4341 136.161 76.4467 136.217 76.4483 136.273C76.4498 136.33 76.4402 136.386 76.42 136.439C76.3998 136.491 76.3694 136.54 76.3306 136.58L74.6021 138.406C74.562 138.449 74.5137 138.482 74.4601 138.505C74.4066 138.529 74.3488 138.54 74.2905 138.541L74.2885 138.541Z" fill="white"/>
<path d="M34.032 142.037H25.2979C24.7863 142.036 24.2959 141.832 23.9341 141.47C23.5724 141.108 23.3689 140.618 23.3683 140.106V134.618C23.3689 134.106 23.5724 133.615 23.9341 133.253C24.2959 132.891 24.7863 132.687 25.2979 132.687H34.032C34.5436 132.687 35.0341 132.891 35.3958 133.253C35.7576 133.615 35.9611 134.106 35.9616 134.618V140.106C35.9611 140.618 35.7576 141.108 35.3958 141.47C35.0341 141.832 34.5436 142.036 34.032 142.037Z" fill="#E6E6E6"/>
</svg>
