<svg width="165" height="156" viewBox="0 0 165 156" fill="none" xmlns="http://www.w3.org/2000/svg">
<path d="M11.4478 28.4415H114.388C118.401 28.4415 121.653 31.6917 121.653 35.7013C121.653 39.7109 118.401 42.9611 114.388 42.9611H11.4478C7.43557 42.9611 4.18323 39.7109 4.18323 35.7013C4.18323 31.6917 7.43557 28.4415 11.4478 28.4415Z" fill="#A5B68D"/>
<path d="M99.3598 21.1213H120.732C121.243 21.1213 121.655 21.5335 121.655 22.042C121.655 22.5504 121.243 22.9626 120.732 22.9626H99.3598C98.8487 22.9626 98.4363 22.5504 98.4363 22.042C98.4363 21.5335 98.8487 21.1213 99.3598 21.1213Z" fill="#FB8F5B"/>
<path d="M5.10683 0.0765381H26.479C26.9901 0.0765381 27.4025 0.488695 27.4025 0.997172C27.4025 1.50565 26.9901 1.91781 26.479 1.91781H5.10683C4.59578 1.92005 4.18335 1.50789 4.18335 0.997172C4.18335 0.488695 4.59578 0.0765381 5.10683 0.0765381Z" fill="#FB8F5B"/>
<path d="M5.1067 8.12048H67.8381C68.3491 8.12048 68.7616 8.53264 68.7616 9.04336C68.7616 9.55183 68.3491 9.96399 67.8381 9.96399H5.1067C4.59565 9.96399 4.18323 9.55183 4.18323 9.04336C4.18323 8.53488 4.59565 8.12048 5.1067 8.12048Z" fill="#FB8F5B"/>
<path d="M56.5818 58.5133C56.5818 63.3427 60.4998 67.2582 65.3324 67.2582C66.7961 67.2582 68.1746 66.8998 69.3849 66.2659L77.8643 79.7058C78.3843 80.5279 79.4939 80.734 80.2739 80.1516C81.0024 79.6073 81.1593 78.5814 80.628 77.8422L71.3014 64.9063C73.0116 63.3091 74.083 61.0356 74.083 58.5133C74.083 53.6839 70.165 49.7684 65.3324 49.7684C60.4998 49.7684 56.5818 53.6839 56.5818 58.5133ZM57.7832 58.5133C57.7832 54.347 61.1633 50.9668 65.3346 50.9668C69.506 50.9668 72.8861 54.3447 72.8861 58.5133C72.8861 62.6797 69.506 66.0598 65.3346 66.0598C61.1655 66.0598 57.7832 62.6819 57.7832 58.5133Z" fill="#484662"/>
<path d="M119.286 47.125C119.286 47.125 114.673 47.6447 114.375 54.7835C114.126 60.7329 113.62 64.0481 116.043 65.289C116.908 65.7326 117.926 65.7706 118.851 65.4682L128.736 62.2203C128.736 62.2203 128.884 51.5131 125.461 48.9103C122.039 46.3074 119.286 47.125 119.286 47.125Z" fill="#1D1D1D"/>
<path d="M124.735 63.5329L119.732 65.1771V57.98H124.271L124.735 63.5329Z" fill="#FAAFB2"/>
<path d="M109.442 104.386C109.17 106.034 108.07 107.217 106.985 107.027C105.898 106.836 105.239 105.344 105.51 103.696C105.609 103.035 105.871 102.41 106.272 101.875L107.512 94.9038L110.885 95.6094L109.305 102.406C109.513 103.048 109.56 103.727 109.442 104.386Z" fill="#FAAFB2"/>
<path d="M120.896 150.738H116.211L113.492 125.717H120.737L120.896 150.738Z" fill="#FAAFB2"/>
<path d="M111.647 154.759C111.154 154.759 110.715 154.747 110.385 154.716C109.141 154.602 107.953 153.683 107.357 153.148C107.091 152.908 107.003 152.523 107.142 152.192C107.243 151.954 107.442 151.777 107.691 151.706L110.979 150.767L116.305 147.176L116.366 147.284C116.388 147.324 116.91 148.265 117.085 148.901C117.152 149.143 117.134 149.345 117.034 149.501C116.964 149.609 116.865 149.672 116.787 149.707C116.883 149.808 117.186 150.012 118.116 150.16C119.477 150.375 119.759 148.968 119.773 148.91L119.782 148.863L119.822 148.836C120.467 148.419 120.866 148.231 121.003 148.272C121.088 148.296 121.232 148.341 121.617 152.171C121.655 152.292 121.927 153.173 121.743 154.017C121.543 154.936 117.533 154.62 116.731 154.546C116.709 154.548 113.707 154.761 111.65 154.761H111.647V154.759Z" fill="#1D1D1D"/>
<path d="M131.482 150.738H126.795L124.078 125.717H131.32L131.482 150.738Z" fill="#FAAFB2"/>
<path d="M122.234 154.759C121.741 154.759 121.301 154.747 120.972 154.716C119.728 154.602 118.54 153.683 117.944 153.148C117.677 152.908 117.589 152.523 117.728 152.192C117.829 151.954 118.029 151.777 118.278 151.706L121.566 150.767L126.891 147.176L126.952 147.284C126.974 147.324 127.497 148.265 127.671 148.901C127.739 149.143 127.721 149.345 127.62 149.501C127.55 149.609 127.452 149.672 127.373 149.707C127.47 149.808 127.772 150.012 128.703 150.16C130.063 150.375 130.345 148.968 130.359 148.91L130.368 148.863L130.408 148.836C131.056 148.419 131.453 148.231 131.589 148.272C131.675 148.296 131.818 148.341 132.204 152.171C132.242 152.292 132.513 153.173 132.329 154.017C132.13 154.936 128.12 154.62 127.317 154.546C127.295 154.548 124.294 154.761 122.236 154.761H122.234V154.759Z" fill="#1D1D1D"/>
<path d="M132.829 89.2838H110.063L118.246 62.3682H127.324L132.829 89.2838Z" fill="#DFDFE0"/>
<path d="M119.678 62.3703C119.678 62.3703 114.023 62.2224 113.429 63.7098C112.835 65.1971 105.84 100.591 105.84 100.591H110.453L119.678 62.3725V62.3703Z" fill="#DFDFE0"/>
<path d="M120.351 59.9713C123.104 59.9713 125.336 57.7409 125.336 54.9895C125.336 52.2382 123.104 50.0078 120.351 50.0078C117.598 50.0078 115.366 52.2382 115.366 54.9895C115.366 57.7409 117.598 59.9713 120.351 59.9713Z" fill="#FAAFB2"/>
<path d="M118.988 48.9843C118.988 48.9843 116.244 60.117 119.295 65.3205L114.998 64.4088C114.998 64.4088 113.333 52.2255 116.682 50.0102L118.988 48.9843Z" fill="#1D1D1D"/>
<path d="M128.097 89.2837H113.156L104.981 122.814C104.831 124.23 105.73 125.551 107.106 125.921C111.591 127.122 122.355 128.822 138.643 124.084C140.21 123.629 141.1 121.976 140.609 120.419L128.097 89.2837Z" fill="#1D1D1D"/>
<path d="M122.057 62.3681L126.703 62.1643C128.716 62.3166 130.536 63.4097 131.614 65.1144C134.898 70.3022 141.042 81.2355 135.557 82.7341C128.326 84.7075 124.822 73.7204 124.822 73.7204L122.057 62.3681Z" fill="#DFDFE0"/>
<path d="M120.463 65.625C119.508 64.2542 119.474 62.6391 120.384 62.0186C121.297 61.3982 122.81 62.0097 123.765 63.3806C124.155 63.9226 124.401 64.5543 124.486 65.2173L128.456 71.0816L125.544 72.9251L121.94 66.9489C121.342 66.633 120.835 66.1783 120.463 65.625Z" fill="#FAAFB2"/>
<path d="M122.812 70.3671L126.091 67.3521L132.576 73.3843L126.546 77.5037L122.812 70.3671Z" fill="#DFDFE0"/>
<path d="M0.442383 154.81C0.442383 154.958 0.56118 155.076 0.709116 155.076H164.176C164.324 155.076 164.442 154.958 164.442 154.81C164.442 154.662 164.324 154.543 164.176 154.543H0.709116C0.56118 154.543 0.442383 154.662 0.442383 154.81Z" fill="#888888"/>
</svg>
